<svg xmlns="http://www.w3.org/2000/svg" xmlns:xlink="http://www.w3.org/1999/xlink" preserveAspectRatio="xMinYMin meet" viewBox="0 0 195.52142 98.678555" width="100%" height="100%"><defs><path id="1P" d="m565.13-138.12v290.88h212.75v-220.09l-132.69-70.781h-80.06z" stroke="#000" stroke-width="13.398" fill="#fff"/><path id="1Q" d="m746.35-38.692l31.77-38.599-129.25-57.927 97.48 96.53z" stroke-linejoin="round" stroke="#000" stroke-width="13.398" fill="#fff" stroke-linecap="round"/><path id="1R" d="m100.55 177.31c28.03 0 26.28-12.156 26.28-12.156l-.031-12.594h-26.75v-3.781h37.38c0 0 17.938 2.034 17.938-26.25 0-28.28-15.656-27.28-15.656-27.28h-9.344v13.12c0 0 .504 15.656-15.406 15.656-15.91 0-26.531 0-26.531 0 0 0-14.906-.241-14.906 14.406 0 14.647 0 24.22 0 24.22 0 0-2.263 14.656 27.03 14.656m14.75-8.469c-2.661 0-4.813-2.151-4.813-4.813 0-2.661 2.151-4.813 4.813-4.813 2.661 0 4.813 2.151 4.813 4.813 0 2.661-2.151 4.813-4.813 4.813"/><path id="1S" d="m10.414 122.67c-5.394-15.666 2.932-32.738 18.598-38.13l215.58-74.23c15.666-5.394 32.738 2.933 38.13 18.599l39.799 115.58c5.394 15.666-2.932 32.738-18.598 38.13l-215.58 74.22c-15.666 5.394-32.738-2.933-38.13-18.599l-39.798-115.58"/><path id="1T" d="m733.52-.152l38.08-52.4-132.55-75.16 89.55 121.26 4.923 6.302" fill="#c8b7b7"/><path id="1U" d="m99.75 67.47c-28.03 0-26.28 12.156-26.28 12.156l.031 12.594h26.75v3.781h-37.37c0 0-17.938-2.034-17.938 26.25 0 28.28 15.656 27.28 15.656 27.28h9.344v-13.12c0 0-.504-15.656 15.406-15.656 15.91 0 26.531 0 26.531 0 0 0 14.906.241 14.906-14.406 0-14.647 0-24.22 0-24.22 0 0 2.263-14.656-27.03-14.656m-14.75 8.469c2.661 0 4.813 2.151 4.813 4.813 0 2.661-2.151 4.813-4.813 4.813-2.661 0-4.813-2.151-4.813-4.813 0-2.661 2.151-4.813 4.813-4.813"/><filter id="q" color-interpolation-filters="sRGB"><feGaussianBlur stdDeviation="1.21543"/></filter><filter id="k" color-interpolation-filters="sRGB"><feGaussianBlur stdDeviation="1.63458"/></filter><filter id="o" x="-.179" width="1.357" y="-.181" height="1.363" color-interpolation-filters="sRGB"><feGaussianBlur stdDeviation="1.01789"/></filter><filter id="d" color-interpolation-filters="sRGB"><feGaussianBlur stdDeviation="4.57567"/></filter><linearGradient xlink:href="#0" id="s" gradientUnits="userSpaceOnUse" gradientTransform="matrix(.94749 0 0 .9965-385.55-56.13)" x1="1164.82" y1="440.93" x2="1164.84" y2="442.69"/><linearGradient id="v" gradientUnits="userSpaceOnUse" x1="-92.74" y1="23.521" x2="-93.47" y2="92.37"><stop stop-color="#fff" stop-opacity=".668"/><stop stop-color="#fff" stop-opacity="0" offset="1"/></linearGradient><linearGradient id="w" gradientUnits="userSpaceOnUse" x1="-86.26" y1="54.1" x2="-85.08" y2="60.44"><stop stop-color="#b1883f"/><stop stop-color="#b1883f" stop-opacity="0" offset="1"/></linearGradient><linearGradient xlink:href="#2" id="x" gradientUnits="userSpaceOnUse" x1="615.48" y1="374.8" x2="621.92" y2="381.26"/><linearGradient id="m"><stop stop-color="#fff"/><stop offset="1" stop-color="#868686"/></linearGradient><linearGradient y2="151.58" x2="145.47" y1="168.58" x1="110.77" gradientUnits="userSpaceOnUse" id="b" xlink:href="#a"/><linearGradient y2="-8.08" x2="270.58" y1="100.3" x1="308.85" gradientUnits="userSpaceOnUse" id="e" xlink:href="#f"/><linearGradient id="a"><stop stop-color="#005f61"/><stop offset="1"/></linearGradient><linearGradient id="f"><stop stop-color="#005f61"/><stop offset="1" stop-color="#91c4b7"/></linearGradient><linearGradient y2="6.778" x2="397.29" y1="165.47" x1="396.63" gradientUnits="userSpaceOnUse" id="i" xlink:href="#f"/><linearGradient y2="275" x2="0" y1="217.85" gradientUnits="userSpaceOnUse" id="l" xlink:href="#m"/><linearGradient xlink:href="#0" id="1O" gradientUnits="userSpaceOnUse" x1="496.6" y1="381.61" x2="496.62" y2="383.35"/><linearGradient xlink:href="#4" id="y" gradientUnits="userSpaceOnUse" x1="619.44" y1="378.91" x2="626.36" y2="385.54"/><linearGradient y2="275" x2="0" y1="217.85" gradientUnits="userSpaceOnUse" id="1E" xlink:href="#m"/><linearGradient xlink:href="#0" id="1I" gradientUnits="userSpaceOnUse" x1="539.61" y1="403.95" x2="541.36" y2="403.93"/><linearGradient xlink:href="#0" id="z" gradientUnits="userSpaceOnUse" x1="700.09" y1="391.7" x2="698.34" y2="391.72"/><linearGradient xlink:href="#0" id="1J" gradientUnits="userSpaceOnUse" x1="552.3" y1="421.45" x2="552.32" y2="423.2"/><linearGradient xlink:href="#0" id="1K" gradientUnits="userSpaceOnUse" gradientTransform="matrix(.94749 0 0 .9965-549.27-57.29)" x1="1164.82" y1="440.93" x2="1164.84" y2="442.69"/><linearGradient xlink:href="#0" id="1N" gradientUnits="userSpaceOnUse" x1="525.37" y1="382.1" x2="525.39" y2="383.85"/><linearGradient xlink:href="#0" id="1L" gradientUnits="userSpaceOnUse" x1="525.59" y1="421.35" x2="525.61" y2="423.09"/><linearGradient xlink:href="#0" id="1M" gradientUnits="userSpaceOnUse" x1="511.39" y1="404.31" x2="509.64" y2="404.33"/><linearGradient y2="6.778" x2="397.29" y1="165.47" x1="396.63" gradientUnits="userSpaceOnUse" id="1C" xlink:href="#f"/><linearGradient y2="131.85" x2="110.15" y1="77.07" x1="55.55" gradientUnits="userSpaceOnUse" id="10" xlink:href="#2"/><linearGradient y2="168.1" x2="147.78" y1="111.92" x1="89.14" gradientUnits="userSpaceOnUse" id="11" xlink:href="#4"/><linearGradient y2="-8.08" x2="270.58" y1="100.3" x1="308.85" gradientUnits="userSpaceOnUse" id="1A" xlink:href="#f"/><linearGradient y2="131.85" x2="110.15" y1="77.07" x1="55.55" gradientUnits="userSpaceOnUse" id="12" xlink:href="#2"/><linearGradient y2="168.1" x2="147.78" y1="111.92" x1="89.14" gradientUnits="userSpaceOnUse" id="13" xlink:href="#4"/><linearGradient y2="151.58" x2="145.47" y1="168.58" x1="110.77" gradientUnits="userSpaceOnUse" id="18" xlink:href="#a"/><linearGradient y2="267.8" x2="138.61" y1="239.37" x1="128.61" gradientUnits="userSpaceOnUse" id="14" xlink:href="#T"/><linearGradient y2="244.64" x2="166.66" y1="265.11" x1="173.7" gradientUnits="userSpaceOnUse" id="15" xlink:href="#W"/><linearGradient id="h"><stop stop-color="#91c4b7"/><stop offset="1" stop-color="#005f61"/></linearGradient><linearGradient y2="131.85" x2="110.15" y1="77.07" x1="55.55" gradientUnits="userSpaceOnUse" id="F" xlink:href="#2"/><linearGradient id="4"><stop stop-color="#ffe052"/><stop offset="1" stop-color="#ffc331"/></linearGradient><linearGradient xlink:href="#4" id="L" gradientUnits="userSpaceOnUse" x1="89.14" y1="111.92" x2="147.78" y2="168.1"/><linearGradient y2="395.34" x2="728.81" y1="396.56" x1="730.06" gradientUnits="userSpaceOnUse" id="H" xlink:href="#0"/><linearGradient xlink:href="#0" id="I" gradientUnits="userSpaceOnUse" gradientTransform="matrix(0 .94749-.9965 0 1168.62-707.9)" x1="1164.82" y1="440.93" x2="1164.84" y2="442.69"/><linearGradient id="2"><stop stop-color="#387eb8"/><stop offset="1" stop-color="#366994"/></linearGradient><linearGradient xlink:href="#0" id="J" gradientUnits="userSpaceOnUse" x1="759.57" y1="388.85" x2="758.34" y2="390.1"/><linearGradient xlink:href="#2" id="K" gradientUnits="userSpaceOnUse" x1="55.55" y1="77.07" x2="110.15" y2="131.85"/><linearGradient y2="418.07" x2="701.92" y1="418.06" x1="703.66" gradientUnits="userSpaceOnUse" id="E" xlink:href="#0"/><linearGradient y2="442.69" x2="1164.84" y1="440.93" x1="1164.82" gradientTransform="matrix(0 .94749-.9965 0 1179.55-690.02)" gradientUnits="userSpaceOnUse" id="D" xlink:href="#0"/><linearGradient y2="168.1" x2="147.78" y1="111.92" x1="89.14" gradientUnits="userSpaceOnUse" id="8" xlink:href="#4"/><linearGradient y2="168.1" x2="147.78" y1="111.92" x1="89.14" gradientUnits="userSpaceOnUse" id="6" xlink:href="#4"/><linearGradient y2="131.85" x2="110.15" y1="77.07" x1="55.55" gradientUnits="userSpaceOnUse" id="7" xlink:href="#2"/><linearGradient y2="379.57" x2="478.75" y1="377.3" x1="476.49" gradientUnits="userSpaceOnUse" id="9" xlink:href="#2"/><linearGradient y2="131.85" x2="110.15" y1="77.07" x1="55.55" gradientUnits="userSpaceOnUse" id="5" xlink:href="#2"/><linearGradient xlink:href="#4" id="C" gradientUnits="userSpaceOnUse" x1="89.14" y1="111.92" x2="147.78" y2="168.1"/><linearGradient y2="381.07" x2="480.31" y1="378.75" x1="477.88" gradientUnits="userSpaceOnUse" id="A" xlink:href="#4"/><linearGradient xlink:href="#2" id="B" gradientUnits="userSpaceOnUse" x1="55.55" y1="77.07" x2="110.15" y2="131.85"/><linearGradient y2="168.1" x2="147.78" y1="111.92" x1="89.14" gradientUnits="userSpaceOnUse" id="3" xlink:href="#4"/><linearGradient xlink:href="#2" id="R" gradientUnits="userSpaceOnUse" x1="55.55" y1="77.07" x2="110.15" y2="131.85"/><linearGradient y2="131.85" x2="110.15" y1="77.07" x1="55.55" gradientUnits="userSpaceOnUse" id="1" xlink:href="#2"/><linearGradient xlink:href="#4" id="S" gradientUnits="userSpaceOnUse" x1="89.14" y1="111.92" x2="147.78" y2="168.1"/><linearGradient id="0"><stop stop-color="#232323"/><stop offset="1" stop-color="#474747"/></linearGradient><linearGradient y2="267.8" x2="138.61" y1="239.37" x1="128.61" gradientUnits="userSpaceOnUse" id="U" xlink:href="#T"/><linearGradient y2="244.64" x2="166.66" y1="265.11" x1="173.7" gradientUnits="userSpaceOnUse" id="V" xlink:href="#W"/><linearGradient y2="168.1" x2="147.78" y1="111.92" x1="89.14" gradientUnits="userSpaceOnUse" id="G" xlink:href="#4"/><linearGradient id="W"><stop stop-color="#c8c7c5"/><stop offset="1" stop-color="#c8c7c5" stop-opacity="0"/></linearGradient><linearGradient id="X"><stop stop-color="#fff"/><stop offset="1" stop-color="#fff" stop-opacity="0"/></linearGradient><linearGradient id="T"><stop stop-color="#3e3e3e"/><stop offset="1" stop-color="#3e3e3e" stop-opacity="0"/></linearGradient><linearGradient xlink:href="#2" id="M" gradientUnits="userSpaceOnUse" x1="55.55" y1="77.07" x2="110.15" y2="131.85"/><linearGradient xlink:href="#0" id="O" gradientUnits="userSpaceOnUse" gradientTransform="matrix(.94749 0 0 .9965-1092.92 128.31)" x1="1164.82" y1="440.93" x2="1164.84" y2="442.69"/><linearGradient xlink:href="#4" id="N" gradientUnits="userSpaceOnUse" x1="89.14" y1="111.92" x2="147.78" y2="168.1"/><linearGradient xlink:href="#2" id="P" gradientUnits="userSpaceOnUse" x1="55.55" y1="77.07" x2="110.15" y2="131.85"/><linearGradient xlink:href="#4" id="Q" gradientUnits="userSpaceOnUse" x1="89.14" y1="111.92" x2="147.78" y2="168.1"/><mask maskUnits="userSpaceOnUse" id="1G"><path d="m113.12 36.661c17.233 36.62 75.37 131.68 105.37 171.05-4.069 13.505-18.428 20.812-30.3 17.44l-115.34-166.6c-.07-12.347 22.899-26.599 40.27-21.894" fill="#7c858c"/></mask><mask maskUnits="userSpaceOnUse" id="p"><path d="m113.12 36.661c17.233 36.62 75.37 131.68 105.37 171.05-4.069 13.505-18.428 20.812-30.3 17.44l-115.34-166.6c-.07-12.347 22.899-26.599 40.27-21.894" fill="#7c858c"/></mask><mask maskUnits="userSpaceOnUse" id="1D"><path d="m95.11 61.776l149.48-51.47c15.666-5.394 32.738 2.933 38.13 18.599l39.799 115.58c5.394 15.666-2.932 32.738-18.598 38.13l-103.98 35.801-104.84-156.64" fill="#2f6962"/></mask><mask maskUnits="userSpaceOnUse" id="19"><g fill="#2f6962" filter="url(#d)"><path d="m17.749 121.53c-4.495-13.05 2.443-27.28 15.498-31.776l211.22-72.72c13.06-4.495 27.28 2.444 31.777 15.499l38.943 113.1c4.495 13.06-2.444 27.28-15.499 31.776l-211.22 72.72c-13.05 4.495-27.28-2.444-31.777-15.499l-38.941-113.09"/></g></mask><mask maskUnits="userSpaceOnUse" id="n"><path d="m213.97 236.84c-1.976 1.501-5.717 14.758-3.574 17.841 3.186 4.585 22.424-12.699 20.661-17.246-1.813-4.675-15.357-1.412-17.09-.594m-9.629-7.347l2.489 3.782c0 0 .69 1.044.296 3.403-.616 3.69-3.175 13.259-3.326 21.12-.018.95-.919 9.504 7.219 7.07 8.139-2.433 24.968-17.859 28.332-24.693 3.364-6.834-.965-10.639-6.216-10.987-5.251-.349-13.346.22-17.07.848-3.723.628-3.494-.758-6.677-4.351-.239-.27-5.05 3.805-5.05 3.805" fill="#aaa" fill-rule="evenodd"/></mask><mask maskUnits="userSpaceOnUse" id="1F"><path d="m213.97 236.84c-1.976 1.501-5.717 14.758-3.574 17.841 3.186 4.585 22.424-12.699 20.661-17.246-1.813-4.675-15.357-1.412-17.09-.594m-9.629-7.347l2.489 3.782c0 0 .69 1.044.296 3.403-.616 3.69-3.175 13.259-3.326 21.12-.018.95-.919 9.504 7.219 7.07 8.139-2.433 24.968-17.859 28.332-24.693 3.364-6.834-.965-10.639-6.216-10.987-5.251-.349-13.346.22-17.07.848-3.723.628-3.494-.758-6.677-4.351-.239-.27-5.05 3.805-5.05 3.805" fill="#aaa" fill-rule="evenodd"/></mask><mask maskUnits="userSpaceOnUse" id="c"><g fill="#2f6962" filter="url(#d)"><path d="m17.749 121.53c-4.495-13.05 2.443-27.28 15.498-31.776l211.22-72.72c13.06-4.495 27.28 2.444 31.777 15.499l38.943 113.1c4.495 13.06-2.444 27.28-15.499 31.776l-211.22 72.72c-13.05 4.495-27.28-2.444-31.777-15.499l-38.941-113.09"/></g></mask><mask maskUnits="userSpaceOnUse" id="j"><path d="m95.11 61.776l149.48-51.47c15.666-5.394 32.738 2.933 38.13 18.599l39.799 115.58c5.394 15.666-2.932 32.738-18.598 38.13l-103.98 35.801-104.84-156.64" fill="#2f6962"/></mask><radialGradient r="68.38" cy="139.94" cx="143.6" gradientTransform="matrix(1.33664.0783-.10786 1.84128-33.25-128.97)" gradientUnits="userSpaceOnUse" id="1H" xlink:href="#X"/><radialGradient r="161.65" cy="12" cx="135.64" gradientTransform="matrix(1.87047-.64301.25661.74647-116.69 109.71)" gradientUnits="userSpaceOnUse" id="Z" xlink:href="#X"/><radialGradient r="111.43" cy="-6.509" cx="228.55" gradientTransform="matrix(1.54772-.17694.17682 1.54662-129.86 38.786)" gradientUnits="userSpaceOnUse" id="g" xlink:href="#h"/><radialGradient r="68.38" cy="139.94" cx="143.6" gradientTransform="matrix(1.33664.0783-.10786 1.84128-33.25-128.97)" gradientUnits="userSpaceOnUse" id="r" xlink:href="#X"/><radialGradient r="111.43" cy="-6.509" cx="228.55" gradientTransform="matrix(1.54772-.17694.17682 1.54662-129.86 38.786)" gradientUnits="userSpaceOnUse" id="1B" xlink:href="#h"/><radialGradient xlink:href="#u" id="t" gradientUnits="userSpaceOnUse" gradientTransform="matrix(1.0178 0 0 .13108 127.26 37.24)" cx="-59.6" cy="522.12" r="61.17"/><radialGradient id="u" gradientUnits="userSpaceOnUse" cy="522.12" cx="-59.6" gradientTransform="matrix(1.0178 0 0 .13108 127.26 37.24)" r="61.17"><stop stop-opacity=".208"/><stop stop-opacity="0" offset="1"/></radialGradient><radialGradient r="161.65" cy="12" cx="135.64" gradientTransform="matrix(1.87047-.64301.25661.74647-116.69 109.71)" gradientUnits="userSpaceOnUse" id="17" xlink:href="#X"/><radialGradient r="166.51" cy="252.72" cx="197.57" gradientTransform="matrix(1.54333-.10321.09131 1.36539-130.42-95.01)" gradientUnits="userSpaceOnUse" id="Y" xlink:href="#X"/><radialGradient r="166.51" cy="252.72" cx="197.57" gradientTransform="matrix(1.54333-.10321.09131 1.36539-130.42-95.01)" gradientUnits="userSpaceOnUse" id="16" xlink:href="#X"/></defs><g transform="translate(-464.44-356.68)"><g transform="matrix(.99353 0 0 .99353-662.48-49.4)"><g transform="matrix(.0503 0 0 .04948 1147.28 434.09)"><use xlink:href="#1P"/><path d="m733.52-.152l38.08-52.4-132.55-75.16 89.55 121.26 4.923 6.302" fill="#c8b7b7"/><use xlink:href="#1Q"/></g><g transform="matrix(.04163 0 0 .04163 1174.13 424.99)" color="#000"><path d="m99.75 67.47c-28.03 0-26.28 12.156-26.28 12.156l.031 12.594h26.75v3.781h-37.37c0 0-17.938-2.034-17.938 26.25 0 28.28 15.656 27.28 15.656 27.28h9.344v-13.12c0 0-.504-15.656 15.406-15.656 15.91 0 26.531 0 26.531 0 0 0 14.906.241 14.906-14.406 0-14.647 0-24.22 0-24.22 0 0 2.263-14.656-27.03-14.656m-14.75 8.469c2.661 0 4.813 2.151 4.813 4.813 0 2.661-2.151 4.813-4.813 4.813-2.661 0-4.813-2.151-4.813-4.813 0-2.661 2.151-4.813 4.813-4.813" fill="url(#B)"/><use fill="url(#C)" xlink:href="#1R"/></g></g><g font-family="Yanone Kaffeesatz" word-spacing="0" line-height="125%" letter-spacing="0"><text y="395.14" x="506.44" font-size="4.839"><tspan y="395.14" x="506.44">API.py</tspan></text><text y="491.44" x="1140.01" font-size="4.87" transform="matrix(.99353 0 0 .99353-663.4-93.34)"><tspan y="491.44" x="1140.01">BindingXMLRPC.py</tspan></text></g><g transform="translate(-663.59-67.02)"><g transform="matrix(.99353 0 0 .99353 30.25 17.623)"><g transform="matrix(.0503 0 0 .04948 1147.28 434.09)"><use xlink:href="#1P"/><use xlink:href="#1T"/><use xlink:href="#1Q"/></g><g transform="matrix(.04163 0 0 .04163 1174.13 424.99)" color="#000"><path d="m99.75 67.47c-28.03 0-26.28 12.156-26.28 12.156l.031 12.594h26.75v3.781h-37.37c0 0-17.938-2.034-17.938 26.25 0 28.28 15.656 27.28 15.656 27.28h9.344v-13.12c0 0-.504-15.656 15.406-15.656 15.91 0 26.531 0 26.531 0 0 0 14.906.241 14.906-14.406 0-14.647 0-24.22 0-24.22 0 0 2.263-14.656-27.03-14.656m-14.75 8.469c2.661 0 4.813 2.151 4.813 4.813 0 2.661-2.151 4.813-4.813 4.813-2.661 0-4.813-2.151-4.813-4.813 0-2.661 2.151-4.813 4.813-4.813" fill="url(#7)"/><use fill="url(#8)" xlink:href="#1R"/></g></g><text x="1192.39" y="462.17" font-family="Yanone Kaffeesatz" word-spacing="0" line-height="125%" letter-spacing="0" font-size="4.839"><tspan x="1192.39" y="462.17">supervdsm.py</tspan></text></g><g transform="matrix(.99353 0 0 .99353-635.85-61.973)"><g transform="translate(2.532 51.5)"><g transform="matrix(.0503 0 0 .04948 1147.28 434.09)"><use xlink:href="#1P"/><use xlink:href="#1T"/><use xlink:href="#1Q"/></g><g transform="matrix(.04163 0 0 .04163 1174.13 424.99)" color="#000"><use fill="url(#5)" xlink:href="#1U"/><use fill="url(#6)" xlink:href="#1R"/></g></g><text x="1179.35" y="498.94" font-family="Yanone Kaffeesatz" word-spacing="0" line-height="125%" letter-spacing="0" font-size="4.87"><tspan x="1179.35" y="498.94">vm.py</tspan></text></g><g stroke="#000" stroke-width=".397"><path d="m488.33 381.6h14.52v-.99l2.153 1.414-2.153 1.501v-.955h-14.52z" fill="url(#1O)"/><path d="m517.11 382.1h14.52v-.99l2.153 1.414-2.153 1.501v-.955h-14.52z" fill="url(#1N)"/><path d="m511.39 396.04v14.52h.99l-1.414 2.153-1.501-2.153h.955v-14.52z" fill="url(#1M)"/></g><g transform="matrix(.99353 0 0 .99353-632.72-20.7)"><g transform="translate(-29.63 9.961)"><g transform="matrix(.0503 0 0 .04948 1147.28 434.09)"><use xlink:href="#1P"/><use xlink:href="#1T"/><use xlink:href="#1Q"/></g><g transform="matrix(.04163 0 0 .04163 1174.13 424.99)" color="#000"><use fill="url(#1)" xlink:href="#1U"/><use fill="url(#3)" xlink:href="#1R"/></g></g><text x="1143.87" y="457.4" font-family="Yanone Kaffeesatz" word-spacing="0" line-height="125%" letter-spacing="0" font-size="4.87"><tspan x="1143.87" y="457.4">clientIF.py</tspan></text></g><g stroke="#000"><path d="m517.32 421.34h14.52v-.99l2.152 1.414-2.152 1.501v-.955h-14.52z" fill="url(#1L)" stroke-width=".397"/><path d="m546.5 382.09h12.647v-.993l2.053 1.418-2.053 1.505v-.958h-12.647z" fill="url(#1K)" stroke-width=".389"/><g stroke-width=".397"><path d="m546.39 421.44h12.164v-.99l2.153 1.414-2.153 1.501v-.955h-12.164z" fill="url(#1J)"/><path d="m539.61 412.21v-14.52h-.99l1.414-2.153 1.501 2.153h-.955v14.52z" fill="url(#1I)"/></g></g><g><path d="m475.75 375.1v14.299h10.631v-10.82l-6.63-3.48h-4z" fill="#fff" stroke="#000" stroke-width=".664"/><path d="m484.16 382.02l1.903-2.576-6.623-3.695 4.475 5.961.246.31" fill="#c8b7b7"/><path d="m484.81 380.12l1.588-1.897-6.459-2.848 4.871 4.745z" fill="#fff" stroke="#000" stroke-linejoin="round" stroke-linecap="round" stroke-width=".664"/><g color="#000"><path d="m478.32 376.91c-1.159 0-1.087.503-1.087.503v.521h1.106v.156h-1.546c0 0-.742-.084-.742 1.086 0 1.17.648 1.128.648 1.128h.386v-.543c0 0-.021-.648.637-.648.658 0 1.097 0 1.097 0 0 0 .616.01.616-.596 0-.606 0-1 0-1 0 0 .094-.606-1.118-.606m-.61.35c.11 0 .199.089.199.199 0 .11-.089.199-.199.199-.11 0-.199-.089-.199-.199 0-.11.089-.199.199-.199" fill="url(#9)"/><path d="m478.35 381.45c1.159 0 1.087-.503 1.087-.503v-.521h-1.106v-.156h1.546c0 0 .742.084.742-1.086 0-1.17-.648-1.128-.648-1.128h-.386v.543c0 0 .021.648-.637.648-.658 0-1.097 0-1.097 0 0 0-.616-.01-.616.596 0 .606 0 1 0 1 0 0-.094.606 1.118.606m.61-.35c-.11 0-.199-.089-.199-.199 0-.11.089-.199.199-.199.11 0 .199.089.199.199 0 .11-.089.199-.199.199" fill="url(#A)"/></g></g><g transform="translate(-125.71)"><g transform="translate(-625.65-62.726)"><g transform="matrix(.99353 0 0 .99353 182.08 29.482)"><g transform="translate(-29.63 9.961)"><g transform="matrix(.0503 0 0 .04948 1147.28 434.09)"><use xlink:href="#1P"/><use xlink:href="#1T"/><use xlink:href="#1Q"/></g><g transform="matrix(.04163 0 0 .04163 1174.13 424.99)" color="#000"><use fill="url(#12)" xlink:href="#1U"/><use fill="url(#13)" xlink:href="#1R"/></g></g><text x="1143.87" y="457.4" font-family="Yanone Kaffeesatz" word-spacing="0" line-height="125%" letter-spacing="0" font-size="4.87"><tspan x="1143.87" y="457.4">netinfo.py</tspan></text></g><g font-family="Yanone Kaffeesatz" word-spacing="0" line-height="125%" letter-spacing="0" font-size="2.103"><text y="470.69" x="1321.04"><tspan y="470.69" x="1321.04">python-ethtool</tspan></text><text y="475.14" x="1321.08"><tspan y="475.14" x="1321.08">sysfs</tspan></text></g><g transform="matrix(.00733 0 0 .00733 1321.08 471.27)"><path d="m11 141.62c-6.293-18.277 3.421-38.19 21.698-44.487l216.72-74.62c18.277-6.293 38.19 3.422 44.488 21.699l43.577 126.55c6.293 18.277-3.421 38.19-21.698 44.487l-216.72 74.62c-18.277 6.292-38.2-3.422-44.488-21.699l-43.577-126.55" fill="#7c858c"/><path d="m7.097 130.27c-6.294-18.277 3.421-38.19 21.698-44.487l216.72-74.62c18.277-6.293 38.19 3.422 44.488 21.699l43.577 126.55c6.293 18.277-3.421 38.19-21.698 44.487l-216.72 74.62c-18.277 6.293-38.2-3.422-44.488-21.699l-43.577-126.55" fill="url(#14)"/><path d="m156.6 246.82l13.562-4.67 6.521 18.94-13.562 4.67-6.521-18.94m25.04-8.622l13.562-4.67 6.521 18.939-13.562 4.67-6.521-18.939m25.04-8.622l13.563-4.67 6.521 18.94-13.562 4.67-6.522-18.94m25.04-8.623l13.562-4.67 6.521 18.94-13.562 4.67-6.521-18.94m25.04-8.622l13.562-4.67 6.521 18.939-13.562 4.67-6.521-18.939m-125.21 43.11l13.562-4.67 6.521 18.94-13.562 4.67-6.521-18.94" opacity=".7" fill="url(#15)" fill-rule="evenodd"/><path d="m2.568 124.47c-6.293-18.277 3.421-38.19 21.698-44.487l221.25-76.18c18.277-6.292 38.2 3.422 44.488 21.699l41.752 121.25c6.293 18.277-3.421 38.19-21.698 44.487l-221.25 76.18c-18.277 6.293-38.2-3.422-44.488-21.699l-41.752-121.25" fill="url(#16)"/><use xlink:href="#1V"/><path d="m5.763 123.17c-6.113-17.755 3.323-37.1 21.08-43.22l216.5-74.54c17.755-6.113 37.1 3.324 43.22 21.08l38.787 112.64c6.113 17.755-3.323 37.1-21.08 43.22l-216.5 74.54c-17.755 6.113-37.1-3.324-43.22-21.08l-38.787-112.64" opacity=".9" fill="url(#17)"/><use xlink:href="#1W"/><use fill="url(#18)" xlink:href="#1S"/><g mask="url(#19)" transform="translate(-12-4)" fill="#3c857c"><use xlink:href="#1S"/></g><g><g><use xlink:href="#1p"/><use xlink:href="#1q"/><use xlink:href="#1r"/><ellipse ry="2.142" rx="4.428" cy="163.33" cx="50.867" transform="matrix(-.9455.3255-.3255-.9455 152.13 301.2)" fill="#ffe600"/></g><g><use xlink:href="#1s"/><use xlink:href="#1t"/><use xlink:href="#1u"/><ellipse ry="2.142" rx="4.428" cy="151.52" cx="85.15" transform="matrix(-.9455.3255-.3255-.9455 214.99 267.07)" fill="#ffe600"/></g><g><use xlink:href="#1v"/><use xlink:href="#1w"/><use xlink:href="#1x"/><ellipse ry="2.142" rx="4.428" cy="139.72" cx="119.43" transform="matrix(-.9455.3255-.3255-.9455 277.84 232.95)" fill="#ffe600"/></g></g><g><g><use xlink:href="#1y"/><use xlink:href="#1z"/><use xlink:href="#20"/><ellipse ry="2.142" rx="4.428" cy="177.99" cx="75.36" transform="matrix(-.9455.3255-.3255-.9455 204.56 321.74)" fill="#ffe600"/></g><g><use xlink:href="#21"/><use xlink:href="#22"/><use xlink:href="#23"/><ellipse ry="2.142" rx="4.428" cy="166.18" cx="109.64" transform="matrix(-.9455.3255-.3255-.9455 267.41 287.62)" fill="#ffe600"/></g><g><use xlink:href="#24"/><use xlink:href="#25"/><use xlink:href="#26"/><ellipse ry="2.142" rx="4.429" cy="154.38" cx="143.93" transform="matrix(-.9455.3256-.3256-.9455 330.27 253.49)" fill="#ffe600"/></g></g><path d="m95.11 61.776l149.48-51.47c15.666-5.394 32.738 2.933 38.13 18.599l39.799 115.58c5.394 15.666-2.932 32.738-18.598 38.13l-103.98 35.801-104.84-156.64" fill="url(#1A)"/><path d="m97.29 65.03l149.08-51.33c13.362-4.601 27.924 2.502 32.525 15.864l39.859 115.76c4.602 13.362-2.5 27.923-15.863 32.524l-105.73 36.404-99.87-149.22" fill="url(#1B)"/><use xlink:href="#1X"/><path d="m389.32 94.44h-25.18l-6.361 25.574c-1.456 5.832-3.444 14.178-4.372 20.804-.795-6.626-2.782-14.973-4.24-20.804l-6.229-25.574h-25.309l24.12 69.57h23.453l24.12-69.57m31.35-16.828c0-6.759-5.698-11.529-13.913-11.529-7.819 0-13.648 4.77-13.648 11.529 0 7.287 5.83 11.792 13.648 11.792 8.215 0 13.913-4.505 13.913-11.792m-1.988 86.4v-69.57h-23.851v69.57h23.851v.001m58.661-68.11c-2.782-1.721-6.228-2.914-11.262-2.914-6.096 0-10.734 2.517-14.843 6.492v-5.03h-23.851v69.57h23.851v-37.897c0-8.482 3.579-11.264 9.41-11.264 4.636 0 8.08 2.517 11.131 5.832l5.564-24.781m52.949 45.585c-3.71 2.517-6.361 3.71-9.542 3.71-3.975 0-5.963-1.591-5.963-6.891v-25.18h15.11v-18.683h-15.11v-27.03l-23.19 9.408v17.625h-10.599v18.683h10.599v30.21c0 15.769 5.832 22.13 18.42 22.13 6.758 0 12.589-1.458 17.227-3.71l3.048-20.274" fill="url(#1C)" fill-rule="evenodd"/><path d="m127.05 43.547c17.233 36.62 72.865 128.91 102.86 168.29-2.858 14.11-18.673 23.308-29.809 18.791l-115.34-166.6c-.07-12.347 22.06-27.27 42.29-20.477" mask="url(#1D)" transform="translate(-2)" fill="#25514b" filter="url(#k)"/><use xlink:href="#1Y"/><path d="m216.5 238.52c-2.9 1.834-8.917 18.762-6.01 22.858 4.324 6.092 32.696-15.214 30.405-21.18-2.356-6.136-21.882-2.64-24.396-1.675m-13.394-10l3.368 5.02c0 0 .934 1.385.252 4.412-1.066 4.734-5.207 16.96-5.819 27.11-.074 1.226-1.793 12.229 9.964 9.517 11.758-2.711 36.593-21.745 41.746-30.395 5.153-8.65-.843-13.795-8.332-14.524-7.489-.73-19.09-.425-24.443.189-5.354.614-4.956-1.165-9.326-5.975-.328-.361-7.41 4.647-7.41 4.647" fill="url(#1E)" fill-rule="evenodd"/><path d="m214.78 227.85c-2.797 3.296-6.24 5.845-9.926 7.474.432-2.596-.374-3.792-.374-3.792l-3.368-5.02c0 0 7.083-5.01 7.41-4.647 3.294 3.624 3.879 5.527 6.258 5.983" transform="matrix(1.42953.05311-.05041 1.29187-77.43-78.8)" mask="url(#1F)" fill="#54575a" filter="url(#o)"/><use xlink:href="#1Z"/><use xlink:href="#1a"/><path d="m192.12 225.88l-118.58-171.19c3.174-9.06 16.868-17.988 30.23-18.875 22.16 44.22 78.16 134.39 111.83 178.22-5.194 8.137-14.62 12.648-23.471 11.846" mask="url(#1G)" transform="translate(0 8)" fill="#c8c7c5" filter="url(#q)"/><path d="m203.93 231.91l-123.54-178.45c3.583-3.084 8.164-5.73 13.12-7.479 6.902 12.484 25.22 44.608 54.34 88.54 22.713 34.27 46.09 68.02 64.14 91.97-2.35 2.316-5.102 4.145-8.05 5.413m-3.597 1.245c-1.392.368-2.805.615-4.223.733l-120.89-174.61c.699-1.099 1.537-2.181 2.494-3.23l122.62 177.11" fill="url(#1H)" fill-rule="evenodd"/><g fill="#005f6a"><use xlink:href="#1b"/><use xlink:href="#1c"/><use xlink:href="#1d"/><path fill-rule="evenodd" d="m413.02 179.77v-3.86h-15.18v3.86h5.63v15.74h3.92v-15.74h5.63"/><use xlink:href="#1e"/><use xlink:href="#1f"/><path fill-rule="evenodd" d="m459.97 195.51h13.75v-3.86h-9.83v-15.74h-3.92z"/><use xlink:href="#1g"/><use xlink:href="#1h"/><use xlink:href="#1i"/><path fill-rule="evenodd" d="m541.45 179.77v-3.86h-15.18v3.86h5.63v15.74h3.92v-15.74h5.63"/><use xlink:href="#1j"/><use xlink:href="#1k"/><use xlink:href="#1l"/><use xlink:href="#1m"/><use xlink:href="#1n"/><use xlink:href="#1o"/></g></g><text y="477.35" x="1321.07" fill="#000" font-family="Yanone Kaffeesatz" word-spacing="0" line-height="125%" letter-spacing="0" font-size="2.103"><tspan y="477.35" x="1321.07">procfs</tspan></text></g><g transform="matrix(.99353 0 0 .99353-505.03-60.829)"><g transform="translate(32.722 8.924)"><g transform="matrix(.0503 0 0 .04948 1147.28 434.09)"><use xlink:href="#1P"/><use xlink:href="#1T"/><use xlink:href="#1Q"/></g><g transform="matrix(.04163 0 0 .04163 1174.13 424.99)" color="#000"><use fill="url(#10)" xlink:href="#1U"/><use fill="url(#11)" xlink:href="#1R"/></g></g><text y="456.37" x="1200.6" font-family="Yanone Kaffeesatz" word-spacing="0" line-height="125%" letter-spacing="0" font-size="4.87"><tspan y="456.37" x="1200.6">configNetwork.py</tspan></text></g><text x="696.16" y="379.74" font-family="Yanone Kaffeesatz" word-spacing="0" line-height="125%" letter-spacing="0" font-size="2.54"><tspan x="696.16" y="379.74">initscripts</tspan></text><path d="m700.1 393.43v4.52h.99l-1.414 2.153-1.501-2.153h.955v-4.52z" fill="url(#z)" stroke="#000" stroke-width=".397"/><g transform="translate(121.05 4.875)"><g transform="matrix(.65047 0 0 .65047 214.41 132.1)"><g transform="translate(711.2 305.22)"><g fill-rule="evenodd"><path d="m-86.62 54.49l-6.75 5.434-14.277 5.625 7.33-6.854 13.697-4.205z" fill="#b1883f" stroke="#746137" stroke-linejoin="round"/><path transform="matrix(.41762 0 0 .83114-112.31-3.118)" d="m127.76 105.68a61.166 11.926 0 1 1 -122.33 0 61.166 11.926 0 1 1 122.33 0" fill="url(#t)" color="#000"/></g><g stroke="#746137" stroke-linejoin="round" stroke-linecap="square"><g fill="#c7a465"><path d="m-80.886 63.53l-19.424-4.64-.13 24.826 19.554 4.638v-24.824z"/><path d="m-80.5 63.52l14.02-4.213.089 24.396-14.07 4.551-.037-24.734z"/></g><path d="m-85.961 54.31l19.687 4.712-14.493 4.236-19.673-4.555 14.479-4.393z" fill="#82642f"/></g><g fill-rule="evenodd"><g fill="url(#v)"><path d="m-81.42 63.863v12.887c-3.277 3.314-18.561-21.473-18.368 1.66l.007-18.935 18.361 4.388" opacity=".812"/><path d="m-79.987 63.852v12.886c4.604-18.914 13.277-12.178 12.923-16.774l-12.923 3.888" opacity=".812"/></g><path d="m-74.32 72.896s-6.258-9.156-6.258-9.156l14.698-4.419c0 0 5.05 8.776 5.05 8.776 0 0-13.493 4.799-13.493 4.799z" fill="#b1883f" stroke="#746137" stroke-linejoin="round"/><path d="m-67.7 59.31s-18.385-4.243-18.385-4.243l-11.939 3.661c14.25 4.5 17.824-1.543 30.32.582" fill="url(#w)"/></g></g><g transform="matrix(.80769 0 0 .80769 118.85 73.02)" color="#000"><path d="m620.54 366.56c-5.02-1.15-4.71 1.671-4.71 1.671 0 0-.003 2.841-.003 2.841 0 0 4.773 1.112 4.773 1.112 0 0-.004.853-.004.853 0 0-6.658-1.554-6.658-1.554 0 0-3.175-1.198-3.175 5.13 0 6.287 2.754 6.729 2.754 6.729 0 0 1.648.397 1.648.397 0 0 .007-2.92.007-2.92 0 0-.081-3.515 2.742-2.846 2.834.672 4.731 1.122 4.731 1.122 0 0 2.67.687 2.695-2.611.025-3.309.041-5.478.041-5.478 0 0 .434-3.236-4.842-4.446m-2.649 1.312c.476.11.858.685.856 1.287-.002.602-.389.998-.864.888-.475-.11-.857-.685-.855-1.286.002-.601.388-.999.863-.89" fill="url(#x)"/><path d="m620.56 391.22c4.984 1.222 4.692-1.555 4.692-1.555 0 0 .017-2.807.017-2.807 0 0-4.769-1.152-4.769-1.152 0 0 .004-.842.004-.842 0 0 6.674 1.609 6.674 1.609 0 0 3.219 1.232 3.284-5.119.065-6.393-2.769-6.827-2.769-6.827 0 0-1.685-.393-1.685-.393 0 0-.023 2.964-.023 2.964 0 0 .063 3.546-2.789 2.868-2.842-.675-4.733-1.124-4.733-1.124 0 0-2.646-.683-2.655 2.586-.009 3.257-.014 5.38-.014 5.38 0 0-.407 3.143 4.768 4.412m2.63-1.237c-.474-.116-.853-.687-.85-1.278.004-.592.39-.977.864-.862.474.115.855.687.851 1.279-.004.592-.391.976-.865.861" fill="url(#y)"/></g></g><text x="612.03" y="393.14" font-family="Yanone Kaffeesatz" word-spacing="0" line-height="125%" letter-spacing="0" font-size="4.839"><tspan x="612.03" y="393.14">Configurators</tspan></text></g><path d="m706.56 383.25h23.635v-.993l2.053 1.418-2.053 1.505v-.958h-23.635z" fill="url(#s)" stroke="#000" stroke-width=".389"/><g transform="matrix(.00863 0 0 .00863 696.24 380.91)"><path d="m11 141.62c-6.293-18.277 3.421-38.19 21.698-44.487l216.72-74.62c18.277-6.293 38.19 3.422 44.488 21.699l43.577 126.55c6.293 18.277-3.421 38.19-21.698 44.487l-216.72 74.62c-18.277 6.292-38.2-3.422-44.488-21.699l-43.577-126.55" fill="#7c858c"/><path d="m7.097 130.27c-6.294-18.277 3.421-38.19 21.698-44.487l216.72-74.62c18.277-6.293 38.19 3.422 44.488 21.699l43.577 126.55c6.293 18.277-3.421 38.19-21.698 44.487l-216.72 74.62c-18.277 6.293-38.2-3.422-44.488-21.699l-43.577-126.55" fill="url(#U)"/><path d="m156.6 246.82l13.562-4.67 6.521 18.94-13.562 4.67-6.521-18.94m25.04-8.622l13.562-4.67 6.521 18.939-13.562 4.67-6.521-18.939m25.04-8.622l13.563-4.67 6.521 18.94-13.562 4.67-6.522-18.94m25.04-8.623l13.562-4.67 6.521 18.94-13.562 4.67-6.521-18.94m25.04-8.622l13.562-4.67 6.521 18.939-13.562 4.67-6.521-18.939m-125.21 43.11l13.562-4.67 6.521 18.94-13.562 4.67-6.521-18.94" opacity=".7" fill="url(#V)" fill-rule="evenodd"/><path d="m2.568 124.47c-6.293-18.277 3.421-38.19 21.698-44.487l221.25-76.18c18.277-6.292 38.2 3.422 44.488 21.699l41.752 121.25c6.293 18.277-3.421 38.19-21.698 44.487l-221.25 76.18c-18.277 6.293-38.2-3.422-44.488-21.699l-41.752-121.25" fill="url(#Y)"/><path d="m1.917 122.58c-6.293-18.277 3.421-38.19 21.698-44.487l221.25-76.18c18.277-6.293 38.19 3.422 44.488 21.699l41.752 121.25c6.293 18.277-3.421 38.19-21.698 44.487l-221.25 76.18c-18.277 6.293-38.19-3.422-44.488-21.699l-41.752-121.25" fill="#7c858c" id="1V"/><path d="m5.763 123.17c-6.113-17.755 3.323-37.1 21.08-43.22l216.5-74.54c17.755-6.113 37.1 3.324 43.22 21.08l38.787 112.64c6.113 17.755-3.323 37.1-21.08 43.22l-216.5 74.54c-17.755 6.113-37.1-3.324-43.22-21.08l-38.787-112.64" opacity=".9" fill="url(#Z)"/><path d="m7.427 123.74c-5.934-17.232 3.225-36.01 20.458-41.945l215.91-74.34c17.232-5.933 36.01 3.226 41.946 20.459l39.771 115.5c5.934 17.233-3.226 36.01-20.458 41.945l-215.91 74.34c-17.233 5.933-36.01-3.227-41.946-20.459l-39.77-115.5" fill="#3e3e3e" id="1W"/><use fill="url(#b)" xlink:href="#1S"/><g transform="translate(-12-4)" mask="url(#c)" fill="#3c857c"><use xlink:href="#1S"/></g><g><g><path d="m30 102.11c-1.771-7.695 2.602-9.355 2.672-9.379 1.371-.472 6.183-1.554 7.316 1.737 1.025 2.977-4.531 7.82-9.583 9.56-5.02 1.727-12.469 1.364-13.494-1.613-1.133-3.291 3.325-5.401 4.696-5.873.069-.024 4.342-2.237 7.88 5.746.13.293.571.074.513-.178" fill="#ffe600" fill-rule="evenodd" id="1p"/><path d="m32.867 154.31c7.274 17.05 17.313 28.317 23.916 26.04 6.602-2.273 7.575-17.334 2.812-35.25-.367-3.303-.911-9.542-.275-13.13.464-2.615-.112-3.379-2.212-1.079-.634.694-1.14 1.345-1.514 2.02-7.335-18.703-18.16-31.442-25.14-29.04-6.982 2.404-7.669 19.11-1.934 38.36-.712-.304-1.51-.505-2.438-.662-3.071-.52-3.054.437-1.079 2.212 2.709 2.435 6.121 7.686 7.865 10.515" id="1q"/><path d="m30.621 139.49c5.498 15.966 14.795 27.24 20.766 25.19 5.971-2.056 6.355-16.666.857-32.632-5.498-15.966-14.795-27.24-20.766-25.19-5.971 2.056-6.354 16.665-.857 32.632m23.2 28.556c.536 1.558 1.515 2.634 2.186 2.403.671-.231.78-1.681.243-3.239-.536-1.558-1.515-2.633-2.186-2.403-.67.231-.779 1.682-.243 3.239m-4.7 1.619c.536 1.558 1.515 2.634 2.186 2.403.67-.231.779-1.681.243-3.239-.536-1.558-1.515-2.634-2.186-2.402-.671.23-.78 1.68-.243 3.238" fill="#fff" fill-rule="evenodd" id="1r"/><ellipse transform="matrix(-.9455.3255-.3255-.9455 152.13 301.2)" cx="50.867" cy="163.33" rx="4.428" ry="2.142" fill="#ffe600"/></g><g><path d="m64.28 90.31c-1.771-7.695 2.603-9.355 2.672-9.379 1.371-.472 6.183-1.554 7.316 1.737 1.025 2.978-4.531 7.82-9.583 9.56-5.02 1.727-12.469 1.364-13.494-1.613-1.133-3.291 3.325-5.401 4.696-5.873.07-.024 4.342-2.237 7.88 5.746.13.292.572.074.513-.178" fill="#ffe600" fill-rule="evenodd" id="1s"/><path d="m67.15 142.5c7.274 17.05 17.313 28.317 23.916 26.04 6.602-2.273 7.575-17.333 2.812-35.25-.367-3.303-.911-9.542-.275-13.13.464-2.615-.112-3.379-2.212-1.079-.634.694-1.139 1.345-1.514 2.02-7.334-18.704-18.16-31.442-25.14-29.04-6.982 2.404-7.669 19.11-1.934 38.36-.712-.304-1.51-.505-2.438-.662-3.071-.52-3.054.437-1.079 2.211 2.709 2.436 6.121 7.687 7.865 10.516" id="1t"/><path d="m64.904 127.69c5.498 15.967 14.795 27.24 20.766 25.19 5.971-2.056 6.355-16.666.857-32.632-5.498-15.967-14.795-27.24-20.766-25.19-5.971 2.056-6.355 16.666-.857 32.632m23.2 28.557c.536 1.558 1.515 2.633 2.186 2.402.671-.231.779-1.681.243-3.239-.537-1.558-1.515-2.633-2.186-2.402-.671.231-.779 1.681-.243 3.239m-4.7 1.619c.536 1.558 1.515 2.633 2.185 2.402.67-.231.78-1.681.243-3.239-.536-1.558-1.515-2.633-2.186-2.402-.671.231-.779 1.681-.242 3.239" fill="#fff" fill-rule="evenodd" id="1u"/><ellipse transform="matrix(-.9455.3255-.3255-.9455 214.99 267.07)" cx="85.15" cy="151.52" rx="4.428" ry="2.142" fill="#ffe600"/></g><g><path d="m98.56 78.5c-1.771-7.694 2.602-9.355 2.672-9.379 1.371-.472 6.183-1.554 7.316 1.736 1.025 2.978-4.531 7.82-9.583 9.56-5.02 1.727-12.469 1.364-13.494-1.613-1.133-3.291 3.325-5.401 4.696-5.873.069-.024 4.342-2.237 7.88 5.746.13.293.572.075.513-.177" fill="#ffe600" fill-rule="evenodd" id="1v"/><path d="m101.43 130.7c7.274 17.05 17.313 28.317 23.915 26.04 6.602-2.274 7.576-17.333 2.812-35.25-.367-3.303-.911-9.542-.275-13.13.464-2.615-.112-3.379-2.212-1.079-.634.695-1.139 1.345-1.514 2.02-7.334-18.703-18.16-31.441-25.14-29.04-6.982 2.404-7.669 19.11-1.934 38.36-.712-.303-1.51-.504-2.438-.662-3.071-.52-3.054.437-1.079 2.212 2.709 2.435 6.121 7.686 7.865 10.515" id="1w"/><path d="m99.19 115.89c5.498 15.967 14.795 27.24 20.766 25.19 5.971-2.056 6.355-16.666.857-32.632-5.498-15.967-14.795-27.24-20.766-25.19-5.971 2.056-6.355 16.665-.857 32.632m23.2 28.556c.536 1.558 1.515 2.633 2.186 2.403.67-.231.779-1.681.243-3.239-.536-1.558-1.515-2.634-2.185-2.403-.671.232-.78 1.682-.244 3.239m-4.701 1.619c.536 1.558 1.515 2.633 2.186 2.402.671-.23.78-1.681.243-3.239-.536-1.558-1.515-2.633-2.185-2.402-.671.231-.78 1.681-.244 3.239" fill="#fff" fill-rule="evenodd" id="1x"/><ellipse transform="matrix(-.9455.3255-.3255-.9455 277.84 232.95)" cx="119.43" cy="139.72" rx="4.428" ry="2.142" fill="#ffe600"/></g></g><g><g><path d="m96.58 238.98c3.342 7.154 7.811 5.77 7.88 5.746 1.371-.472 5.829-2.583 4.696-5.873-1.025-2.977-8.385-3.373-13.437-1.633-5.02 1.727-10.665 6.602-9.64 9.579 1.133 3.291 5.946 2.208 7.316 1.736.07-.023 4.799-.91 2.672-9.379-.078-.31.403-.41.513-.176" fill="#ffe600" fill-rule="evenodd" id="1y"/><path d="m66.7 196.09c-4.764-17.913-3.791-32.973 2.812-35.25 6.602-2.273 16.641 8.995 23.915 26.04 1.744 2.829 5.156 8.08 7.865 10.514 1.976 1.775 1.992 2.732-1.079 2.212-.927-.157-1.726-.358-2.438-.662 5.735 19.254 5.05 35.956-1.934 38.36-6.982 2.404-17.806-10.334-25.14-29.04-.374.677-.88 1.328-1.514 2.02-2.1 2.3-2.675 1.536-2.212-1.079.637-3.583.093-9.822-.274-13.12" id="1z"/><path d="m74.05 209.14c-5.498-15.966-5.114-30.576.857-32.632 5.971-2.056 15.269 9.22 20.766 25.19 5.498 15.967 5.114 30.577-.857 32.633-5.971 2.054-15.268-9.222-20.766-25.19m.699-36.785c-.536-1.558-.428-3.01.243-3.239.67-.231 1.649.845 2.185 2.403.537 1.558.427 3.01-.243 3.239-.67.231-1.649-.845-2.185-2.403m-4.701 1.619c-.536-1.558-.427-3.01.243-3.239.67-.231 1.649.845 2.186 2.403.536 1.558.427 3.01-.243 3.239-.67.231-1.65-.845-2.186-2.403" fill="#fff" fill-rule="evenodd" id="20"/><ellipse transform="matrix(-.9455.3255-.3255-.9455 204.56 321.74)" cx="75.36" cy="177.99" rx="4.428" ry="2.142" fill="#ffe600"/></g><g><path d="m130.86 227.18c3.341 7.154 7.81 5.77 7.88 5.746 1.371-.472 5.829-2.582 4.696-5.873-1.025-2.977-8.385-3.373-13.437-1.633-5.02 1.727-10.665 6.602-9.64 9.579 1.133 3.291 5.946 2.208 7.316 1.737.069-.024 4.799-.91 2.672-9.379-.078-.312.404-.412.513-.177" fill="#ffe600" fill-rule="evenodd" id="21"/><path d="m100.98 184.28c-4.764-17.913-3.791-32.973 2.812-35.25 6.602-2.273 16.641 8.995 23.915 26.04 1.745 2.829 5.157 8.08 7.865 10.513 1.976 1.775 1.993 2.732-1.079 2.212-.927-.157-1.726-.358-2.438-.662 5.736 19.254 5.05 35.957-1.934 38.36-6.981 2.404-17.806-10.334-25.14-29.04-.374.678-.879 1.328-1.513 2.02-2.1 2.301-2.676 1.537-2.212-1.079.636-3.584.092-9.822-.275-13.12" id="22"/><path d="m108.33 197.34c-5.498-15.966-5.114-30.576.857-32.632 5.971-2.056 15.268 9.22 20.766 25.19 5.498 15.966 5.114 30.576-.857 32.632-5.971 2.056-15.268-9.22-20.766-25.19m.699-36.784c-.536-1.558-.428-3.01.243-3.239.671-.231 1.649.845 2.186 2.402.536 1.558.427 3.01-.243 3.239-.671.231-1.65-.845-2.186-2.402m-4.701 1.618c-.536-1.558-.427-3.01.243-3.239.67-.231 1.649.845 2.185 2.402.536 1.557.428 3.01-.243 3.239-.671.231-1.649-.844-2.185-2.402" fill="#fff" fill-rule="evenodd" id="23"/><ellipse transform="matrix(-.9455.3255-.3255-.9455 267.41 287.62)" cx="109.64" cy="166.18" rx="4.428" ry="2.142" fill="#ffe600"/></g><g><path d="m165.14 215.37c3.342 7.154 7.811 5.77 7.88 5.746 1.371-.472 5.829-2.582 4.696-5.873-1.025-2.977-8.385-3.372-13.438-1.633-5.01 1.727-10.665 6.602-9.64 9.579 1.133 3.291 5.945 2.208 7.316 1.737.069-.024 4.799-.91 2.672-9.379-.078-.311.404-.411.514-.177" fill="#ffe600" fill-rule="evenodd" id="24"/><path d="m135.26 172.48c-4.764-17.913-3.791-32.973 2.812-35.25 6.603-2.273 16.641 8.995 23.916 26.04 1.744 2.829 5.156 8.08 7.865 10.514 1.975 1.775 1.992 2.731-1.079 2.212-.927-.157-1.726-.358-2.438-.662 5.735 19.254 5.05 35.957-1.934 38.36-6.982 2.404-17.806-10.334-25.14-29.04-.374.678-.88 1.328-1.514 2.02-2.1 2.301-2.676 1.537-2.212-1.079.636-3.584.092-9.823-.275-13.13" id="25"/><path d="m142.62 185.53c-5.498-15.967-5.114-30.577.857-32.633 5.971-2.056 15.269 9.221 20.766 25.19 5.497 15.966 5.114 30.576-.857 32.632-5.971 2.056-15.268-9.22-20.766-25.19m.699-36.785c-.537-1.558-.428-3.01.243-3.239.671-.231 1.649.845 2.186 2.402.537 1.558.428 3.01-.243 3.239-.671.231-1.65-.844-2.186-2.402m-4.701 1.619c-.536-1.558-.427-3.01.243-3.239.671-.231 1.649.845 2.186 2.402.537 1.558.428 3.01-.243 3.239-.671.231-1.65-.845-2.186-2.402" fill="#fff" fill-rule="evenodd" id="26"/><ellipse transform="matrix(-.9455.3256-.3256-.9455 330.27 253.49)" cx="143.93" cy="154.38" rx="4.429" ry="2.142" fill="#ffe600"/></g></g><path d="m95.11 61.776l149.48-51.47c15.666-5.394 32.738 2.933 38.13 18.599l39.799 115.58c5.394 15.666-2.932 32.738-18.598 38.13l-103.98 35.801-104.84-156.64" fill="url(#e)"/><path d="m97.29 65.03l149.08-51.33c13.362-4.601 27.924 2.502 32.525 15.864l39.859 115.76c4.602 13.362-2.5 27.923-15.863 32.524l-105.73 36.404-99.87-149.22" fill="url(#g)"/><path d="m289.83 129.82c0 12.985-2.517 16.03-7.42 16.03-3.71 0-6.094-1.327-8.614-3.314v-26.635c2.52-1.988 5.04-3.312 8.482-3.312 5.04 0 7.552 3.312 7.552 17.227m23.589-.797c0-25.838-10.07-36.04-23.19-36.04-7.289 0-11.661 2.648-16.433 6.359v-31.935l-23.851 9.542v87.06h23.851v-4.638c3.844 2.916 8.614 6.096 15.504 6.096 15.24 0 24.12-11.53 24.12-36.442m-73.64 34.984v-69.57h-23.851v69.57h23.851v.001m1.987-86.4c0-6.759-5.698-11.529-13.913-11.529-7.819 0-13.648 4.77-13.648 11.529 0 7.287 5.829 11.792 13.648 11.792 8.216 0 13.913-4.505 13.913-11.792m-39 86.4v-96.6l-23.851 9.542v87.06h23.851" fill="#fff" fill-rule="evenodd" id="1X"/><path d="m389.32 94.44h-25.18l-6.361 25.574c-1.456 5.832-3.444 14.178-4.372 20.804-.795-6.626-2.782-14.973-4.24-20.804l-6.229-25.574h-25.309l24.12 69.57h23.453l24.12-69.57m31.35-16.828c0-6.759-5.698-11.529-13.913-11.529-7.819 0-13.648 4.77-13.648 11.529 0 7.287 5.83 11.792 13.648 11.792 8.215 0 13.913-4.505 13.913-11.792m-1.988 86.4v-69.57h-23.851v69.57h23.851v.001m58.661-68.11c-2.782-1.721-6.228-2.914-11.262-2.914-6.096 0-10.734 2.517-14.843 6.492v-5.03h-23.851v69.57h23.851v-37.897c0-8.482 3.579-11.264 9.41-11.264 4.636 0 8.08 2.517 11.131 5.832l5.564-24.781m52.949 45.585c-3.71 2.517-6.361 3.71-9.542 3.71-3.975 0-5.963-1.591-5.963-6.891v-25.18h15.11v-18.683h-15.11v-27.03l-23.19 9.408v17.625h-10.599v18.683h10.599v30.21c0 15.769 5.832 22.13 18.42 22.13 6.758 0 12.589-1.458 17.227-3.71l3.048-20.274" fill="url(#i)" fill-rule="evenodd"/><path transform="translate(-2)" mask="url(#j)" d="m127.05 43.547c17.233 36.62 72.865 128.91 102.86 168.29-2.858 14.11-18.673 23.308-29.809 18.791l-115.34-166.6c-.07-12.347 22.06-27.27 42.29-20.477" fill="#25514b" filter="url(#k)"/><path d="m218.3 241.19c-2.9 1.834-8.917 18.762-6.01 22.858 4.325 6.093 32.696-15.214 30.405-21.18-2.356-6.136-21.883-2.64-24.395-1.675m-14.341-9.677l3.368 5.02c0 0 .934 1.385.252 4.412-1.066 4.734-5.207 16.96-5.819 27.11-.074 1.226-1.793 12.229 9.964 9.517 11.758-2.711 36.593-21.745 41.746-30.395 5.153-8.65-.843-13.795-8.332-14.524-7.489-.73-19.09-.425-24.443.189-5.354.614-4.956-1.165-9.326-5.975-.327-.361-7.41 4.647-7.41 4.647" fill="#3e3e3e" fill-rule="evenodd" id="1Y"/><path d="m216.5 238.52c-2.9 1.834-8.917 18.762-6.01 22.858 4.324 6.092 32.696-15.214 30.405-21.18-2.356-6.136-21.882-2.64-24.396-1.675m-13.394-10l3.368 5.02c0 0 .934 1.385.252 4.412-1.066 4.734-5.207 16.96-5.819 27.11-.074 1.226-1.793 12.229 9.964 9.517 11.758-2.711 36.593-21.745 41.746-30.395 5.153-8.65-.843-13.795-8.332-14.524-7.489-.73-19.09-.425-24.443.189-5.354.614-4.956-1.165-9.326-5.975-.328-.361-7.41 4.647-7.41 4.647" fill="url(#l)" fill-rule="evenodd"/><path mask="url(#n)" transform="matrix(1.42953.05311-.05041 1.29187-77.43-78.8)" d="m214.78 227.85c-2.797 3.296-6.24 5.845-9.926 7.474.432-2.596-.374-3.792-.374-3.792l-3.368-5.02c0 0 7.083-5.01 7.41-4.647 3.294 3.624 3.879 5.527 6.258 5.983" fill="#54575a" filter="url(#o)"/><path d="m116.05 45.547c17.234 36.62 72.865 128.91 102.86 168.29-2.858 14.11-18.673 23.308-29.809 18.791l-115.34-166.6c-.07-12.347 22.06-27.27 42.29-20.477" fill="#c8c7c5" id="1Z"/><path d="m113.12 44.661c17.233 36.62 75.37 131.68 105.37 171.05-4.069 13.505-18.428 20.812-30.3 17.44l-115.34-166.6c-.07-12.347 22.899-26.599 40.27-21.894" fill="#7c858c" id="1a"/><path transform="translate(0 8)" mask="url(#p)" d="m192.12 225.88l-118.58-171.19c3.174-9.06 16.868-17.988 30.23-18.875 22.16 44.22 78.16 134.39 111.83 178.22-5.194 8.137-14.62 12.648-23.471 11.846" fill="#c8c7c5" filter="url(#q)"/><path d="m203.93 231.91l-123.54-178.45c3.583-3.084 8.164-5.73 13.12-7.479 6.902 12.484 25.22 44.608 54.34 88.54 22.713 34.27 46.09 68.02 64.14 91.97-2.35 2.316-5.102 4.145-8.05 5.413m-3.597 1.245c-1.392.368-2.805.615-4.223.733l-120.89-174.61c.699-1.099 1.537-2.181 2.494-3.23l122.62 177.11" fill="url(#r)" fill-rule="evenodd"/><g fill="#005f6a"><path d="m364.11 175.91h-4.284l-3.612 11.34c-.364 1.148-.728 2.492-.896 3.22-.168-.7-.56-2.128-.924-3.22l-3.695-11.34h-4.341l6.972 19.6h3.808l6.972-19.6" fill-rule="evenodd" id="1b"/><path fill-rule="evenodd" d="m368.87 175.91h3.92v19.6h-3.92z" id="1c"/><path d="m394.82 195.51l-3.752-7.616c2.492-.98 3.752-2.828 3.752-5.768 0-4.172-3.052-6.216-6.748-6.216h-9.128v19.6h3.92v-7.06h3.948l3.5 7.06h4.508m-4.03-13.3c0 1.708-.98 2.548-2.8 2.548h-5.124v-5.04h5.124c1.736.001 2.8.729 2.8 2.492" fill-rule="evenodd" id="1d"/><path fill-rule="evenodd" d="m413.02 179.77v-3.86h-15.18v3.86h5.63v15.74h3.92v-15.74z"/><path d="m433.37 186.86v-10.948h-3.92v11c0 3.136-1.54 5.068-4.03 5.068-2.492 0-4-1.988-4-5.124v-10.948h-3.92v11c0 5.712 3.192 8.904 7.924 8.904 4.984.002 7.952-3.273 7.952-8.958" fill-rule="evenodd" id="1e"/><path d="m455.49 195.51l-7.448-19.6h-3.808l-7.504 19.6h4.2l1.54-4.368h7.168l1.54 4.368h4.312m-7.196-8.091h-4.48l1.26-3.556c.392-1.148.784-2.324.98-3.052.196.728.588 1.904.98 3.052l1.26 3.556" fill-rule="evenodd" id="1f"/><path fill-rule="evenodd" d="m459.97 175.91v19.6h13.75v-3.86h-9.83v-15.74z"/><path fill-rule="evenodd" d="m478.45 175.91h3.92v19.6h-3.92z" id="1g"/><path d="m503.37 195.51v-3.584h-6.748c-1.148 0-3.192.028-3.976.056.504-.504 1.624-1.792 2.24-2.548l8.344-10.05v-3.472h-14.756v3.583h6.133c1.148 0 3.192-.027 3.976-.056-.504.504-1.624 1.792-2.24 2.548l-8.428 10.05v3.472h15.455v.001" fill-rule="evenodd" id="1h"/><path d="m525.71 195.51l-7.448-19.6h-3.808l-7.504 19.6h4.2l1.54-4.368h7.168l1.54 4.368h4.312m-7.196-8.091h-4.48l1.26-3.556c.392-1.148.784-2.324.98-3.052.196.728.588 1.904.98 3.052l1.26 3.556" fill-rule="evenodd" id="1i"/><path fill-rule="evenodd" d="m541.45 179.77v-3.86h-15.18v3.86h5.63v15.74h3.92v-15.74z"/><path fill-rule="evenodd" d="m546.35 175.91h3.92v19.6h-3.92z" id="1j"/><path d="m572.41 185.71c0-5.964-3.164-10.11-8.512-10.11-5.348 0-8.512 4.144-8.512 10.11 0 5.964 3.164 10.11 8.512 10.11 5.348 0 8.512-4.143 8.512-10.11m-4.03 0c0 3.5-1.316 6.216-4.48 6.216-3.164 0-4.48-2.716-4.48-6.216 0-3.5 1.316-6.216 4.48-6.216 3.164 0 4.48 2.716 4.48 6.216" fill-rule="evenodd" id="1k"/><path d="m593.13 195.51v-19.6h-3.864v8.288c0 1.092.056 3.557.056 4.284-.252-.504-.896-1.484-1.372-2.212l-6.944-10.36h-3.752v19.6h3.864v-8.624c0-1.092-.056-3.556-.056-4.284.252.504.896 1.484 1.372 2.212l7.196 10.696h3.5" fill-rule="evenodd" id="1l"/><path d="m625.32 195.51l-7.448-19.6h-3.808l-7.504 19.6h4.2l1.54-4.368h7.168l1.54 4.368h4.312m-7.196-8.091h-4.48l1.26-3.556c.392-1.148.784-2.324.98-3.052.196.728.588 1.904.98 3.052l1.26 3.556" fill-rule="evenodd" id="1m"/><path d="m645.12 182.13c0-4.172-3.052-6.216-6.748-6.216h-8.568v19.6h3.92v-6.944h4.312c4.061-.001 7.084-1.904 7.084-6.44m-4.03.083c0 1.708-.98 2.548-2.8 2.548h-4.564v-5.04h4.508c1.736.001 2.856.784 2.856 2.492" fill-rule="evenodd" id="1n"/><path fill-rule="evenodd" d="m649.96 175.91h3.92v19.6h-3.92z" id="1o"/></g></g><text x="696.1" y="385.95" fill="#000" font-family="Yanone Kaffeesatz" word-spacing="0" line-height="125%" letter-spacing="0" font-size="2.539"><tspan x="696.1" y="385.95">sysfs</tspan></text><g transform="translate(137.48-7.982)"><text y="421.87" x="608.23" font-family="Yanone Kaffeesatz" word-spacing="0" line-height="125%" letter-spacing="0" font-size="4.839"><tspan y="421.87" x="608.23">netconfpersistence.py</tspan></text><g transform="translate(5.02)"><g transform="matrix(.04997 0 0 .04916 585.95 408.61)"><use xlink:href="#1P"/><use xlink:href="#1T"/><use xlink:href="#1Q"/></g><g transform="matrix(.04136 0 0 .04136 612.64 399.57)" color="#000"><use fill="url(#R)" xlink:href="#1U"/><use fill="url(#S)" xlink:href="#1R"/></g><g font-family="Yanone Kaffeesatz" word-spacing="0" line-height="125%" letter-spacing="0" font-size="2.103"><text x="614.51" y="410.64"><tspan x="614.51" y="410.64">json</tspan></text><text x="614.54" y="413.09"><tspan x="614.54" y="413.09">Filesystem</tspan></text></g></g></g><text y="412.41" x="700.89" font-family="Yanone Kaffeesatz" word-spacing="0" line-height="125%" letter-spacing="0" font-size="2.103"><tspan y="412.41" x="700.89">libnl</tspan></text><g transform="translate(119.36 4.89)"><g><text x="591.06" y="416.32" font-family="Yanone Kaffeesatz" word-spacing="0" line-height="125%" letter-spacing="0" font-size="4.839"><tspan x="591.06" y="416.32">sourceRoute.py</tspan></text><g transform="matrix(.04997 0 0 .04916 568.79 403.06)"><use xlink:href="#1P"/><use xlink:href="#1T"/><use xlink:href="#1Q"/></g></g><g transform="matrix(.04136 0 0 .04136 595.47 394.02)" color="#000"><use fill="url(#P)" xlink:href="#1U"/><use fill="url(#Q)" xlink:href="#1R"/></g><g font-family="Yanone Kaffeesatz" word-spacing="0" line-height="125%" letter-spacing="0" font-size="2.103"><text y="405.09" x="597.34"><tspan y="405.09" x="597.34">iproute2</tspan></text><text y="407.54" x="597.37"><tspan y="407.54" x="597.37">python-inotify</tspan></text></g></g><rect y="361.52" x="686.76" height="87.68" width="93.21" fill="none" stroke="#000" rx="15.714"/><text y="368.43" x="712.64" font-family="Yanone Kaffeesatz" word-spacing="0" line-height="125%" letter-spacing="0" font-size="8.326"><tspan y="368.43" x="712.64">Networking</tspan></text><g transform="translate(699.35-139.5)"><g transform="translate(-595.99 140.66)"><text x="612.8" y="442.43" font-family="Yanone Kaffeesatz" word-spacing="0" line-height="125%" letter-spacing="0" font-size="4.839"><tspan x="612.8" y="442.43">netlink.py</tspan></text><g transform="translate(19.701 1.854)"><g transform="matrix(.04997 0 0 .04916 566.97 427.32)"><use xlink:href="#1P"/><use xlink:href="#1T"/><use xlink:href="#1Q"/></g><g><g transform="matrix(.04136 0 0 .04136 593.66 418.27)" color="#000"><use fill="url(#K)" xlink:href="#1U"/><use fill="url(#L)" xlink:href="#1R"/></g><text x="595.53" y="429.35" font-family="Yanone Kaffeesatz" word-spacing="0" line-height="125%" letter-spacing="0" font-size="2.103"><tspan x="595.53" y="429.35">iproute2</tspan></text></g></g></g><g transform="translate(-595.27 135.45)"><text x="586.93" y="447.64" font-family="Yanone Kaffeesatz" word-spacing="0" line-height="125%" letter-spacing="0" font-size="4.839"><tspan x="586.93" y="447.64">ipwrapper.py</tspan></text><g><g transform="matrix(.04997 0 0 .04916 562.87 434.38)"><use xlink:href="#1P"/><use xlink:href="#1T"/><use xlink:href="#1Q"/></g><g transform="matrix(.04136 0 0 .04136 589.56 425.34)" color="#000"><use fill="url(#M)" xlink:href="#1U"/><use fill="url(#N)" xlink:href="#1R"/></g><g font-family="Yanone Kaffeesatz" word-spacing="0" line-height="125%" letter-spacing="0" font-size="2.103"><text y="436.41" x="591.43"><tspan y="436.41" x="591.43">iproute2</tspan></text><text x="591.46" y="440.23"><tspan x="591.46" y="440.23">ethtool (ioctl)</tspan></text></g></g></g><path d="m6.698 567.7h9.997v-.993l2.053 1.418-2.053 1.505v-.958h-9.997z" fill="url(#O)" stroke="#000" stroke-width=".389"/></g><g stroke="#000"><g stroke-width=".389"><path d="m755.83 389.65l2.334 1.829.702-.702.449 2.454-2.516-.387.677-.677-2.334-1.829z" fill="url(#J)"/><path d="m729.23 384.22s0 16.727 0 16.771l24.923-.019v-.83l2 1.34-2 1.403v-.893l-25.897.052v-3.21-14.616z" fill="url(#I)"/></g><path d="m728.84 397.79l-3.196 3.196.7.7-2.522.522.461-2.583.675.675 3.196-3.196z" fill="url(#H)" stroke-width=".397"/></g><g transform="translate(-563.74-68.994)"><g transform="matrix(.99353 0 0 .99353 103 30.582)"><g transform="translate(49.968 30.745)"><g transform="matrix(.0503 0 0 .04948 1147.28 434.09)"><use xlink:href="#1P"/><use xlink:href="#1T"/><use xlink:href="#1Q"/></g><g transform="matrix(.04163 0 0 .04163 1174.13 424.99)" color="#000"><use fill="url(#F)" xlink:href="#1U"/><use fill="url(#G)" xlink:href="#1R"/></g></g><text x="1227.41" y="478.19" font-family="Yanone Kaffeesatz" word-spacing="0" line-height="125%" letter-spacing="0" font-size="4.87"><tspan x="1227.41" y="478.19">tc.py</tspan></text></g><g font-family="Yanone Kaffeesatz" word-spacing="0" line-height="125%" letter-spacing="0"><text y="497.68" x="1321.11" font-size="10.886"><tspan y="497.68" x="1321.11" font-size="2.102">iproute2</tspan></text><text y="494.22" x="1321.11" font-size="2.103"><tspan y="494.22" x="1321.11">python-ethtool</tspan></text></g></g><g stroke="#000"><path d="m703.67 421.4v1.794h.99l-1.414 2.153-1.501-2.153h.955v-1.794z" fill="url(#E)" stroke-width=".397"/><path d="m740.17 402.1s0 16.727 0 16.771l14.812-.019v-.83l2 1.34-2 1.403v-.893l-15.785.052v-3.21-14.616z" fill="url(#D)" stroke-width=".389"/></g></g></g></svg>
