<svg xmlns="http://www.w3.org/2000/svg" xmlns:xlink="http://www.w3.org/1999/xlink" viewBox="0 0 195.52142 98.678555" width="100%" height="100%"><defs><path id="c" d="m565.13-138.12v290.88h212.75v-220.09l-132.69-70.781h-80.06z" stroke="#000" stroke-width="13.398" fill="#fff"/><path id="d" d="m746.35-38.692l31.77-38.599-129.25-57.927 97.48 96.53z" stroke-linejoin="round" stroke="#000" stroke-width="13.398" fill="#fff" stroke-linecap="round"/><path id="e" d="m100.55 177.31c28.03 0 26.28-12.156 26.28-12.156l-.031-12.594h-26.75v-3.781h37.38c0 0 17.938 2.034 17.938-26.25 0-28.28-15.656-27.28-15.656-27.28h-9.344v13.12c0 0 .504 15.656-15.406 15.656-15.91 0-26.531 0-26.531 0 0 0-14.906-.241-14.906 14.406 0 14.647 0 24.22 0 24.22 0 0-2.263 14.656 27.03 14.656m14.75-8.469c-2.661 0-4.813-2.151-4.813-4.813 0-2.661 2.151-4.813 4.813-4.813 2.661 0 4.813 2.151 4.813 4.813 0 2.661-2.151 4.813-4.813 4.813"/><path id="f" d="m10.414 122.67c-5.394-15.666 2.932-32.738 18.598-38.13l215.58-74.23c15.666-5.394 32.738 2.933 38.13 18.599l39.799 115.58c5.394 15.666-2.932 32.738-18.598 38.13l-215.58 74.22c-15.666 5.394-32.738-2.933-38.13-18.599l-39.798-115.58"/><path id="g" d="m733.52-.152l38.08-52.4-132.55-75.16 89.55 121.26 4.923 6.302" fill="#c8b7b7"/><path id="h" d="m99.75 67.47c-28.03 0-26.28 12.156-26.28 12.156l.031 12.594h26.75v3.781h-37.37c0 0-17.938-2.034-17.938 26.25 0 28.28 15.656 27.28 15.656 27.28h9.344v-13.12c0 0-.504-15.656 15.406-15.656 15.91 0 26.531 0 26.531 0 0 0 14.906.241 14.906-14.406 0-14.647 0-24.22 0-24.22 0 0 2.263-14.656-27.03-14.656m-14.75 8.469c2.661 0 4.813 2.151 4.813 4.813 0 2.661-2.151 4.813-4.813 4.813-2.661 0-4.813-2.151-4.813-4.813 0-2.661 2.151-4.813 4.813-4.813"/><filter id="j" color-interpolation-filters="sRGB"><feGaussianBlur stdDeviation="1.63458"/></filter><filter id="k" x="-.179" width="1.357" y="-.181" height="1.363" color-interpolation-filters="sRGB"><feGaussianBlur stdDeviation="1.01789"/></filter><filter id="i" color-interpolation-filters="sRGB"><feGaussianBlur stdDeviation="1.21543"/></filter><linearGradient xlink:href="#r" id="1L" gradientUnits="userSpaceOnUse" x1="107.59" y1="26.518" x2="107.53" y2="26.341"/><linearGradient xlink:href="#m" id="1O" gradientUnits="userSpaceOnUse" x1="108.76" y1="25.1" x2="108.43" y2="24.16"/><linearGradient xlink:href="#l" id="1R" gradientUnits="userSpaceOnUse" y1="26.11" x2="0" y2="26.603"/><linearGradient xlink:href="#t" id="1K" gradientUnits="userSpaceOnUse" x1="107.2" y1="26.296" x2="107.29" y2="26.541"/><linearGradient xlink:href="#p" id="1T" gradientUnits="userSpaceOnUse" x1="55.55" y1="77.07" x2="110.15" y2="131.85"/><linearGradient xlink:href="#m" id="1Q" gradientUnits="userSpaceOnUse" x1="109.51" y1="25.658" x2="109.52" y2="24.288"/><linearGradient xlink:href="#o" id="1J" gradientUnits="userSpaceOnUse" x1="148.06" y1="26.863" x2="151.69" y2="30.347"/><linearGradient xlink:href="#p" id="1D" gradientUnits="userSpaceOnUse" x1="71.05" y1="19.351" x2="73.31" y2="21.617"/><linearGradient xlink:href="#o" id="1U" gradientUnits="userSpaceOnUse" x1="89.14" y1="111.92" x2="147.78" y2="168.1"/><linearGradient id="1E" gradientUnits="userSpaceOnUse" x1="110.77" y1="168.58" x2="145.47" y2="151.58"><stop stop-color="#005f61"/><stop offset="1"/></linearGradient><linearGradient id="1H" gradientUnits="userSpaceOnUse" x1="151.81" y1="14.02" x2="152.58" y2="18.15"><stop stop-color="#b1883f"/><stop stop-color="#b1883f" stop-opacity="0" offset="1"/></linearGradient><linearGradient xlink:href="#p" id="1I" gradientUnits="userSpaceOnUse" x1="145.98" y1="24.704" x2="149.36" y2="28.1"/><linearGradient id="1G" gradientUnits="userSpaceOnUse" x1="147.6" y1="-5.869" x2="147.12" y2="38.915"><stop stop-color="#fff" stop-opacity=".668"/><stop stop-color="#fff" stop-opacity="0" offset="1"/></linearGradient><linearGradient xlink:href="#q" id="1V" gradientUnits="userSpaceOnUse" x1="157.55" y1="18.19" x2="158.02" y2="19.883"/><linearGradient xlink:href="#q" id="1d" gradientUnits="userSpaceOnUse" x1="109.94" y1="35.02" x2="108.19" y2="35.04"/><linearGradient xlink:href="#p" id="1C" gradientUnits="userSpaceOnUse" x1="55.55" y1="77.07" x2="110.15" y2="131.85"/><linearGradient xlink:href="#l" id="1f" gradientUnits="userSpaceOnUse" y1="53.46" x2="0" y2="53.88"/><linearGradient xlink:href="#m" id="1i" gradientUnits="userSpaceOnUse" x1="107.54" y1="52.599" x2="107.26" y2="51.805"/><linearGradient xlink:href="#r" id="1l" gradientUnits="userSpaceOnUse" x1="106.55" y1="53.807" x2="106.5" y2="53.657"/><linearGradient xlink:href="#m" id="1g" gradientUnits="userSpaceOnUse" y1="53.08" x2="0" y2="51.914"/><linearGradient xlink:href="#q" id="1c" gradientUnits="userSpaceOnUse" gradientTransform="matrix(.94749 0 0 .9965-975.7-412.81)" x1="1164.82" y1="440.93" x2="1164.84" y2="442.69"/><linearGradient xlink:href="#q" id="1W" gradientUnits="userSpaceOnUse" gradientTransform="matrix(0 .94749-.9965 0 589.4-1046.7)" x1="1164.82" y1="440.93" x2="1164.84" y2="442.69"/><linearGradient xlink:href="#q" id="1b" gradientUnits="userSpaceOnUse" gradientTransform="matrix(.94749 0 0 .9965-983.72-367.87)" x1="1164.82" y1="440.93" x2="1164.84" y2="442.69"/><linearGradient xlink:href="#q" id="1X" gradientUnits="userSpaceOnUse" x1="113.51" y1="61.38" x2="111.77" y2="61.39"/><linearGradient xlink:href="#q" id="1Z" gradientUnits="userSpaceOnUse" gradientTransform="matrix(0 .94749-.9965 0 578.47-1064.58)" x1="1164.82" y1="440.93" x2="1164.84" y2="442.69"/><linearGradient xlink:href="#q" id="1a" gradientUnits="userSpaceOnUse" x1="177.57" y1="34.31" x2="175.81" y2="34.33"/><linearGradient xlink:href="#q" id="1Y" gradientUnits="userSpaceOnUse" x1="139.91" y1="39.88" x2="138.66" y2="38.66"/><linearGradient xlink:href="#t" id="1m" gradientUnits="userSpaceOnUse" x1="106.22" y1="53.619" x2="106.3" y2="53.827"/><linearGradient id="r"><stop stop-color="#c8c7c5"/><stop offset="1" stop-color="#c8c7c5" stop-opacity="0"/></linearGradient><linearGradient xlink:href="#q" id="12" gradientUnits="userSpaceOnUse" x1="61.15" y1="64.67" x2="61.17" y2="66.41"/><linearGradient id="s"><stop stop-color="#fff"/><stop offset="1" stop-color="#fff" stop-opacity="0"/></linearGradient><linearGradient xlink:href="#q" id="11" gradientUnits="userSpaceOnUse" gradientTransform="matrix(.94749 0 0 .9965-1013.71-413.97)" x1="1164.82" y1="440.93" x2="1164.84" y2="442.69"/><linearGradient id="t"><stop stop-color="#3e3e3e"/><stop offset="1" stop-color="#3e3e3e" stop-opacity="0"/></linearGradient><linearGradient id="q"><stop stop-color="#232323"/><stop offset="1" stop-color="#474747"/></linearGradient><linearGradient id="l"><stop stop-color="#fff"/><stop offset="1" stop-color="#868686"/></linearGradient><linearGradient id="p"><stop stop-color="#387eb8"/><stop offset="1" stop-color="#366994"/></linearGradient><linearGradient id="m"><stop stop-color="#005f61"/><stop offset="1" stop-color="#91c4b7"/></linearGradient><linearGradient id="o"><stop stop-color="#ffe052"/><stop offset="1" stop-color="#ffc331"/></linearGradient><linearGradient id="n"><stop stop-color="#91c4b7"/><stop offset="1" stop-color="#005f61"/></linearGradient><linearGradient xlink:href="#p" id="1B" gradientUnits="userSpaceOnUse" x1="12.05" y1="20.62" x2="14.31" y2="22.89"/><linearGradient xlink:href="#q" id="14" gradientUnits="userSpaceOnUse" x1="60.93" y1="25.42" x2="60.95" y2="27.17"/><linearGradient xlink:href="#q" id="13" gradientUnits="userSpaceOnUse" x1="46.95" y1="47.63" x2="45.2" y2="47.65"/><linearGradient xlink:href="#q" id="19" gradientUnits="userSpaceOnUse" x1="87.86" y1="64.77" x2="87.88" y2="66.52"/><linearGradient xlink:href="#p" id="17" gradientUnits="userSpaceOnUse" x1="41.911" y1="19.348" x2="44.17" y2="21.614"/><linearGradient xlink:href="#o" id="16" gradientUnits="userSpaceOnUse" x1="89.14" y1="111.92" x2="147.78" y2="168.1"/><linearGradient xlink:href="#q" id="18" gradientUnits="userSpaceOnUse" x1="75.17" y1="47.27" x2="76.92" y2="47.25"/><linearGradient xlink:href="#q" id="15" gradientUnits="userSpaceOnUse" x1="32.16" y1="24.93" x2="32.18" y2="26.67"/><linearGradient xlink:href="#o" id="1A" gradientUnits="userSpaceOnUse" x1="13.44" y1="22.07" x2="15.87" y2="24.39"/><mask maskUnits="userSpaceOnUse" id="z"><path d="m95.11 61.776l149.48-51.47c15.666-5.394 32.738 2.933 38.13 18.599l39.799 115.58c5.394 15.666-2.932 32.738-18.598 38.13l-103.98 35.801-104.84-156.64" fill="#2f6962"/></mask><mask maskUnits="userSpaceOnUse" id="y"><path d="m213.97 236.84c-1.976 1.501-5.717 14.758-3.574 17.841 3.186 4.585 22.424-12.699 20.661-17.246-1.813-4.675-15.357-1.412-17.09-.594m-9.629-7.347l2.489 3.782c0 0 .69 1.044.296 3.403-.616 3.69-3.175 13.259-3.326 21.12-.018.95-.919 9.504 7.219 7.07 8.139-2.433 24.968-17.859 28.332-24.693 3.364-6.834-.965-10.639-6.216-10.987-5.251-.349-13.346.22-17.07.848-3.723.628-3.494-.758-6.677-4.351-.239-.27-5.05 3.805-5.05 3.805" fill="#aaa" fill-rule="evenodd"/></mask><mask maskUnits="userSpaceOnUse" id="x"><path d="m213.97 236.84c-1.976 1.501-5.717 14.758-3.574 17.841 3.186 4.585 22.424-12.699 20.661-17.246-1.813-4.675-15.357-1.412-17.09-.594m-9.629-7.347l2.489 3.782c0 0 .69 1.044.296 3.403-.616 3.69-3.175 13.259-3.326 21.12-.018.95-.919 9.504 7.219 7.07 8.139-2.433 24.968-17.859 28.332-24.693 3.364-6.834-.965-10.639-6.216-10.987-5.251-.349-13.346.22-17.07.848-3.723.628-3.494-.758-6.677-4.351-.239-.27-5.05 3.805-5.05 3.805" fill="#aaa" fill-rule="evenodd"/></mask><mask maskUnits="userSpaceOnUse" id="u"><path d="m113.12 36.661c17.233 36.62 75.37 131.68 105.37 171.05-4.069 13.505-18.428 20.812-30.3 17.44l-115.34-166.6c-.07-12.347 22.899-26.599 40.27-21.894" fill="#7c858c"/></mask><mask maskUnits="userSpaceOnUse" id="w"><path d="m95.11 61.776l149.48-51.47c15.666-5.394 32.738 2.933 38.13 18.599l39.799 115.58c5.394 15.666-2.932 32.738-18.598 38.13l-103.98 35.801-104.84-156.64" fill="#2f6962"/></mask><mask maskUnits="userSpaceOnUse" id="v"><path d="m113.12 36.661c17.233 36.62 75.37 131.68 105.37 171.05-4.069 13.505-18.428 20.812-30.3 17.44l-115.34-166.6c-.07-12.347 22.899-26.599 40.27-21.894" fill="#7c858c"/></mask><radialGradient xlink:href="#s" id="1k" gradientUnits="userSpaceOnUse" gradientTransform="matrix(.01131-.00076.00067.01001 104.32 51.17)" cx="197.57" cy="252.72" r="166.51"/><radialGradient xlink:href="#n" id="1h" gradientUnits="userSpaceOnUse" gradientTransform="matrix(.01134-.0013.0013.01134 104.33 52.15)" cx="228.55" cy="-6.509" r="111.43"/><radialGradient xlink:href="#s" id="1j" gradientUnits="userSpaceOnUse" gradientTransform="matrix(.01371-.00471.00188.00547 104.42 52.668)" cx="135.64" cy="12" r="161.65"/><radialGradient xlink:href="#n" id="1P" gradientUnits="userSpaceOnUse" gradientTransform="matrix(.01336-.00153.00153.01335 104.97 24.565)" cx="228.55" cy="-6.509" r="111.43"/><radialGradient xlink:href="#s" id="1M" gradientUnits="userSpaceOnUse" gradientTransform="matrix(.01332-.00089.00079.01178 104.96 23.41)" cx="197.57" cy="252.72" r="166.51"/><radialGradient xlink:href="#10" id="1F" gradientUnits="userSpaceOnUse" gradientTransform="matrix(.27648 0 0 .07087 169.44-3.064)" cx="-59.6" cy="522.12" r="61.17"/><radialGradient id="10" gradientUnits="userSpaceOnUse" cy="522.12" cx="-59.6" gradientTransform="matrix(1.0178 0 0 .13108 127.26 37.24)" r="61.17"><stop stop-opacity=".208"/><stop stop-opacity="0" offset="1"/></radialGradient><radialGradient xlink:href="#s" id="1N" gradientUnits="userSpaceOnUse" gradientTransform="matrix(.01614-.00555.00221.00644 105.08 25.18)" cx="135.64" cy="12" r="161.65"/><radialGradient xlink:href="#s" id="1e" gradientUnits="userSpaceOnUse" gradientTransform="matrix(.0098.00057-.00079.0135 105.04 50.919)" cx="143.6" cy="139.94" r="68.38"/><radialGradient xlink:href="#s" id="1S" gradientUnits="userSpaceOnUse" gradientTransform="matrix(.01154.00068-.00093.01589 105.8 23.12)" cx="143.6" cy="139.94" r="68.38"/></defs><use height="98.68" width="195.52" xlink:href="#c" transform="matrix(.04997 0 0 .04916 12.937 25.2)"/><path d="m49.594 25.19l1.903-2.576-6.624-3.695 4.475 5.961.246.31" fill="#c8b7b7"/><use height="98.68" width="195.52" xlink:href="#d" transform="matrix(.04997 0 0 .04916 12.937 25.2)"/><g color="#000"><path d="m43.739 18.951c-1.159 0-1.087.503-1.087.503l.001.521h1.106v.156h-1.546c0 0-.742-.084-.742 1.086 0 1.17.648 1.128.648 1.128h.386v-.543c0 0-.021-.648.637-.648.658 0 1.097 0 1.097 0 0 0 .617.01.617-.596 0-.606 0-1 0-1 0 0 .094-.606-1.118-.606m-.61.35c.11 0 .199.089.199.199 0 .11-.089.199-.199.199-.11 0-.199-.089-.199-.199 0-.11.089-.199.199-.199" fill="url(#17)"/><use height="98.68" width="195.52" xlink:href="#e" transform="matrix(.04136 0 0 .04136 39.613 16.16)" fill="url(#16)"/></g><g font-family="Yanone Kaffeesatz" word-spacing="0" line-height="125%" letter-spacing="0"><text y="38.46" x="42" font-size="4.839"><tspan y="38.46" x="42">API.py</tspan></text><text y="38.24" x="4.794" font-size="4.838"><tspan y="38.24" x="4.794">BindingXMLRPC.py</tspan></text></g><g transform="matrix(.04997 0 0 .04916 42.08 25.2)"><use xlink:href="#c" width="195.52" height="98.68"/><use xlink:href="#g" width="195.52" height="98.68"/><use xlink:href="#d" width="195.52" height="98.68"/></g><g color="#000"><path d="m72.879 18.954c-1.159 0-1.087.503-1.087.503l.001.521h1.106v.156h-1.546c0 0-.742-.084-.742 1.086 0 1.17.648 1.128.648 1.128h.386v-.543c0 0-.021-.648.637-.648.658 0 1.097 0 1.097 0 0 0 .617.01.617-.596 0-.606 0-1 0-1 0 0 .094-.606-1.118-.606m-.61.35c.11 0 .199.089.199.199 0 .11-.089.199-.199.199-.11 0-.199-.089-.199-.199 0-.11.089-.199.199-.199" fill="url(#1D)"/><use xlink:href="#e" width="195.52" height="98.68" transform="matrix(.04136 0 0 .04136 68.753 16.16)" fill="url(#16)"/></g><text x="64.36" y="38.47" word-spacing="0" line-height="125%" letter-spacing="0" font-size="4.839" font-family="Yanone Kaffeesatz"><tspan x="64.36" y="38.47">supervdsm.py</tspan></text><g transform="matrix(.04997 0 0 .04916 42.08 63.795)"><use xlink:href="#c" width="195.52" height="98.68"/><use xlink:href="#g" width="195.52" height="98.68"/><use xlink:href="#d" width="195.52" height="98.68"/></g><g color="#000"><use xlink:href="#h" width="195.52" height="98.68" transform="matrix(.04136 0 0 .04136 68.759 54.754)" fill="url(#1C)"/><use xlink:href="#e" width="195.52" height="98.68" transform="matrix(.04136 0 0 .04136 68.759 54.754)" fill="url(#16)"/></g><text x="71.43" y="77.06" word-spacing="0" line-height="125%" letter-spacing="0" font-size="4.838" font-family="Yanone Kaffeesatz"><tspan x="71.43" y="77.06">vm.py</tspan></text><g stroke="#000" stroke-width=".397"><path d="m23.89 24.92h14.52v-.99l2.153 1.414-2.153 1.501v-.955h-14.52z" fill="url(#15)"/><path d="m52.67 25.42h14.52v-.99l2.153 1.414-2.153 1.501v-.955h-14.52z" fill="url(#14)"/><path d="m46.95 39.36v14.52h.99l-1.414 2.153-1.501-2.153h.955v-14.52z" fill="url(#13)"/></g><g transform="matrix(.04997 0 0 .04916 13.259 63.798)"><use xlink:href="#c" width="195.52" height="98.68"/><use xlink:href="#g" width="195.52" height="98.68"/><use xlink:href="#d" width="195.52" height="98.68"/></g><g color="#000"><use xlink:href="#h" width="195.52" height="98.68" transform="matrix(.04136 0 0 .04136 39.935 54.757)" fill="url(#1C)"/><use xlink:href="#e" width="195.52" height="98.68" transform="matrix(.04136 0 0 .04136 39.935 54.757)" fill="url(#16)"/></g><text x="39.31" y="77.06" word-spacing="0" line-height="125%" letter-spacing="0" font-size="4.838" font-family="Yanone Kaffeesatz"><tspan x="39.31" y="77.06">clientIF.py</tspan></text><g stroke="#000"><path d="m52.88 64.66h14.52v-.99l2.152 1.414-2.152 1.501v-.955h-14.52z" fill="url(#12)" stroke-width=".397"/><path d="m82.06 25.41h12.647v-.993l2.053 1.418-2.053 1.505v-.958h-12.647z" fill="url(#11)" stroke-width=".389"/><g stroke-width=".397"><path d="m81.95 64.76h12.164v-.99l2.153 1.414-2.153 1.501v-.955h-12.164z" fill="url(#19)"/><path d="m75.17 55.53v-14.52h-.99l1.414-2.153 1.501 2.153h-.955v14.52z" fill="url(#18)"/></g><path d="m11.31 18.42v14.299h10.631v-10.82l-6.63-3.48h-4z" fill="#fff" stroke-width=".664"/></g><path d="m19.72 25.34l1.903-2.576-6.623-3.695 4.475 5.961.246.31" fill="#c8b7b7"/><path d="m20.37 23.44l1.588-1.897-6.459-2.848 4.871 4.745z" fill="#fff" stroke="#000" stroke-linejoin="round" stroke-linecap="round" stroke-width=".664"/><g color="#000"><path d="m13.88 20.23c-1.159 0-1.087.503-1.087.503v.521h1.106v.156h-1.546c0 0-.742-.084-.742 1.086 0 1.17.648 1.128.648 1.128h.386v-.543c0 0-.021-.648.637-.648.658 0 1.097 0 1.097 0 0 0 .616.01.616-.596 0-.606 0-1 0-1 0 0 .094-.606-1.118-.606m-.61.35c.11 0 .199.089.199.199 0 .11-.089.199-.199.199-.11 0-.199-.089-.199-.199 0-.11.089-.199.199-.199" fill="url(#1B)"/><path d="m13.91 24.77c1.159 0 1.087-.503 1.087-.503v-.521h-1.106v-.156h1.546c0 0 .742.084.742-1.086 0-1.17-.648-1.128-.648-1.128h-.386v.543c0 0 .021.648-.637.648-.658 0-1.097 0-1.097 0 0 0-.616-.01-.616.596 0 .606 0 1 0 1 0 0-.094.606 1.118.606m.61-.35c-.11 0-.199-.089-.199-.199 0-.11.089-.199.199-.199.11 0 .199.089.199.199 0 .11-.089.199-.199.199" fill="url(#1A)"/></g><g transform="matrix(.04997 0 0 .04916 76.7 51.25)"><use xlink:href="#c" width="195.52" height="98.68"/><use xlink:href="#g" width="195.52" height="98.68"/><use xlink:href="#d" width="195.52" height="98.68"/></g><g color="#000"><use xlink:href="#h" width="195.52" height="98.68" transform="matrix(.04136 0 0 .04136 103.38 42.21)" fill="url(#1C)"/><use xlink:href="#e" width="195.52" height="98.68" transform="matrix(.04136 0 0 .04136 103.38 42.21)" fill="url(#16)"/></g><g font-family="Yanone Kaffeesatz" word-spacing="0" line-height="125%" letter-spacing="0"><text x="102.75" y="64.52" font-size="4.838"><tspan x="102.75" y="64.52">netinfo.py</tspan></text><g font-size="2.103"><text y="51.28" x="105.24"><tspan y="51.28" x="105.24">python-ethtool</tspan></text><text y="55.734" x="105.28"><tspan y="55.734" x="105.28">sysfs</tspan></text></g></g><path d="m105.36 52.902c-.046-.134.025-.28.159-.326l1.589-.547c.134-.046.28.025.326.159l.319.928c.046.134-.025.28-.159.326l-1.589.547c-.134.046-.28-.025-.326-.159l-.319-.928" fill="#7c858c"/><path d="m105.33 52.819c-.046-.134.025-.28.159-.326l1.589-.547c.134-.046.28.025.326.159l.319.928c.046.134-.025.28-.159.326l-1.589.547c-.134.046-.28-.025-.326-.159l-.319-.928" fill="url(#1m)"/><path d="m106.43 53.673l.099-.034.048.139-.099.034-.048-.139m.184-.063l.099-.034.048.139-.099.034-.048-.139m.184-.063l.099-.034.048.139-.099.034-.048-.139m.184-.063l.099-.034.048.139-.099.034-.048-.139m.184-.063l.099-.034.048.139-.099.034-.048-.139m-.918.316l.099-.034.048.139-.099.034-.048-.139" opacity=".7" fill="url(#1l)" fill-rule="evenodd"/><path d="m105.3 52.776c-.046-.134.025-.28.159-.326l1.622-.558c.134-.046.28.025.326.159l.306.889c.046.134-.025.28-.159.326l-1.622.558c-.134.046-.28-.025-.326-.159l-.306-.889" fill="url(#1k)"/><use xlink:href="#0" width="195.52" height="98.68" transform="matrix(.00733 0 0 .00733 105.28 51.864)"/><path d="m105.32 52.767c-.045-.13.024-.272.155-.317l1.587-.546c.13-.045.272.024.317.155l.284.826c.045.13-.024.272-.155.317l-1.587.546c-.13.045-.272-.024-.317-.155l-.284-.826" opacity=".9" fill="url(#1j)"/><g transform="matrix(.00733 0 0 .00733 105.28 51.864)"><use xlink:href="#1" width="195.52" height="98.68"/><use xlink:href="#f" width="195.52" height="98.68" fill="url(#1E)"/></g><use height="98.68" width="195.52" xlink:href="#f" transform="matrix(.00733 0 0 .00733 105.19 51.835)" fill="#3c857c"/><g transform="matrix(.00733 0 0 .00733 105.28 51.864)"><use xlink:href="#2" width="195.52" height="98.68"/><use xlink:href="#3" width="195.52" height="98.68"/><use xlink:href="#4" width="195.52" height="98.68"/></g><ellipse ry="2.142" rx="4.428" cy="163.33" cx="50.867" transform="matrix(-.00693.00239-.00239-.00693 106.4 54.07)" fill="#ffe600"/><g transform="matrix(.00733 0 0 .00733 105.28 51.864)"><use xlink:href="#5" width="195.52" height="98.68"/><use xlink:href="#6" width="195.52" height="98.68"/><use xlink:href="#7" width="195.52" height="98.68"/></g><ellipse ry="2.142" rx="4.428" cy="151.52" cx="85.15" transform="matrix(-.00693.00239-.00239-.00693 106.86 53.822)" fill="#ffe600"/><g transform="matrix(.00733 0 0 .00733 105.28 51.864)"><use xlink:href="#8" width="195.52" height="98.68"/><use xlink:href="#9" width="195.52" height="98.68"/><use xlink:href="#A" width="195.52" height="98.68"/></g><ellipse ry="2.142" rx="4.428" cy="139.72" cx="119.43" transform="matrix(-.00693.00239-.00239-.00693 107.32 53.57)" fill="#ffe600"/><g transform="matrix(.00733 0 0 .00733 105.28 51.864)"><use xlink:href="#B" width="195.52" height="98.68"/><use xlink:href="#C" width="195.52" height="98.68"/><use xlink:href="#D" width="195.52" height="98.68"/></g><ellipse ry="2.142" rx="4.428" cy="177.99" cx="75.36" transform="matrix(-.00693.00239-.00239-.00693 106.78 54.22)" fill="#ffe600"/><g transform="matrix(.00733 0 0 .00733 105.28 51.864)"><use xlink:href="#E" width="195.52" height="98.68"/><use xlink:href="#F" width="195.52" height="98.68"/><use xlink:href="#G" width="195.52" height="98.68"/></g><ellipse ry="2.142" rx="4.428" cy="166.18" cx="109.64" transform="matrix(-.00693.00239-.00239-.00693 107.24 53.972)" fill="#ffe600"/><g transform="matrix(.00733 0 0 .00733 105.28 51.864)"><use xlink:href="#H" width="195.52" height="98.68"/><use xlink:href="#I" width="195.52" height="98.68"/><use xlink:href="#J" width="195.52" height="98.68"/></g><ellipse ry="2.142" rx="4.429" cy="154.38" cx="143.93" transform="matrix(-.00693.00239-.00239-.00693 107.7 53.722)" fill="#ffe600"/><path d="m105.98 52.32l1.096-.377c.115-.04.24.022.279.136l.292.847c.04.115-.022.24-.136.279l-.762.262-.768-1.148" fill="url(#1i)"/><path d="m105.99 52.34l1.093-.376c.098-.034.205.018.238.116l.292.849c.034.098-.018.205-.116.238l-.775.267-.732-1.094" fill="url(#1h)"/><use xlink:href="#K" width="195.52" height="98.68" transform="matrix(.00733 0 0 .00733 105.28 51.864)"/><path d="m108.13 52.56h-.185l-.047.187c-.011.043-.025.104-.032.152-.006-.049-.02-.11-.031-.152l-.046-.187h-.186l.177.51h.172l.177-.51m.23-.123c0-.05-.042-.085-.102-.085-.057 0-.1.035-.1.085 0 .053.043.086.1.086.06 0 .102-.033.102-.086m-.015.633v-.51h-.175v.51h.175m.43-.499c-.02-.013-.046-.021-.083-.021-.045 0-.079.018-.109.048v-.037h-.175v.51h.175v-.278c0-.062.026-.083.069-.083.034 0 .059.018.082.043l.041-.182m.388.334c-.027.018-.047.027-.07.027-.029 0-.044-.012-.044-.051v-.185h.111v-.137h-.111v-.198l-.17.069v.129h-.078v.137h.078v.221c0 .116.043.162.135.162.049 0 .092-.011.126-.027l.022-.149" fill="url(#1g)" fill-rule="evenodd"/><path d="m127.05 43.547c17.233 36.62 72.865 128.91 102.86 168.29-2.858 14.11-18.673 23.308-29.809 18.791l-115.34-166.6c-.07-12.347 22.06-27.27 42.29-20.477" mask="url(#w)" transform="matrix(.00733 0 0 .00733 105.27 51.864)" fill="#25514b" filter="url(#j)"/><use xlink:href="#L" width="195.52" height="98.68" transform="matrix(.00733 0 0 .00733 105.28 51.864)"/><path d="m106.87 53.612c-.021.013-.065.138-.044.168.032.045.24-.112.223-.155-.017-.045-.16-.019-.179-.012m-.098-.073l.025.037c0 0 .007.01.002.032-.008.035-.038.124-.043.199-.001.009-.013.09.073.07.086-.02.268-.159.306-.223.038-.063-.006-.101-.061-.106-.055-.005-.14-.003-.179.001-.039.005-.036-.008-.068-.044-.002-.003-.054.034-.054.034" fill="url(#1f)" fill-rule="evenodd"/><path d="m214.78 227.85c-2.797 3.296-6.24 5.845-9.926 7.474.432-2.596-.374-3.792-.374-3.792l-3.368-5.02c0 0 7.083-5.01 7.41-4.647 3.294 3.624 3.879 5.527 6.258 5.983" transform="matrix(.01048.00039-.00037.00947 104.71 51.29)" mask="url(#y)" fill="#54575a" filter="url(#k)"/><g transform="matrix(.00733 0 0 .00733 105.28 51.864)"><use xlink:href="#M" width="195.52" height="98.68"/><use xlink:href="#N" width="195.52" height="98.68"/></g><path d="m192.12 225.88l-118.58-171.19c3.174-9.06 16.868-17.988 30.23-18.875 22.16 44.22 78.16 134.39 111.83 178.22-5.194 8.137-14.62 12.648-23.471 11.846" mask="url(#u)" transform="matrix(.00733 0 0 .00733 105.28 51.923)" fill="#c8c7c5" filter="url(#i)"/><path d="m106.77 53.56l-.906-1.308c.026-.023.06-.042.096-.055.051.092.185.327.398.649.166.251.338.499.47.674-.017.017-.037.03-.059.04m-.026.009c-.01.003-.021.005-.031.005l-.886-1.28c.005-.008.011-.016.018-.024l.899 1.298" fill="url(#1e)" fill-rule="evenodd"/><g transform="matrix(.00733 0 0 .00733 105.28 51.864)"><use height="98.68" width="195.52" xlink:href="#O"/><use height="98.68" width="195.52" xlink:href="#P"/><use height="98.68" width="195.52" xlink:href="#Q"/></g><path d="m108.31 53.18v-.028h-.111v.028h.041v.115h.029v-.115h.041" fill="#005f6a" fill-rule="evenodd"/><g transform="matrix(.00733 0 0 .00733 105.28 51.864)"><use height="98.68" width="195.52" xlink:href="#R"/><use height="98.68" width="195.52" xlink:href="#S"/></g><path d="m108.65 53.3h.101v-.028h-.072v-.115h-.029z" fill="#005f6a" fill-rule="evenodd"/><g transform="matrix(.00733 0 0 .00733 105.28 51.864)"><use height="98.68" width="195.52" xlink:href="#T"/><use height="98.68" width="195.52" xlink:href="#U"/><use height="98.68" width="195.52" xlink:href="#V"/></g><path d="m109.25 53.18v-.028h-.111v.028h.041v.115h.029v-.115h.041" fill="#005f6a" fill-rule="evenodd"/><g transform="matrix(.00733 0 0 .00733 105.28 51.864)"><use height="98.68" width="195.52" xlink:href="#W"/><use height="98.68" width="195.52" xlink:href="#X"/><use height="98.68" width="195.52" xlink:href="#Y"/><use height="98.68" width="195.52" xlink:href="#Z"/><use height="98.68" width="195.52" xlink:href="#a"/><use height="98.68" width="195.52" xlink:href="#b"/></g><text font-size="2.103" letter-spacing="0" line-height="125%" word-spacing="0" x="105.27" y="57.944" font-family="Yanone Kaffeesatz"><tspan x="105.27" y="57.944">procfs</tspan></text><path d="m109.95 36.75v4.52h.99l-1.414 2.153-1.501-2.153h.955v-4.52z" fill="url(#1d)" stroke="#000" stroke-width=".397"/><g transform="translate(21.02-10.23)"><g fill-rule="evenodd"><path d="m151.58 14.276l-4.391 3.535-9.287 3.659 4.768-4.458 8.909-2.735z" fill="#b1883f" stroke="#746137" stroke-linejoin="round" stroke-width=".65"/><path d="m169.57588 33.93724a16.6157 6.447573 0 1 1 -33.23085 0 16.6157 6.447573 0 1 1 33.23085 0" fill="url(#1F)" color="#000"/></g><g stroke="#746137" stroke-linejoin="round" stroke-linecap="square" stroke-width=".65"><g fill="#c7a465"><path d="m155.31 20.16l-12.635-3.02-.085 16.15 12.719 3.02v-16.15z"/><path d="m155.56 20.15l9.12-2.74.058 15.869-9.152 2.96-.024-16.09z"/></g><path d="m152.01 14.158l12.806 3.065-9.427 2.755-12.797-2.963 9.418-2.858z" fill="#82642f"/></g><g fill-rule="evenodd"><g fill="url(#1G)"><path d="m154.96 20.372v8.383c-2.132 2.156-12.07-13.968-11.948 1.08l.005-12.317 11.943 2.854" opacity=".812"/><path d="m155.9 20.365v8.382c2.995-12.303 8.636-7.921 8.406-10.911l-8.406 2.529" opacity=".812"/></g><path d="m159.58 26.25s-4.071-5.956-4.071-5.956l9.561-2.874c0 0 3.285 5.709 3.285 5.709 0 0-8.777 3.122-8.777 3.122z" fill="#b1883f" stroke="#746137" stroke-linejoin="round" stroke-width=".65"/><path d="m163.89 17.411s-11.959-2.76-11.959-2.76l-7.766 2.381c9.269 2.927 11.594-1 19.722.379" fill="url(#1H)"/></g><g color="#000"><path d="m148.64 20.375c-2.637-.604-2.475.878-2.475.878 0 0-.002 1.493-.002 1.493 0 0 2.508.584 2.508.584 0 0-.002.448-.002.448 0 0-3.498-.816-3.498-.816 0 0-1.668-.629-1.668 2.695 0 3.303 1.447 3.535 1.447 3.535 0 0 .866.209.866.209 0 0 .004-1.534.004-1.534 0 0-.043-1.847 1.441-1.495 1.489.353 2.486.589 2.486.589 0 0 1.403.361 1.416-1.372.013-1.738.022-2.878.022-2.878 0 0 .228-1.7-2.544-2.336m-1.392.689c.25.058.451.36.45.676-.001.316-.204.524-.454.467-.25-.058-.45-.36-.449-.676.001-.316.204-.525.453-.468" fill="url(#1I)"/><path d="m148.65 33.33c2.618.642 2.465-.817 2.465-.817 0 0 .009-1.475.009-1.475 0 0-2.506-.605-2.506-.605 0 0 .002-.442.002-.442 0 0 3.506.845 3.506.845 0 0 1.691.647 1.725-2.689.034-3.359-1.455-3.587-1.455-3.587 0 0-.885-.206-.885-.206 0 0-.012 1.557-.012 1.557 0 0 .033 1.863-1.465 1.507-1.493-.355-2.487-.591-2.487-.591 0 0-1.39-.359-1.395 1.359-.005 1.711-.007 2.827-.007 2.827 0 0-.214 1.651 2.505 2.318m1.382-.65c-.249-.061-.448-.361-.447-.671.002-.311.205-.513.454-.453.249.06.449.361.447.672-.002.311-.205.513-.454.452" fill="url(#1J)"/></g><text x="142.93" y="41.34" word-spacing="0" line-height="125%" letter-spacing="0" font-size="4.839" font-family="Yanone Kaffeesatz"><tspan x="142.93" y="41.34">Configurators</tspan></text></g><path d="m116.41 26.57h23.635v-.993l2.053 1.418-2.053 1.505v-.958h-23.635z" fill="url(#1c)" stroke="#000" stroke-width=".389"/><g transform="matrix(.04997 0 0 .04916 77.19 22.639)"><use xlink:href="#c" width="195.52" height="98.68"/><use xlink:href="#g" width="195.52" height="98.68"/><use xlink:href="#d" width="195.52" height="98.68"/></g><g color="#000"><use transform="matrix(.04136 0 0 .04136 103.86 13.598)" xlink:href="#h" width="195.52" height="98.68" fill="url(#1C)"/><use transform="matrix(.04136 0 0 .04136 103.86 13.598)" xlink:href="#e" width="195.52" height="98.68" fill="url(#16)"/></g><g font-family="Yanone Kaffeesatz" word-spacing="0" line-height="125%" letter-spacing="0"><text y="35.908" x="97.65" font-size="4.838"><tspan y="35.908" x="97.65">configNetwork.py</tspan></text><text font-size="2.54" y="23.06" x="106.01"><tspan y="23.06" x="106.01">initscripts</tspan></text></g><path d="m106.18 25.452c-.054-.158.029-.33.187-.384l1.87-.644c.158-.054.33.03.384.187l.376 1.092c.054.158-.029.33-.187.384l-1.87.644c-.158.054-.33-.03-.384-.187l-.376-1.092" fill="#7c858c"/><path d="m106.15 25.354c-.054-.158.029-.33.187-.384l1.87-.644c.158-.054.33.03.384.187l.376 1.092c.054.158-.029.33-.187.384l-1.87.644c-.158.054-.33-.03-.384-.187l-.376-1.092" fill="url(#1K)"/><path d="m107.44 26.36l.117-.04.056.163-.117.04-.056-.163m.216-.074l.117-.04.056.163-.117.04-.056-.163m.216-.074l.117-.04.056.163-.117.04-.056-.163m.216-.074l.117-.04.056.163-.117.04-.056-.163m.216-.074l.117-.04.056.163-.117.04-.056-.163m-1.081.372l.117-.04.056.163-.117.04-.056-.163" opacity=".7" fill="url(#1L)" fill-rule="evenodd"/><path d="m106.11 25.304c-.054-.158.029-.33.187-.384l1.909-.657c.158-.054.33.03.384.187l.36 1.046c.054.158-.029.33-.187.384l-1.909.657c-.158.054-.33-.03-.384-.187l-.36-1.046" fill="url(#1M)"/><path d="m106.11 25.288c-.054-.158.029-.33.187-.384l1.909-.657c.158-.054.33.03.384.187l.36 1.046c.054.158-.029.33-.187.384l-1.909.657c-.158.054-.33-.03-.384-.187l-.36-1.046" id="0" fill="#7c858c"/><path d="m106.14 25.293c-.053-.153.029-.32.182-.373l1.868-.643c.153-.053.32.029.373.182l.335.972c.053.153-.029.32-.182.373l-1.868.643c-.153.053-.32-.029-.373-.182l-.335-.972" opacity=".9" fill="url(#1N)"/><path d="m106.15 25.298c-.051-.149.028-.311.177-.362l1.863-.642c.149-.051.311.028.362.177l.343.997c.051.149-.028.311-.177.362l-1.863.642c-.149.051-.311-.028-.362-.177l-.343-.997" id="1" fill="#3e3e3e"/><use transform="matrix(.00863 0 0 .00863 106.09 24.23)" xlink:href="#f" width="195.52" height="98.68" fill="url(#1E)"/><use transform="matrix(.00863 0 0 .00863 105.99 24.2)" height="98.68" width="195.52" xlink:href="#f" fill="#3c857c"/><path d="m106.35 25.11c-.015-.066.022-.081.023-.081.012-.004.053-.013.063.015.009.026-.039.067-.083.082-.043.015-.108.012-.116-.014-.01-.028.029-.047.04-.051.001 0 .037-.019.068.05.001.003.005.001.004-.002" id="2" fill="#ffe600" fill-rule="evenodd"/><path d="m106.37 25.562c.063.147.149.244.206.225.057-.02.065-.15.024-.304-.003-.029-.008-.082-.002-.113.004-.023-.001-.029-.019-.009-.005.006-.01.012-.013.017-.063-.161-.157-.271-.217-.251-.06.021-.066.165-.017.331-.006-.003-.013-.004-.021-.006-.026-.005-.026.004-.009.019.023.021.053.066.068.091" id="3"/><path d="m106.35 25.434c.047.138.128.235.179.217.052-.018.055-.144.007-.282-.047-.138-.128-.235-.179-.217-.052.018-.055.144-.007.282m.2.246c.005.013.013.023.019.021.006-.002.007-.015.002-.028-.005-.013-.013-.023-.019-.021-.006.002-.007.015-.002.028m-.041.014c.005.013.013.023.019.021.006-.002.007-.015.002-.028-.005-.013-.013-.023-.019-.021-.006.002-.007.015-.002.028" id="4" fill="#fff" fill-rule="evenodd"/><ellipse transform="matrix(-.00816.00281-.00281-.00816 107.4 26.829)" cx="50.867" cy="163.33" rx="4.428" ry="2.142" fill="#ffe600"/><path d="m106.64 25.01c-.015-.066.022-.081.023-.081.012-.004.053-.013.063.015.009.026-.039.067-.083.082-.043.015-.108.012-.116-.014-.01-.028.029-.047.04-.051.001 0 .037-.019.068.05.001.003.005.001.004-.002" id="5" fill="#ffe600" fill-rule="evenodd"/><path d="m106.67 25.46c.063.147.149.244.206.225.057-.02.065-.15.024-.304-.003-.029-.008-.082-.002-.113.004-.023-.001-.029-.019-.009-.005.006-.01.012-.013.017-.063-.161-.157-.271-.217-.251-.06.021-.066.165-.017.331-.006-.003-.013-.004-.021-.006-.026-.005-.026.004-.009.019.023.021.053.066.068.091" id="6"/><path d="m106.65 25.332c.047.138.128.235.179.217.052-.018.055-.144.007-.282-.047-.138-.128-.235-.179-.217-.052.018-.055.144-.007.282m.2.246c.005.013.013.023.019.021.006-.002.007-.015.002-.028-.005-.013-.013-.023-.019-.021-.006.002-.007.015-.002.028m-.041.014c.005.013.013.023.019.021.006-.002.007-.015.002-.028-.005-.013-.013-.023-.019-.021-.006.002-.007.015-.002.028" id="7" fill="#fff" fill-rule="evenodd"/><ellipse transform="matrix(-.00816.00281-.00281-.00816 107.95 26.535)" cx="85.15" cy="151.52" rx="4.428" ry="2.142" fill="#ffe600"/><path d="m106.94 24.907c-.015-.066.022-.081.023-.081.012-.004.053-.013.063.015.009.026-.039.067-.083.082-.043.015-.108.012-.116-.014-.01-.028.029-.047.04-.051.001 0 .037-.019.068.05.001.003.005.001.004-.002" id="8" fill="#ffe600" fill-rule="evenodd"/><path d="m106.97 25.358c.063.147.149.244.206.225.057-.02.065-.15.024-.304-.003-.029-.008-.082-.002-.113.004-.023-.001-.029-.019-.009-.005.006-.01.012-.013.017-.063-.161-.157-.271-.217-.251-.06.021-.066.165-.017.331-.006-.003-.013-.004-.021-.006-.026-.005-.026.004-.009.019.023.021.053.066.068.091" id="9"/><path d="m106.95 25.23c.047.138.128.235.179.217.052-.018.055-.144.007-.282-.047-.138-.128-.235-.179-.217-.052.018-.055.144-.007.282m.2.246c.005.013.013.023.019.021.006-.002.007-.015.002-.028-.005-.013-.013-.023-.019-.021-.006.002-.007.015-.002.028m-.041.014c.005.013.013.023.019.021.006-.002.007-.015.002-.028-.005-.013-.013-.023-.019-.021-.006.002-.007.015-.002.028" id="A" fill="#fff" fill-rule="evenodd"/><ellipse transform="matrix(-.00816.00281-.00281-.00816 108.49 26.24)" cx="119.43" cy="139.72" rx="4.428" ry="2.142" fill="#ffe600"/><path d="m106.92 26.292c.029.062.067.05.068.05.012-.004.05-.022.04-.051-.009-.026-.072-.029-.116-.014-.043.015-.092.057-.083.083.01.028.051.019.063.015.001 0 .041-.008.023-.081-.001-.003.003-.003.004-.002" id="B" fill="#ffe600" fill-rule="evenodd"/><path d="m106.67 25.922c-.041-.155-.033-.285.024-.304.057-.02.144.078.206.225.015.024.044.07.068.091.017.015.017.024-.009.019-.008-.001-.015-.003-.021-.006.049.166.044.31-.017.331-.06.021-.154-.089-.217-.251-.003.006-.008.011-.013.017-.018.02-.023.013-.019-.009.005-.031.001-.085-.002-.113" id="C"/><path d="m106.73 26.03c-.047-.138-.044-.264.007-.282.052-.018.132.08.179.217.047.138.044.264-.007.282-.052.018-.132-.08-.179-.217m.006-.317c-.005-.013-.004-.026.002-.028.006-.002.014.007.019.021.005.013.004.026-.002.028-.006.002-.014-.007-.019-.021m-.041.014c-.005-.013-.004-.026.002-.028.006-.002.014.007.019.021.005.013.004.026-.002.028-.006.002-.014-.007-.019-.021" id="D" fill="#fff" fill-rule="evenodd"/><ellipse transform="matrix(-.00816.00281-.00281-.00816 107.86 27.01)" cx="75.36" cy="177.99" rx="4.428" ry="2.142" fill="#ffe600"/><path d="m107.22 26.19c.029.062.067.05.068.05.012-.004.05-.022.04-.051-.009-.026-.072-.029-.116-.014-.043.015-.092.057-.083.083.01.028.051.019.063.015.001 0 .041-.008.023-.081-.001-.003.003-.004.004-.002" id="E" fill="#ffe600" fill-rule="evenodd"/><path d="m106.96 25.82c-.041-.155-.033-.285.024-.304.057-.02.144.078.206.225.015.024.044.07.068.091.017.015.017.024-.009.019-.008-.001-.015-.003-.021-.006.049.166.044.31-.017.331-.06.021-.154-.089-.217-.251-.003.006-.008.011-.013.017-.018.02-.023.013-.019-.009.005-.031.001-.085-.002-.113" id="F"/><path d="m107.02 25.933c-.047-.138-.044-.264.007-.282.052-.018.132.08.179.217.047.138.044.264-.007.282-.052.018-.132-.08-.179-.217m.006-.317c-.005-.013-.004-.026.002-.028.006-.002.014.007.019.021.005.013.004.026-.002.028-.006.002-.014-.007-.019-.021m-.041.014c-.005-.013-.004-.026.002-.028.006-.002.014.007.019.021.005.013.004.026-.002.028-.006.002-.014-.007-.019-.021" id="G" fill="#fff" fill-rule="evenodd"/><ellipse transform="matrix(-.00816.00281-.00281-.00816 108.4 26.712)" cx="109.64" cy="166.18" rx="4.428" ry="2.142" fill="#ffe600"/><path d="m107.52 26.09c.029.062.067.05.068.05.012-.004.05-.022.04-.051-.009-.026-.072-.029-.116-.014-.043.015-.092.057-.083.083.01.028.051.019.063.015.001 0 .041-.008.023-.081-.001-.003.003-.003.004-.002" id="H" fill="#ffe600" fill-rule="evenodd"/><path d="m107.26 25.719c-.041-.155-.033-.285.024-.304.057-.02.144.078.206.225.015.024.044.07.068.091.017.015.017.024-.009.019-.008-.001-.015-.003-.021-.006.049.166.044.31-.017.331-.06.021-.154-.089-.217-.251-.003.006-.008.011-.013.017-.018.02-.023.013-.019-.009.005-.031.001-.085-.002-.113" id="I"/><path d="m107.32 25.831c-.047-.138-.044-.264.007-.282.052-.018.132.08.179.217.047.138.044.264-.007.282-.052.018-.132-.08-.179-.217m.006-.317c-.005-.013-.004-.026.002-.028.006-.002.014.007.019.021.005.013.004.026-.002.028-.006.002-.014-.007-.019-.021m-.041.014c-.005-.013-.004-.026.002-.028.006-.002.014.007.019.021.005.013.004.026-.002.028-.006.002-.014-.007-.019-.021" id="J" fill="#fff" fill-rule="evenodd"/><ellipse transform="matrix(-.00816.00281-.00281-.00816 108.94 26.418)" cx="143.93" cy="154.38" rx="4.429" ry="2.142" fill="#ffe600"/><path d="m106.91 24.763l1.29-.444c.135-.047.283.025.329.161l.343.997c.046.135-.025.283-.16.329l-.897.309-.905-1.352" fill="url(#1O)"/><path d="m106.93 24.791l1.287-.443c.115-.04.241.022.281.137l.344.999c.04.115-.022.241-.137.281l-.912.314-.862-1.288" fill="url(#1P)"/><path d="m108.59 25.35c0 .112-.022.138-.064.138-.032 0-.053-.011-.074-.029v-.23c.022-.017.043-.029.073-.029.043 0 .065.029.065.149m.204-.007c0-.223-.087-.311-.2-.311-.063 0-.101.023-.142.055v-.276l-.206.082v.751h.206v-.04c.033.025.074.053.134.053.132 0 .208-.099.208-.314m-.636.302v-.6h-.206v.6h.206m.017-.746c0-.058-.049-.099-.12-.099-.067 0-.118.041-.118.099 0 .063.05.102.118.102.071 0 .12-.039.12-.102m-.337.746v-.834l-.206.082v.751h.206" id="K" fill="#fff" fill-rule="evenodd"/><path d="m109.45 25.05h-.217l-.055.221c-.013.05-.03.122-.038.18-.007-.057-.024-.129-.037-.18l-.054-.221h-.218l.208.6h.202l.208-.6m.271-.145c0-.058-.049-.099-.12-.099-.067 0-.118.041-.118.099 0 .063.05.102.118.102.071 0 .12-.039.12-.102m-.017.746v-.6h-.206v.6h.206m.506-.588c-.024-.015-.054-.025-.097-.025-.053 0-.093.022-.128.056v-.043h-.206v.6h.206v-.327c0-.073.031-.097.081-.097.04 0 .07.022.096.05l.048-.214m.457.393c-.032.022-.055.032-.082.032-.034 0-.052-.014-.052-.059v-.217h.13v-.161h-.13v-.233l-.2.081v.152h-.091v.161h.091v.261c0 .136.05.191.159.191.058 0 .109-.013.149-.032l.026-.175" fill="url(#1Q)" fill-rule="evenodd"/><path transform="matrix(.00863 0 0 .00863 106.07 24.23)" mask="url(#z)" d="m127.05 43.547c17.233 36.62 72.865 128.91 102.86 168.29-2.858 14.11-18.673 23.308-29.809 18.791l-115.34-166.6c-.07-12.347 22.06-27.27 42.29-20.477" fill="#25514b" filter="url(#j)"/><path d="m107.97 26.311c-.025.016-.077.162-.052.197.037.053.282-.131.262-.183-.02-.053-.189-.023-.211-.014m-.124-.084l.029.043c0 0 .008.012.002.038-.009.041-.045.146-.05.234-.001.011-.016.106.086.082.101-.023.316-.188.36-.262.044-.075-.007-.119-.072-.125-.065-.006-.165-.004-.211.002-.046.005-.043-.01-.081-.052-.003-.003-.064.04-.064.04" id="L" fill="#3e3e3e" fill-rule="evenodd"/><path d="m107.96 26.288c-.025.016-.077.162-.052.197.037.053.282-.131.262-.183-.02-.053-.189-.023-.211-.014m-.116-.086l.029.043c0 0 .008.012.002.038-.009.041-.045.146-.05.234-.001.011-.016.106.086.082.101-.023.316-.188.36-.262.044-.075-.007-.119-.072-.125-.065-.006-.165-.004-.211.002-.046.005-.043-.01-.081-.052-.003-.003-.064.04-.064.04" fill="url(#1R)" fill-rule="evenodd"/><path mask="url(#x)" transform="matrix(.01234.00046-.00044.01115 105.42 23.55)" d="m214.78 227.85c-2.797 3.296-6.24 5.845-9.926 7.474.432-2.596-.374-3.792-.374-3.792l-3.368-5.02c0 0 7.083-5.01 7.41-4.647 3.294 3.624 3.879 5.527 6.258 5.983" fill="#54575a" filter="url(#k)"/><path d="m107.09 24.623c.149.316.629 1.112.888 1.452-.025.122-.161.201-.257.162l-.995-1.438c-.001-.107.19-.235.365-.177" id="M" fill="#c8c7c5"/><path d="m107.07 24.615c.149.316.65 1.136.909 1.476-.035.117-.159.18-.261.151l-.995-1.438c-.001-.107.198-.23.348-.189" id="N" fill="#7c858c"/><path transform="matrix(.00863 0 0 .00863 106.09 24.299)" mask="url(#v)" d="m192.12 225.88l-118.58-171.19c3.174-9.06 16.868-17.988 30.23-18.875 22.16 44.22 78.16 134.39 111.83 178.22-5.194 8.137-14.62 12.648-23.471 11.846" fill="#c8c7c5" filter="url(#i)"/><path d="m107.85 26.23l-1.066-1.54c.031-.027.07-.049.113-.065.06.108.218.385.469.764.196.296.398.587.554.794-.02.02-.044.036-.07.047m-.031.011c-.012.003-.024.005-.036.006l-1.043-1.507c.006-.009.013-.019.022-.028l1.058 1.528" fill="url(#1S)" fill-rule="evenodd"/><path id="O" d="m109.23 25.748h-.037l-.031.098c-.003.01-.006.022-.008.028-.001-.006-.005-.018-.008-.028l-.032-.098h-.037l.06.169h.033l.06-.169" fill="#005f6a" fill-rule="evenodd"/><path id="P" d="m109.27 25.748h.034v.169h-.034z" fill="#005f6a" fill-rule="evenodd"/><path id="Q" d="m109.5 25.917l-.032-.066c.022-.009.032-.024.032-.05 0-.036-.026-.054-.058-.054h-.079v.169h.034v-.061h.034l.03.061h.039m-.035-.115c0 .015-.008.022-.024.022h-.044v-.044h.044c.015 0 .024.006.024.022" fill="#005f6a" fill-rule="evenodd"/><path d="m109.65 25.781v-.033h-.131v.033h.049v.136h.034v-.136z" fill="#005f6a" fill-rule="evenodd"/><path id="R" d="m109.83 25.843v-.094h-.034v.095c0 .027-.013.044-.035.044-.022 0-.034-.017-.034-.044v-.094h-.034v.095c0 .049.028.077.068.077.043 0 .069-.028.069-.077" fill="#005f6a" fill-rule="evenodd"/><path id="S" d="m110.02 25.917l-.064-.169h-.033l-.065.169h.036l.013-.038h.062l.013.038h.037m-.062-.07h-.039l.011-.031c.003-.01.007-.02.008-.026.002.006.005.016.008.026l.011.031" fill="#005f6a" fill-rule="evenodd"/><path d="m110.06 25.748v.169h.119v-.033h-.085v-.136z" fill="#005f6a" fill-rule="evenodd"/><path id="T" d="m110.22 25.748h.034v.169h-.034z" fill="#005f6a" fill-rule="evenodd"/><path id="U" d="m110.43 25.917v-.031h-.058c-.01 0-.028 0-.034 0 .004-.004.014-.015.019-.022l.072-.087v-.03h-.127v.031h.053c.01 0 .028 0 .034 0-.004.004-.014.015-.019.022l-.073.087v.03h.133" fill="#005f6a" fill-rule="evenodd"/><path id="V" d="m110.63 25.917l-.064-.169h-.033l-.065.169h.036l.013-.038h.062l.013.038h.037m-.062-.07h-.039l.011-.031c.003-.01.007-.02.008-.026.002.006.005.016.008.026l.011.031" fill="#005f6a" fill-rule="evenodd"/><path d="m110.76 25.781v-.033h-.131v.033h.049v.136h.034v-.136z" fill="#005f6a" fill-rule="evenodd"/><path id="W" d="m110.81 25.748h.034v.169h-.034z" fill="#005f6a" fill-rule="evenodd"/><path id="X" d="m111.03 25.833c0-.051-.027-.087-.073-.087-.046 0-.073.036-.073.087 0 .051.027.087.073.087.046 0 .073-.036.073-.087m-.035 0c0 .03-.011.054-.039.054-.027 0-.039-.023-.039-.054 0-.03.011-.054.039-.054.027 0 .039.023.039.054" fill="#005f6a" fill-rule="evenodd"/><path id="Y" d="m111.21 25.917v-.169h-.033v.072c0 .009 0 .031 0 .037-.002-.004-.008-.013-.012-.019l-.06-.089h-.032v.169h.033v-.074c0-.009 0-.031 0-.037.002.004.008.013.012.019l.062.092h.03" fill="#005f6a" fill-rule="evenodd"/><path id="Z" d="m111.49 25.917l-.064-.169h-.033l-.065.169h.036l.013-.038h.062l.013.038h.037m-.062-.07h-.039l.011-.031c.003-.01.007-.02.008-.026.002.006.005.016.008.026l.011.031" fill="#005f6a" fill-rule="evenodd"/><path id="a" d="m111.66 25.802c0-.036-.026-.054-.058-.054h-.074v.169h.034v-.06h.037c.035 0 .061-.016.061-.056m-.035.001c0 .015-.008.022-.024.022h-.039v-.044h.039c.015 0 .025.007.025.022" fill="#005f6a" fill-rule="evenodd"/><path id="b" d="m111.7 25.748h.034v.169h-.034z" fill="#005f6a" fill-rule="evenodd"/><g font-family="Yanone Kaffeesatz" word-spacing="0" line-height="125%" letter-spacing="0"><text font-size="2.539" y="29.27" x="105.95"><tspan y="29.27" x="105.95">sysfs</tspan></text><text font-size="4.839" x="155.56" y="57.21"><tspan x="155.56" y="57.21">netconfpersistence.py</tspan></text></g><g transform="matrix(.04997 0 0 .04916 138.3 43.948)"><use height="98.68" width="195.52" xlink:href="#c"/><use height="98.68" width="195.52" xlink:href="#g"/><use height="98.68" width="195.52" xlink:href="#d"/></g><g color="#000"><use height="98.68" width="195.52" xlink:href="#h" transform="matrix(.04136 0 0 .04136 164.99 34.908)" fill="url(#1C)"/><use height="98.68" width="195.52" xlink:href="#e" transform="matrix(.04136 0 0 .04136 164.99 34.908)" fill="url(#16)"/></g><g font-family="Yanone Kaffeesatz" word-spacing="0" line-height="125%" letter-spacing="0"><g font-size="2.103"><text y="45.978" x="166.86"><tspan y="45.978" x="166.86">json</tspan></text><text y="48.43" x="166.89"><tspan y="48.43" x="166.89">Filesystem</tspan></text><text y="55.73" x="110.74"><tspan y="55.73" x="110.74">libnl</tspan></text></g><text x="120.27" y="64.53" font-size="4.839"><tspan x="120.27" y="64.53">sourceRoute.py</tspan></text></g><g transform="matrix(.04997 0 0 .04916 98 51.27)"><use height="98.68" width="195.52" xlink:href="#c"/><use height="98.68" width="195.52" xlink:href="#g"/><use height="98.68" width="195.52" xlink:href="#d"/></g><g color="#000"><use xlink:href="#h" width="195.52" height="98.68" transform="matrix(.04136 0 0 .04136 124.68 42.23)" fill="url(#1C)"/><use xlink:href="#e" width="195.52" height="98.68" transform="matrix(.04136 0 0 .04136 124.68 42.23)" fill="url(#16)"/></g><g font-family="Yanone Kaffeesatz" word-spacing="0" line-height="125%" letter-spacing="0" font-size="2.103"><text y="53.3" x="126.55"><tspan y="53.3" x="126.55">iproute2</tspan></text><text y="55.75" x="126.58"><tspan y="55.75" x="126.58">python-inotify</tspan></text></g><rect y="1.655" x="96.63" height="90.85" width="96.58" rx="16.282" fill="none" stroke="#000" stroke-width="1.036"/><g font-family="Yanone Kaffeesatz" word-spacing="0" line-height="125%" letter-spacing="0"><text y="11.75" x="122.49" font-size="8.326"><tspan y="11.75" x="122.49">Networking</tspan></text><text x="126.01" y="86.91" font-size="4.839"><tspan x="126.01" y="86.91">netlink.py</tspan></text></g><g transform="matrix(.04997 0 0 .04916 99.88 73.65)"><use xlink:href="#c" width="195.52" height="98.68"/><use xlink:href="#g" width="195.52" height="98.68"/><use xlink:href="#d" width="195.52" height="98.68"/></g><g color="#000"><use height="98.68" width="195.52" xlink:href="#h" transform="matrix(.04136 0 0 .04136 126.57 64.6)" fill="url(#1C)"/><use height="98.68" width="195.52" xlink:href="#e" transform="matrix(.04136 0 0 .04136 126.57 64.6)" fill="url(#16)"/></g><g font-family="Yanone Kaffeesatz" word-spacing="0" line-height="125%" letter-spacing="0"><text x="128.44" y="75.68" font-size="2.103"><tspan x="128.44" y="75.68">iproute2</tspan></text><text x="100.86" y="86.91" font-size="4.839"><tspan x="100.86" y="86.91">ipwrapper.py</tspan></text></g><g transform="matrix(.04997 0 0 .04916 76.8 73.65)"><use xlink:href="#c" width="195.52" height="98.68"/><use xlink:href="#g" width="195.52" height="98.68"/><use xlink:href="#d" width="195.52" height="98.68"/></g><g color="#000"><use xlink:href="#h" width="195.52" height="98.68" transform="matrix(.04136 0 0 .04136 103.49 64.61)" fill="url(#1C)"/><use xlink:href="#e" width="195.52" height="98.68" transform="matrix(.04136 0 0 .04136 103.49 64.61)" fill="url(#16)"/></g><g font-family="Yanone Kaffeesatz" word-spacing="0" line-height="125%" letter-spacing="0" font-size="2.103"><text y="75.68" x="105.36"><tspan y="75.68" x="105.36">iproute2</tspan></text><text x="105.39" y="79.5"><tspan x="105.39" y="79.5">ethtool (ioctl)</tspan></text></g><g stroke="#000"><g stroke-width=".389"><path d="m115.9 71.52h9.997v-.993l2.053 1.418-2.053 1.505v-.958h-9.997z" fill="url(#1b)"/><path d="m174.74 32.29l-.011 2.889h.974l-1.418 2.053-1.505-2.053h.974l-.098-2.944z" fill="url(#1a)"/><path d="m139.08 27.54s0 16.727 0 16.771l24.923-.019v-.83l2 1.34-2 1.403v-.893l-25.897.052v-3.21-14.616z" fill="url(#1Z)"/></g><path d="m138.69 41.11l-3.196 3.196.7.7-2.522.522.461-2.583.675.675 3.196-3.196z" fill="url(#1Y)" stroke-width=".397"/></g><g transform="matrix(.04997 0 0 .04916 138.61 66.736)"><use xlink:href="#c" width="195.52" height="98.68"/><use xlink:href="#g" width="195.52" height="98.68"/><use xlink:href="#d" width="195.52" height="98.68"/></g><g color="#000"><use xlink:href="#h" width="195.52" height="98.68" transform="matrix(.04136 0 0 .04136 165.29 57.694)" fill="url(#1C)"/><use xlink:href="#e" width="195.52" height="98.68" transform="matrix(.04136 0 0 .04136 165.29 57.694)" fill="url(#16)"/></g><g font-family="Yanone Kaffeesatz" word-spacing="0" line-height="125%" letter-spacing="0"><text x="168.58" y="80" font-size="4.838"><tspan x="168.58" y="80">tc.py</tspan></text><text y="72.01" x="167.22" font-size="10.886"><tspan y="72.01" x="167.22" font-size="2.102">iproute2</tspan></text><text y="68.55" x="167.22" font-size="2.103"><tspan y="68.55" x="167.22">python-ethtool</tspan></text></g><g stroke="#000"><path d="m113.52 64.72v1.794h.99l-1.414 2.153-1.501-2.153h.955v-1.794z" fill="url(#1X)" stroke-width=".397"/><path d="m150.02 45.42s0 16.727 0 16.771l14.812-.019v-.83l2 1.34-2 1.403v-.893l-15.785.052v-3.21-14.616z" fill="url(#1W)" stroke-width=".389"/></g><g transform="matrix(.04997 0 0 .04916 116.64 20.57)"><use height="98.68" width="195.52" xlink:href="#c"/><use height="98.68" width="195.52" xlink:href="#g"/><use height="98.68" width="195.52" xlink:href="#d"/></g><g color="#000"><use height="98.68" width="195.52" xlink:href="#h" transform="matrix(.04136 0 0 .04136 143.32 11.529)" fill="url(#1T)"/><use height="98.68" width="195.52" xlink:href="#e" transform="matrix(.04136 0 0 .04136 143.32 11.529)" fill="url(#1U)"/></g><text font-size="4.838" letter-spacing="0" line-height="125%" word-spacing="0" x="141.11" y="32.418" font-family="Yanone Kaffeesatz"><tspan x="141.11" y="32.418">netmodels.py</tspan></text><path d="m156.33 21.445l2.793-.737-.252-.941 2.35.838-1.593 1.985-.252-.941-2.818.856z" fill="url(#1V)" stroke="#000" stroke-width=".389"/></svg>
