<svg xmlns="http://www.w3.org/2000/svg" xmlns:xlink="http://www.w3.org/1999/xlink" viewBox="0 0 767.94611 611.87829" width="100%" height="100%"><defs><path d="m99.75 67.47c-28.03 0-26.28 12.156-26.28 12.156l.031 12.594h26.75v3.781h-37.37c0 0-17.938-2.034-17.938 26.25 0 28.28 15.656 27.28 15.656 27.28h9.344v-13.12c0 0-.504-15.656 15.406-15.656 15.91 0 26.531 0 26.531 0 0 0 14.906.241 14.906-14.406 0-14.647 0-24.22 0-24.22 0 0 2.263-14.656-27.03-14.656m-14.75 8.469c2.661 0 4.813 2.151 4.813 4.813 0 2.661-2.151 4.813-4.813 4.813-2.661 0-4.813-2.151-4.813-4.813 0-2.661 2.151-4.813 4.813-4.813" id="v"/><path fill="#c8b7b7" d="m733.52-.152l38.08-52.4-132.55-75.16 89.55 121.26 4.923 6.302" id="w"/><path d="m10.414 122.67c-5.394-15.666 2.932-32.738 18.598-38.13l215.58-74.23c15.666-5.394 32.738 2.933 38.13 18.599l39.799 115.58c5.394 15.666-2.932 32.738-18.598 38.13l-215.58 74.22c-15.666 5.394-32.738-2.933-38.13-18.599l-39.798-115.58" id="x"/><path d="m100.55 177.31c28.03 0 26.28-12.156 26.28-12.156l-.031-12.594h-26.75v-3.781h37.38c0 0 17.938 2.034 17.938-26.25 0-28.28-15.656-27.28-15.656-27.28h-9.344v13.12c0 0 .504 15.656-15.406 15.656-15.91 0-26.531 0-26.531 0 0 0-14.906-.241-14.906 14.406 0 14.647 0 24.22 0 24.22 0 0-2.263 14.656 27.03 14.656m14.75-8.469c-2.661 0-4.813-2.151-4.813-4.813 0-2.661 2.151-4.813 4.813-4.813 2.661 0 4.813 2.151 4.813 4.813 0 2.661-2.151 4.813-4.813 4.813" id="y"/><path stroke-linecap="round" fill="#fff" stroke-width="13.398" stroke="#000" stroke-linejoin="round" d="m746.35-38.692l31.77-38.599-129.25-57.927 97.48 96.53z" id="z"/><path fill="#fff" stroke-width="13.398" stroke="#000" d="m565.13-138.12v290.88h212.75v-220.09l-132.69-70.781h-80.06z" id="10"/><filter color-interpolation-filters="sRGB" id="u"><feGaussianBlur stdDeviation="1.21543"/></filter><filter color-interpolation-filters="sRGB" height="1.363" y="-.181" width="1.357" x="-.179" id="s"><feGaussianBlur stdDeviation="1.01789"/></filter><filter color-interpolation-filters="sRGB" id="t"><feGaussianBlur stdDeviation="1.63458"/></filter><linearGradient xlink:href="#d" id="1I" gradientUnits="userSpaceOnUse" x1="578.43" y1="100.93" x2="604.49" y2="125.9"/><linearGradient xlink:href="#c" id="1H" gradientUnits="userSpaceOnUse" gradientTransform="matrix(6.79276 0 0 7.14412-7685.75-3014.14)" x1="1164.82" y1="440.93" x2="1164.84" y2="442.69"/><linearGradient xlink:href="#m" id="1G" gradientUnits="userSpaceOnUse" x1="77.79" y1="133.9" x2="78.41" y2="135.66"/><linearGradient xlink:href="#r" id="19" gradientUnits="userSpaceOnUse" y1="132.57" x2="0" y2="136.1"/><linearGradient xlink:href="#c" id="17" gradientUnits="userSpaceOnUse" gradientTransform="matrix(6.79276 0 0 7.14412-7743.24-2691.96)" x1="1164.82" y1="440.93" x2="1164.84" y2="442.69"/><linearGradient xlink:href="#d" id="1b" gradientUnits="userSpaceOnUse" x1="89.14" y1="111.92" x2="147.78" y2="168.1"/><linearGradient xlink:href="#o" id="1F" gradientUnits="userSpaceOnUse" x1="80.58" y1="135.49" x2="80.15" y2="134.23"/><linearGradient xlink:href="#q" id="1C" gradientUnits="userSpaceOnUse" x1="88.94" y1="125.3" x2="86.58" y2="118.59"/><linearGradient xlink:href="#e" id="1J" gradientUnits="userSpaceOnUse" x1="563.51" y1="85.45" x2="587.77" y2="109.78"/><linearGradient xlink:href="#d" id="1X" gradientUnits="userSpaceOnUse" x1="89.14" y1="111.92" x2="147.78" y2="168.1"/><linearGradient id="1K" gradientUnits="userSpaceOnUse" x1="605.36" y1="8.864" x2="610.86" y2="38.43"><stop stop-color="#b1883f"/><stop offset="1" stop-opacity="0" stop-color="#b1883f"/></linearGradient><linearGradient xlink:href="#e" id="1Y" gradientUnits="userSpaceOnUse" x1="55.55" y1="77.07" x2="110.15" y2="131.85"/><linearGradient xlink:href="#e" id="1a" gradientUnits="userSpaceOnUse" x1="55.55" y1="77.07" x2="110.15" y2="131.85"/><linearGradient id="1Z" gradientUnits="userSpaceOnUse" x1="110.77" y1="168.58" x2="145.47" y2="151.58"><stop stop-color="#005f61"/><stop offset="1"/></linearGradient><linearGradient xlink:href="#m" id="1W" gradientUnits="userSpaceOnUse" x1="70.787" y1="329.78" x2="71.31" y2="331.28"/><linearGradient id="1L" gradientUnits="userSpaceOnUse" x1="575.14" y1="-133.74" x2="571.73" y2="187.33"><stop stop-opacity=".668" stop-color="#fff"/><stop offset="1" stop-opacity="0" stop-color="#fff"/></linearGradient><linearGradient xlink:href="#o" id="1V" gradientUnits="userSpaceOnUse" x1="73.16" y1="331.14" x2="72.79" y2="330.06"/><linearGradient xlink:href="#c" id="1N" gradientUnits="userSpaceOnUse" x1="97.44" y1="196.45" x2="84.89" y2="196.59"/><linearGradient xlink:href="#q" id="1Q" gradientUnits="userSpaceOnUse" x1="84.87" y1="325.9" x2="84.91" y2="317.56"/><linearGradient xlink:href="#q" id="1S" gradientUnits="userSpaceOnUse" x1="80.26" y1="322.48" x2="78.25" y2="316.78"/><linearGradient xlink:href="#r" id="1P" gradientUnits="userSpaceOnUse" y1="328.65" x2="0" y2="331.66"/><linearGradient xlink:href="#q" id="1A" gradientUnits="userSpaceOnUse" x1="94.38" y1="129.33" x2="94.42" y2="119.51"/><linearGradient id="r"><stop stop-color="#fff"/><stop stop-color="#868686" offset="1"/></linearGradient><linearGradient id="o"><stop stop-color="#c8c7c5"/><stop stop-opacity="0" stop-color="#c8c7c5" offset="1"/></linearGradient><linearGradient id="q"><stop stop-color="#005f61"/><stop stop-color="#91c4b7" offset="1"/></linearGradient><linearGradient id="p"><stop stop-color="#91c4b7"/><stop stop-color="#005f61" offset="1"/></linearGradient><linearGradient id="n"><stop stop-color="#fff"/><stop stop-opacity="0" stop-color="#fff" offset="1"/></linearGradient><linearGradient id="m"><stop stop-color="#3e3e3e"/><stop stop-opacity="0" stop-color="#3e3e3e" offset="1"/></linearGradient><linearGradient id="c"><stop stop-color="#232323"/><stop stop-color="#474747" offset="1"/></linearGradient><linearGradient id="e"><stop stop-color="#387eb8"/><stop stop-color="#366994" offset="1"/></linearGradient><linearGradient id="d"><stop stop-color="#ffe052"/><stop stop-color="#ffc331" offset="1"/></linearGradient><linearGradient xlink:href="#c" id="16" gradientUnits="userSpaceOnUse" x1="639.3" y1="227.66" x2="626.73" y2="227.76"/><linearGradient xlink:href="#c" id="14" gradientUnits="userSpaceOnUse" x1="312.3" y1="231.29" x2="303.34" y2="222.54"/><linearGradient xlink:href="#c" id="12" gradientUnits="userSpaceOnUse" gradientTransform="matrix(0 6.79276-7.14412 0 3617.83-7504.34)" x1="1164.82" y1="440.93" x2="1164.84" y2="442.69"/><linearGradient xlink:href="#c" id="13" gradientUnits="userSpaceOnUse" x1="123.03" y1="385.43" x2="110.56" y2="385.5"/><linearGradient xlink:href="#c" id="11" gradientUnits="userSpaceOnUse" x1="501.66" y1="110.57" x2="501.76" y2="123.14"/><linearGradient xlink:href="#c" id="15" gradientUnits="userSpaceOnUse" gradientTransform="matrix(0 6.79276-7.14412 0 3513.47-7650.52)" x1="1164.82" y1="440.93" x2="1164.84" y2="442.69"/><mask id="j" maskUnits="userSpaceOnUse"><path fill="#2f6962" d="m95.11 61.776l149.48-51.47c15.666-5.394 32.738 2.933 38.13 18.599l39.799 115.58c5.394 15.666-2.932 32.738-18.598 38.13l-103.98 35.801-104.84-156.64"/></mask><mask id="g" maskUnits="userSpaceOnUse"><path fill="#2f6962" d="m95.11 61.776l149.48-51.47c15.666-5.394 32.738 2.933 38.13 18.599l39.799 115.58c5.394 15.666-2.932 32.738-18.598 38.13l-103.98 35.801-104.84-156.64"/></mask><mask id="i" maskUnits="userSpaceOnUse"><path fill-rule="evenodd" fill="#aaa" d="m213.97 236.84c-1.976 1.501-5.717 14.758-3.574 17.841 3.186 4.585 22.424-12.699 20.661-17.246-1.813-4.675-15.357-1.412-17.09-.594m-9.629-7.347l2.489 3.782c0 0 .69 1.044.296 3.403-.616 3.69-3.175 13.259-3.326 21.12-.018.95-.919 9.504 7.219 7.07 8.139-2.433 24.968-17.859 28.332-24.693 3.364-6.834-.965-10.639-6.216-10.987-5.251-.349-13.346.22-17.07.848-3.723.628-3.494-.758-6.677-4.351-.239-.27-5.05 3.805-5.05 3.805"/></mask><mask id="l" maskUnits="userSpaceOnUse"><path fill="#7c858c" d="m113.12 36.661c17.233 36.62 75.37 131.68 105.37 171.05-4.069 13.505-18.428 20.812-30.3 17.44l-115.34-166.6c-.07-12.347 22.899-26.599 40.27-21.894"/></mask><mask id="k" maskUnits="userSpaceOnUse"><path fill="#7c858c" d="m113.12 36.661c17.233 36.62 75.37 131.68 105.37 171.05-4.069 13.505-18.428 20.812-30.3 17.44l-115.34-166.6c-.07-12.347 22.899-26.599 40.27-21.894"/></mask><mask id="h" maskUnits="userSpaceOnUse"><path fill-rule="evenodd" fill="#aaa" d="m213.97 236.84c-1.976 1.501-5.717 14.758-3.574 17.841 3.186 4.585 22.424-12.699 20.661-17.246-1.813-4.675-15.357-1.412-17.09-.594m-9.629-7.347l2.489 3.782c0 0 .69 1.044.296 3.403-.616 3.69-3.175 13.259-3.326 21.12-.018.95-.919 9.504 7.219 7.07 8.139-2.433 24.968-17.859 28.332-24.693 3.364-6.834-.965-10.639-6.216-10.987-5.251-.349-13.346.22-17.07.848-3.723.628-3.494-.758-6.677-4.351-.239-.27-5.05 3.805-5.05 3.805"/></mask><radialGradient xlink:href="#n" id="18" gradientUnits="userSpaceOnUse" gradientTransform="matrix(.0827.00484-.00667.11392 67.779 111.11)" cx="143.6" cy="139.94" r="68.38"/><radialGradient r="61.17" gradientTransform="matrix(1.0178 0 0 .13108 127.26 37.24)" cx="-59.6" cy="522.12" gradientUnits="userSpaceOnUse" id="f"><stop stop-opacity=".208"/><stop offset="1" stop-opacity="0"/></radialGradient><radialGradient xlink:href="#p" id="1R" gradientUnits="userSpaceOnUse" gradientTransform="matrix(.08133-.0093.00929.08128 57.2 319.24)" cx="228.55" cy="-6.509" r="111.43"/><radialGradient xlink:href="#n" id="1D" gradientUnits="userSpaceOnUse" gradientTransform="matrix(.11573-.03978.01588.04618 62.62 125.88)" cx="135.64" cy="12" r="161.65"/><radialGradient xlink:href="#p" id="1B" gradientUnits="userSpaceOnUse" gradientTransform="matrix(.09576-.01095.01094.09569 61.802 121.49)" cx="228.55" cy="-6.509" r="111.43"/><radialGradient xlink:href="#n" id="1U" gradientUnits="userSpaceOnUse" gradientTransform="matrix(.0811-.00542.0048.07175 57.18 312.21)" cx="197.57" cy="252.72" r="166.51"/><radialGradient xlink:href="#f" id="1M" gradientUnits="userSpaceOnUse" gradientTransform="matrix(1.98218 0 0 .50805 731.72-113.63)" cx="-59.6" cy="522.12" r="61.17"/><radialGradient xlink:href="#n" id="1E" gradientUnits="userSpaceOnUse" gradientTransform="matrix(.09549-.00639.00565.08448 61.767 113.21)" cx="197.57" cy="252.72" r="166.51"/><radialGradient xlink:href="#n" id="1T" gradientUnits="userSpaceOnUse" gradientTransform="matrix(.09829-.03379.01348.03923 57.897 322.97)" cx="135.64" cy="12" r="161.65"/><radialGradient xlink:href="#n" id="1O" gradientUnits="userSpaceOnUse" gradientTransform="matrix(.07024.00411-.00567.09676 62.28 310.43)" cx="143.6" cy="139.94" r="68.38"/></defs><g transform="matrix(.35828 0 0 .35244-140.88 312.83)"><use xlink:href="#10" width="195.52" height="98.68"/><use xlink:href="#w" width="195.52" height="98.68"/><use xlink:href="#z" width="195.52" height="98.68"/></g><g color="#000"><use xlink:href="#v" width="195.52" height="98.68" transform="matrix(.29652 0 0 .29652 50.37 248.01)" fill="url(#1Y)"/><use xlink:href="#y" width="195.52" height="98.68" transform="matrix(.29652 0 0 .29652 50.37 248.01)" fill="url(#1X)"/></g><g font-family="Yanone Kaffeesatz" word-spacing="0" line-height="125%" letter-spacing="0"><text x="45.885" y="407.91" font-size="34.688"><tspan x="45.885" y="407.91">netinfo.py</tspan></text><g font-size="15.08"><text y="313.05" x="63.742"><tspan y="313.05" x="63.742">python-ethtool</tspan></text><text y="344.95" x="64.03"><tspan y="344.95" x="64.03">sysfs</tspan></text></g></g><path d="m64.61 324.65c-.331-.96.18-2.01 1.14-2.338l11.389-3.921c.96-.331 2.01.18 2.338 1.14l2.29 6.65c.331.96-.18 2.01-1.14 2.338l-11.389 3.921c-.96.331-2.01-.18-2.338-1.14l-2.29-6.65" fill="#7c858c"/><path d="m64.4 324.05c-.331-.96.18-2.01 1.14-2.338l11.389-3.921c.961-.331 2.01.18 2.338 1.14l2.29 6.65c.331.96-.18 2.01-1.14 2.338l-11.389 3.921c-.96.331-2.01-.18-2.338-1.14l-2.29-6.65" fill="url(#1W)"/><path d="m72.26 330.17l.713-.245.343.995-.713.245-.343-.995m1.316-.453l.713-.245.343.995-.713.245-.343-.995m1.316-.453l.713-.245.343.995-.713.245-.343-.995m1.316-.453l.713-.245.343.995-.713.245-.343-.995m1.316-.453l.713-.245.343.995-.713.245-.343-.995m-6.58 2.265l.713-.245.343.995-.713.245-.343-.995" opacity=".7" fill="url(#1V)" fill-rule="evenodd"/><path d="m64.16 323.75c-.331-.96.18-2.01 1.14-2.338l11.627-4c.96-.331 2.01.18 2.338 1.14l2.194 6.372c.331.96-.18 2.01-1.14 2.338l-11.627 4c-.96.331-2.01-.18-2.338-1.14l-2.194-6.372" fill="url(#1U)"/><use xlink:href="#0" width="195.52" height="98.68" transform="matrix(.04545 0 0 .04545 23.91 319.04)"/><path d="m64.33 323.68c-.321-.933.175-1.95 1.108-2.271l11.377-3.917c.933-.321 1.95.175 2.271 1.108l2.038 5.919c.321.933-.175 1.95-1.108 2.271l-11.377 3.917c-.933.321-1.95-.175-2.271-1.108l-2.038-5.919" opacity=".9" fill="url(#1T)"/><use xlink:href="#1" width="195.52" height="98.68" transform="matrix(.04545 0 0 .04545 23.91 319.04)"/><use xlink:href="#x" width="195.52" height="98.68" transform="matrix(.05255 0 0 .05255 64.03 317.2)" fill="url(#1Z)"/><use height="98.68" width="195.52" xlink:href="#x" transform="matrix(.05255 0 0 .05255 63.4 316.99)" fill="#3c857c"/><g transform="matrix(.04545 0 0 .04545 23.91 319.04)"><use xlink:href="#2" width="195.52" height="98.68"/><use xlink:href="#3" width="195.52" height="98.68"/><use xlink:href="#4" width="195.52" height="98.68"/></g><ellipse ry="2.142" rx="4.428" cy="163.33" cx="50.867" transform="matrix(-.04969.01711-.01711-.04969 72.02 333.03)" fill="#ffe600"/><g transform="matrix(.04545 0 0 .04545 23.91 319.04)"><use xlink:href="#5" width="195.52" height="98.68"/><use xlink:href="#6" width="195.52" height="98.68"/><use xlink:href="#7" width="195.52" height="98.68"/></g><ellipse ry="2.142" rx="4.428" cy="151.52" cx="85.15" transform="matrix(-.04969.01711-.01711-.04969 75.33 331.24)" fill="#ffe600"/><g transform="matrix(.04545 0 0 .04545 23.91 319.04)"><use xlink:href="#8" width="195.52" height="98.68"/><use xlink:href="#9" width="195.52" height="98.68"/><use xlink:href="#A" width="195.52" height="98.68"/></g><ellipse ry="2.142" rx="4.428" cy="139.72" cx="119.43" transform="matrix(-.04969.01711-.01711-.04969 78.63 329.45)" fill="#ffe600"/><g transform="matrix(.04545 0 0 .04545 23.91 319.04)"><use xlink:href="#B" width="195.52" height="98.68"/><use xlink:href="#C" width="195.52" height="98.68"/><use xlink:href="#D" width="195.52" height="98.68"/></g><ellipse ry="2.142" rx="4.428" cy="177.99" cx="75.36" transform="matrix(-.04969.01711-.01711-.04969 74.78 334.11)" fill="#ffe600"/><g transform="matrix(.04545 0 0 .04545 23.91 319.04)"><use xlink:href="#E" width="195.52" height="98.68"/><use xlink:href="#F" width="195.52" height="98.68"/><use xlink:href="#G" width="195.52" height="98.68"/></g><ellipse ry="2.142" rx="4.428" cy="166.18" cx="109.64" transform="matrix(-.04969.01711-.01711-.04969 78.08 332.32)" fill="#ffe600"/><g transform="matrix(.04545 0 0 .04545 23.91 319.04)"><use xlink:href="#H" width="195.52" height="98.68"/><use xlink:href="#I" width="195.52" height="98.68"/><use xlink:href="#J" width="195.52" height="98.68"/></g><ellipse ry="2.142" rx="4.429" cy="154.38" cx="143.93" transform="matrix(-.04969.01711-.01711-.04969 81.38 330.53)" fill="#ffe600"/><path d="m69.03 320.45l7.855-2.705c.823-.283 1.72.154 2 .977l2.091 6.074c.283.823-.154 1.72-.977 2l-5.464 1.881-5.509-8.231" fill="url(#1S)"/><path d="m69.14 320.62l7.834-2.697c.702-.242 1.467.131 1.709.834l2.095 6.083c.242.702-.131 1.467-.834 1.709l-5.556 1.913-5.248-7.842" fill="url(#1R)"/><use xlink:href="#K" width="195.52" height="98.68" transform="matrix(.04545 0 0 .04545 23.91 319.04)"/><path d="m84.49 322.17h-1.323l-.334 1.344c-.077.306-.181.745-.229 1.093-.043-.348-.146-.787-.223-1.093l-.327-1.344h-1.33l1.268 3.656h1.232l1.268-3.656m1.647-.884c0-.355-.3-.606-.731-.606-.411 0-.717.251-.717.606 0 .383.306.62.717.62.432 0 .731-.237.731-.62m-.105 4.54v-3.656h-1.253v3.656h1.253m3.083-3.579c-.146-.09-.328-.153-.592-.153-.32 0-.564.132-.78.341v-.264h-1.253v3.656h1.253v-1.991c0-.446.188-.592.495-.592.244 0 .424.132.585.306l.293-1.302m2.783 2.396c-.195.132-.334.195-.502.195-.209 0-.313-.084-.313-.362v-1.323h.794v-.982h-.794v-1.42l-1.219.494v.926h-.557v.982h.557v1.588c0 .829.306 1.163.968 1.163.355 0 .662-.077.905-.195l.161-1.065" fill="url(#1Q)" fill-rule="evenodd"/><path d="m127.05 43.547c17.233 36.62 72.865 128.91 102.86 168.29-2.858 14.11-18.673 23.308-29.809 18.791l-115.34-166.6c-.07-12.347 22.06-27.27 42.29-20.477" mask="url(#j)" transform="matrix(.05255 0 0 .05255 63.924 317.2)" fill="#25514b" filter="url(#t)"/><use xlink:href="#L" width="195.52" height="98.68" transform="matrix(.04545 0 0 .04545 23.91 319.04)"/><path d="m75.41 329.74c-.153.096-.469.986-.316 1.201.227.32 1.718-.8 1.598-1.113-.124-.322-1.15-.139-1.282-.088m-.704-.526l.177.264c0 0 .05.073.014.232-.057.249-.274.891-.305 1.425-.003.065-.094.643.523.5.618-.142 1.923-1.143 2.194-1.597.271-.455-.043-.725-.438-.763-.394-.039-1-.022-1.285.01-.281.032-.26-.061-.49-.314-.014-.019-.389.244-.389.244" fill="url(#1P)" fill-rule="evenodd"/><path d="m214.78 227.85c-2.797 3.296-6.24 5.845-9.926 7.474.432-2.596-.374-3.792-.374-3.792l-3.368-5.02c0 0 7.083-5.01 7.41-4.647 3.294 3.624 3.879 5.527 6.258 5.983" transform="matrix(.07512.00279-.00265.06789 59.96 313.06)" mask="url(#h)" fill="#54575a" filter="url(#s)"/><g transform="matrix(.04545 0 0 .04545 23.91 319.04)"><use xlink:href="#M" width="195.52" height="98.68"/><use xlink:href="#N" width="195.52" height="98.68"/></g><path d="m192.12 225.88l-118.58-171.19c3.174-9.06 16.868-17.988 30.23-18.875 22.16 44.22 78.16 134.39 111.83 178.22-5.194 8.137-14.62 12.648-23.471 11.846" mask="url(#l)" transform="matrix(.05255 0 0 .05255 64.03 317.62)" fill="#c8c7c5" filter="url(#u)"/><path d="m74.75 329.39l-6.492-9.378c.189-.162.429-.301.69-.393.363.656 1.325 2.344 2.856 4.653 1.194 1.801 2.422 3.574 3.371 4.833-.123.122-.268.218-.423.284m-.189.065c-.073.019-.148.032-.222.039l-6.353-9.176c.036-.058.081-.115.131-.17l6.444 9.307" fill="url(#1O)" fill-rule="evenodd"/><g transform="matrix(.04545 0 0 .04545 23.91 319.04)"><use height="98.68" width="195.52" xlink:href="#O"/><use height="98.68" width="195.52" xlink:href="#P"/><use height="98.68" width="195.52" xlink:href="#Q"/></g><path d="m85.73 326.65v-.203h-.798v.203h.296v.827h.206v-.827h.296" fill="#005f6a" fill-rule="evenodd"/><g transform="matrix(.04545 0 0 .04545 23.91 319.04)"><use height="98.68" width="195.52" xlink:href="#R"/><use height="98.68" width="195.52" xlink:href="#S"/></g><path d="m88.2 327.48h.723v-.203h-.517v-.827h-.206z" fill="#005f6a" fill-rule="evenodd"/><g transform="matrix(.04545 0 0 .04545 23.91 319.04)"><use height="98.68" width="195.52" xlink:href="#T"/><use height="98.68" width="195.52" xlink:href="#U"/><use height="98.68" width="195.52" xlink:href="#V"/></g><path d="m92.48 326.65v-.203h-.798v.203h.296v.827h.206v-.827h.296" fill="#005f6a" fill-rule="evenodd"/><g transform="matrix(.04545 0 0 .04545 23.91 319.04)"><use height="98.68" width="195.52" xlink:href="#W"/><use height="98.68" width="195.52" xlink:href="#X"/><use height="98.68" width="195.52" xlink:href="#Y"/><use height="98.68" width="195.52" xlink:href="#Z"/><use height="98.68" width="195.52" xlink:href="#a"/><use height="98.68" width="195.52" xlink:href="#b"/></g><text font-size="15.08" letter-spacing="0" line-height="125%" word-spacing="0" x="63.957" y="360.79" font-family="Yanone Kaffeesatz"><tspan x="63.957" y="360.79">procfs</tspan></text><path d="m97.51 208.85v32.405h7.098l-10.137 15.435-10.761-15.435h6.847v-32.405z" fill="url(#1N)" stroke="#000" stroke-width="2.846"/><g fill-rule="evenodd"><path d="m603.68 10.683l-31.478 25.341-66.58 26.23 34.18-31.963 63.874-19.609z" fill="#b1883f" stroke="#746137" stroke-linejoin="round" stroke-width="4.663"/><path d="m732.68912 151.64157a119.1215 46.22403 0 1 1 -238.23906 0 119.1215 46.22403 0 1 1 238.23906 0" fill="url(#1M)" color="#000"/></g><g stroke="#746137" stroke-linejoin="round" stroke-linecap="square" stroke-width="4.663"><g fill="#c7a465"><path d="m630.42 52.84l-90.58-21.638-.607 115.77 91.19 21.629v-115.76z"/><path d="m632.22 52.793l65.38-19.647.415 113.77-65.61 21.22-.173-115.34z"/></g><path d="m606.75 9.843l91.81 21.974-67.59 19.754-91.74-21.242 67.52-20.486z" fill="#82642f"/></g><g fill-rule="evenodd"><g fill="url(#1L)"><path d="m627.93 54.39v60.1c-15.282 15.454-86.56-100.14-85.66 7.741l.036-88.3 85.62 20.463" opacity=".812"/><path d="m634.61 54.34v60.09c21.47-88.2 61.915-56.79 60.26-78.22l-60.26 18.13" opacity=".812"/></g><path d="m661.04 96.52s-29.18-42.698-29.18-42.698l68.54-20.607c0 0 23.55 40.926 23.55 40.926 0 0-62.923 22.379-62.923 22.379z" fill="#b1883f" stroke="#746137" stroke-linejoin="round" stroke-width="4.663"/><path d="m691.91 33.16s-85.74-19.787-85.74-19.787l-55.676 17.07c66.45 20.985 83.12-7.196 141.39 2.714" fill="url(#1K)"/></g><g color="#000"><path d="m582.57 54.41c-18.908-4.332-17.74 6.294-17.74 6.294 0 0-.014 10.701-.014 10.701 0 0 17.978 4.188 17.978 4.188 0 0-.014 3.213-.014 3.213 0 0-25.08-5.853-25.08-5.853 0 0-11.959-4.512-11.959 19.322 0 23.68 10.373 25.345 10.373 25.345 0 0 6.207 1.495 6.207 1.495 0 0 .029-10.998.029-10.998 0 0-.305-13.239 10.328-10.72 10.674 2.531 17.82 4.226 17.82 4.226 0 0 10.06 2.588 10.151-9.834.094-12.464.154-20.633.154-20.633 0 0 1.635-12.189-18.238-16.746m-9.978 4.942c1.793.414 3.232 2.58 3.224 4.848-.007 2.267-1.465 3.759-3.254 3.345-1.789-.414-3.228-2.58-3.22-4.844.007-2.264 1.461-3.763 3.251-3.352" fill="url(#1J)"/><path d="m582.65 147.29c18.772 4.603 17.673-5.857 17.673-5.857 0 0 .064-10.573.064-10.573 0 0-17.963-4.339-17.963-4.339 0 0 .014-3.171.014-3.171 0 0 25.14 6.06 25.14 6.06 0 0 12.12 4.64 12.369-19.281.245-24.08-10.429-25.714-10.429-25.714 0 0-6.347-1.48-6.347-1.48 0 0-.087 11.164-.087 11.164 0 0 .237 13.356-10.505 10.802-10.705-2.542-17.827-4.234-17.827-4.234 0 0-9.966-2.573-10 9.74-.036 12.268-.05 20.264-.05 20.264 0 0-1.533 11.838 17.959 16.618m9.906-4.659c-1.785-.437-3.213-2.588-3.202-4.814.014-2.23 1.469-3.68 3.254-3.247 1.785.433 3.22 2.588 3.205 4.817-.014 2.23-1.473 3.676-3.258 3.243" fill="url(#1I)"/></g><text font-size="34.692" letter-spacing="0" line-height="125%" word-spacing="0" y="204.68" x="541.66" font-family="Yanone Kaffeesatz"><tspan y="204.68" x="541.66">Configurators</tspan></text><path d="m143.82 135.87h179.44v-7.119l14.718 10.166-14.718 10.79v-6.868h-179.44z" fill="url(#1H)" stroke="#000" stroke-width="2.789"/><g transform="matrix(.35828 0 0 .35244-137.37 107.68)"><use height="98.68" width="195.52" xlink:href="#10"/><use height="98.68" width="195.52" xlink:href="#w"/><use height="98.68" width="195.52" xlink:href="#z"/></g><g color="#000"><use height="98.68" width="195.52" xlink:href="#v" transform="matrix(.29652 0 0 .29652 53.875 42.864)" fill="url(#1Y)"/><use height="98.68" width="195.52" xlink:href="#y" transform="matrix(.29652 0 0 .29652 53.875 42.864)" fill="url(#1X)"/></g><g font-family="Yanone Kaffeesatz" word-spacing="0" line-height="125%" letter-spacing="0"><text font-size="34.688" x="9.343" y="202.81"><tspan x="9.343" y="202.81">configNetwork.py</tspan></text><text x="69.26" y="110.7" font-size="18.21"><tspan x="69.26" y="110.7">initscripts</tspan></text></g><path d="m70.52 127.85c-.389-1.131.211-2.363 1.342-2.752l13.409-4.617c1.131-.389 2.363.212 2.752 1.343l2.696 7.83c.389 1.131-.211 2.363-1.343 2.752l-13.409 4.617c-1.131.389-2.363-.212-2.752-1.343l-2.696-7.83" fill="#7c858c"/><path d="m70.28 127.15c-.389-1.131.212-2.363 1.342-2.752l13.409-4.617c1.131-.389 2.363.212 2.753 1.343l2.696 7.83c.389 1.131-.211 2.363-1.343 2.752l-13.409 4.617c-1.131.389-2.363-.212-2.752-1.343l-2.696-7.83" fill="url(#1G)"/><path d="m79.52 134.36l.839-.289.404 1.172-.839.289-.404-1.172m1.549-.533l.839-.289.404 1.172-.839.289-.404-1.172m1.549-.533l.839-.289.404 1.172-.839.289-.404-1.172m1.549-.534l.839-.289.404 1.172-.839.289-.404-1.172m1.549-.533l.839-.289.404 1.172-.839.289-.404-1.172m-7.747 2.667l.839-.289.404 1.172-.839.289-.404-1.172" opacity=".7" fill="url(#1F)" fill-rule="evenodd"/><path d="m69.995 126.79c-.389-1.131.211-2.363 1.343-2.752l13.689-4.713c1.131-.389 2.363.212 2.752 1.343l2.583 7.502c.389 1.131-.211 2.363-1.342 2.752l-13.689 4.713c-1.131.389-2.363-.212-2.752-1.343l-2.583-7.502" fill="url(#1E)"/><path id="0" d="m69.955 126.67c-.389-1.131.211-2.363 1.343-2.752l13.689-4.713c1.131-.389 2.363.212 2.753 1.343l2.583 7.502c.389 1.131-.212 2.363-1.343 2.752l-13.689 4.713c-1.131.389-2.363-.212-2.752-1.343l-2.583-7.502" fill="#7c858c"/><path d="m70.19 126.71c-.379-1.099.206-2.295 1.304-2.674l13.395-4.612c1.099-.378 2.295.206 2.674 1.304l2.4 6.969c.379 1.099-.206 2.295-1.304 2.674l-13.395 4.612c-1.099.378-2.295-.206-2.674-1.304l-2.4-6.969" opacity=".9" fill="url(#1D)"/><path id="1" d="m70.3 126.75c-.367-1.066.199-2.228 1.266-2.595l13.358-4.599c1.066-.367 2.228.2 2.595 1.266l2.461 7.146c.367 1.066-.199 2.228-1.266 2.595l-13.358 4.599c-1.066.367-2.228-.2-2.595-1.266l-2.461-7.146" fill="#3e3e3e"/><use height="98.68" width="195.52" xlink:href="#x" transform="matrix(.06187 0 0 .06187 69.836 119.09)" fill="url(#1Z)"/><use xlink:href="#x" width="195.52" height="98.68" transform="matrix(.06187 0 0 .06187 69.09 118.84)" fill="#3c857c"/><path id="2" d="m71.69 125.41c-.11-.476.161-.579.166-.58.085-.029.383-.096.452.107.064.184-.28.484-.593.591-.31.107-.771.084-.835-.1-.072-.204.206-.334.29-.363.005-.001.269-.138.488.356.007.018.036.005.029-.01" fill="#ffe600" fill-rule="evenodd"/><path id="3" d="m71.869 128.64c.45 1.055 1.071 1.752 1.48 1.611.409-.141.469-1.072.174-2.181-.022-.204-.057-.59-.014-.812.029-.162-.007-.209-.137-.067-.036.043-.072.083-.094.125-.454-1.157-1.124-1.945-1.555-1.797-.432.149-.475 1.182-.12 2.373-.043-.019-.093-.032-.151-.041-.19-.032-.189.027-.064.137.168.151.379.476.487.651"/><path id="4" d="m71.73 127.72c.34.988.915 1.685 1.285 1.559.369-.127.393-1.031.05-2.02-.34-.988-.915-1.685-1.285-1.559-.369.127-.393 1.031-.05 2.02m1.435 1.767c.036.096.094.163.135.149.043-.014.05-.104.014-.2-.036-.096-.094-.163-.135-.149-.043.014-.05.104-.014.2m-.291.1c.036.096.094.163.135.149.043-.014.05-.104.014-.2-.036-.096-.094-.163-.135-.149-.043.014-.05.104-.014.2" fill="#fff" fill-rule="evenodd"/><ellipse ry="2.142" rx="4.428" cy="163.33" cx="50.867" transform="matrix(-.0585.02014-.02014-.0585 79.25 137.73)" fill="#ffe600"/><path id="5" d="m73.813 124.68c-.11-.476.161-.579.166-.58.085-.029.383-.096.452.107.064.184-.28.484-.593.591-.31.107-.771.084-.835-.1-.072-.204.206-.334.29-.363.005-.001.269-.138.487.356.007.018.036.005.029-.01" fill="#ffe600" fill-rule="evenodd"/><path id="6" d="m73.991 127.91c.45 1.055 1.071 1.752 1.48 1.611.409-.141.469-1.072.174-2.181-.022-.204-.057-.59-.014-.812.029-.162-.007-.209-.137-.067-.036.043-.072.083-.094.125-.454-1.157-1.124-1.945-1.555-1.797-.432.149-.475 1.182-.12 2.373-.043-.019-.093-.032-.151-.041-.19-.032-.189.027-.064.137.168.151.379.476.487.651"/><path id="7" d="m73.852 126.99c.34.988.915 1.685 1.285 1.558.369-.127.394-1.031.05-2.02-.34-.988-.915-1.685-1.285-1.558-.369.127-.394 1.031-.05 2.02m1.435 1.767c.036.096.094.163.135.149.043-.014.05-.104.014-.2-.036-.096-.094-.163-.135-.149-.043.014-.05.104-.014.2m-.291.1c.036.096.094.163.135.149.043-.014.05-.104.014-.2-.036-.096-.094-.163-.135-.149-.043.014-.05.104-.014.2" fill="#fff" fill-rule="evenodd"/><ellipse ry="2.142" rx="4.428" cy="151.52" cx="85.15" transform="matrix(-.0585.02014-.02014-.0585 83.14 135.61)" fill="#ffe600"/><path id="8" d="m75.934 123.95c-.11-.476.161-.579.166-.58.085-.029.383-.096.452.107.064.184-.28.484-.593.591-.31.107-.771.084-.835-.1-.072-.204.206-.334.29-.363.005-.001.269-.138.488.356.007.018.036.005.029-.01" fill="#ffe600" fill-rule="evenodd"/><path id="9" d="m76.11 127.18c.45 1.055 1.071 1.752 1.48 1.611.409-.141.469-1.072.174-2.181-.022-.204-.057-.59-.014-.812.029-.162-.007-.209-.137-.067-.036.043-.072.083-.094.125-.454-1.157-1.124-1.945-1.555-1.797-.432.149-.475 1.182-.12 2.373-.043-.019-.093-.031-.151-.041-.19-.032-.189.027-.064.137.168.151.379.476.487.651"/><path id="A" d="m75.973 126.26c.34.988.915 1.685 1.285 1.559.369-.127.393-1.031.05-2.02-.34-.988-.915-1.685-1.285-1.559-.369.127-.394 1.031-.05 2.02m1.435 1.767c.036.096.094.163.135.149.043-.014.05-.104.014-.2-.036-.096-.094-.163-.135-.149-.043.014-.05.104-.014.2m-.291.1c.036.096.094.163.135.149.043-.014.05-.104.014-.2-.036-.096-.094-.163-.135-.149-.043.014-.05.104-.014.2" fill="#fff" fill-rule="evenodd"/><ellipse ry="2.142" rx="4.428" cy="139.72" cx="119.43" transform="matrix(-.0585.02014-.02014-.0585 87.03 133.5)" fill="#ffe600"/><path id="B" d="m75.81 133.88c.206.443.483.357.487.356.085-.029.361-.16.29-.363-.064-.184-.519-.209-.831-.101-.31.107-.66.409-.596.593.072.204.368.137.452.107.005-.001.297-.057.166-.58-.005-.019.022-.025.029-.01" fill="#ffe600" fill-rule="evenodd"/><path id="C" d="m73.963 131.22c-.295-1.108-.234-2.04.174-2.181.409-.141 1.03.557 1.48 1.611.108.175.319.5.487.651.122.11.123.169-.064.137-.057-.01-.107-.022-.151-.041.355 1.191.313 2.225-.12 2.373-.432.149-1.102-.639-1.555-1.797-.022.042-.057.082-.094.125-.13.142-.166.095-.137-.067.036-.222.006-.608-.014-.812"/><path id="D" d="m74.42 132.03c-.34-.988-.316-1.892.05-2.02.369-.127.945.57 1.285 1.559.34.988.316 1.892-.05 2.02-.369.127-.945-.571-1.285-1.559m.043-2.276c-.036-.096-.029-.186.014-.2.043-.014.102.052.135.149.036.096.029.186-.014.2-.043.014-.102-.052-.135-.149m-.291.1c-.036-.096-.029-.186.014-.2.043-.014.102.052.135.149.036.096.029.186-.014.2-.043.014-.102-.052-.135-.149" fill="#fff" fill-rule="evenodd"/><ellipse ry="2.142" rx="4.428" cy="177.99" cx="75.36" transform="matrix(-.0585.02014-.02014-.0585 82.49 139)" fill="#ffe600"/><path id="E" d="m77.932 133.15c.206.443.483.357.487.356.085-.029.361-.16.29-.363-.064-.184-.519-.209-.831-.101-.31.107-.66.408-.596.593.072.204.368.137.452.107.005-.001.297-.057.165-.58-.005-.019.022-.026.029-.01" fill="#ffe600" fill-rule="evenodd"/><path id="F" d="m76.08 130.49c-.295-1.108-.234-2.04.174-2.181.409-.141 1.03.557 1.48 1.611.108.175.319.5.487.65.122.11.123.169-.064.137-.057-.01-.107-.022-.151-.041.355 1.191.313 2.225-.12 2.373-.432.149-1.102-.639-1.555-1.797-.022.042-.057.082-.094.125-.13.142-.166.095-.137-.067.036-.222.006-.608-.014-.812"/><path id="G" d="m76.54 131.3c-.34-.988-.316-1.892.05-2.02.369-.127.945.57 1.285 1.559.34.988.316 1.892-.05 2.02-.369.127-.945-.57-1.285-1.559m.043-2.276c-.036-.096-.029-.186.014-.2.043-.014.102.052.135.149.036.096.029.186-.014.2-.043.014-.102-.052-.135-.149m-.291.1c-.036-.096-.029-.186.014-.2.043-.014.102.052.135.149.036.096.029.186-.014.2-.043.014-.102-.052-.135-.149" fill="#fff" fill-rule="evenodd"/><ellipse ry="2.142" rx="4.428" cy="166.18" cx="109.64" transform="matrix(-.0585.02014-.02014-.0585 86.38 136.89)" fill="#ffe600"/><path id="H" d="m80.05 132.42c.206.443.483.357.488.356.085-.029.361-.16.29-.363-.064-.184-.519-.209-.831-.101-.31.107-.66.409-.596.593.072.204.368.137.452.107.005-.001.297-.057.166-.58-.005-.019.022-.025.029-.01" fill="#ffe600" fill-rule="evenodd"/><path id="I" d="m78.2 129.76c-.295-1.108-.234-2.04.174-2.181.409-.141 1.03.557 1.48 1.611.108.175.319.5.487.651.122.11.123.169-.064.137-.057-.01-.107-.022-.151-.041.355 1.191.313 2.225-.12 2.373-.432.149-1.102-.639-1.555-1.797-.022.042-.057.082-.094.125-.13.142-.166.095-.137-.067.036-.222.006-.608-.014-.812"/><path id="J" d="m78.66 130.57c-.34-.988-.316-1.892.05-2.02.369-.127.945.571 1.285 1.559.34.988.316 1.892-.05 2.02-.369.127-.945-.57-1.285-1.559m.043-2.276c-.036-.096-.029-.186.014-.2.043-.014.102.052.135.149.036.096.029.186-.014.2-.043.014-.102-.052-.135-.149m-.291.1c-.036-.096-.029-.186.014-.2.043-.014.102.052.135.149.036.096.029.186-.014.2-.043.014-.102-.052-.135-.149" fill="#fff" fill-rule="evenodd"/><ellipse ry="2.142" rx="4.429" cy="154.38" cx="143.93" transform="matrix(-.0585.02014-.02014-.0585 90.27 134.77)" fill="#ffe600"/><path d="m75.72 122.91l9.248-3.184c.969-.334 2.026.181 2.359 1.151l2.462 7.151c.333.969-.181 2.026-1.151 2.359l-6.433 2.215-6.487-9.691" fill="url(#1C)"/><path d="m75.855 123.11l9.224-3.176c.827-.285 1.728.155 2.01.981l2.466 7.162c.285.827-.155 1.728-.981 2.01l-6.542 2.252-6.179-9.232" fill="url(#1B)"/><path id="K" d="m87.77 127.12c0 .803-.156.992-.459.992-.229 0-.377-.082-.533-.205v-1.648c.156-.123.312-.205.525-.205.312 0 .467.205.467 1.066m1.46-.049c0-1.599-.623-2.23-1.435-2.23-.451 0-.722.164-1.017.393v-1.976l-1.476.59v5.386h1.476v-.287c.238.18.533.377.959.377.943 0 1.492-.713 1.492-2.255m-4.556 2.164v-4.304h-1.476v4.304h1.476m.123-5.346c0-.418-.353-.713-.861-.713-.484 0-.844.295-.844.713 0 .451.361.73.844.73.508 0 .861-.279.861-.73m-2.413 5.346v-5.977l-1.476.59v5.386h1.476" fill="#fff" fill-rule="evenodd"/><path d="m93.92 124.93h-1.558l-.394 1.582c-.09.361-.213.877-.27 1.287-.05-.41-.172-.926-.262-1.287l-.386-1.582h-1.566l1.492 4.304h1.451l1.492-4.304m1.94-1.041c0-.418-.353-.713-.861-.713-.484 0-.844.295-.844.713 0 .451.361.73.844.73.508 0 .861-.279.861-.73m-.123 5.346v-4.304h-1.476v4.304h1.476m3.629-4.214c-.172-.106-.386-.18-.697-.18-.377 0-.664.156-.918.402v-.311h-1.476v4.304h1.476v-2.345c0-.525.222-.697.582-.697.287 0 .5.156.689.361l.344-1.533m3.276 2.82c-.229.156-.394.23-.59.23-.246 0-.369-.098-.369-.426v-1.558h.935v-1.156h-.935v-1.672l-1.435.582v1.09h-.656v1.156h.656v1.869c0 .976.361 1.369 1.14 1.369.418 0 .779-.09 1.066-.23l.189-1.254" fill="url(#1A)" fill-rule="evenodd"/><path d="m127.05 43.547c17.233 36.62 72.865 128.91 102.86 168.29-2.858 14.11-18.673 23.308-29.809 18.791l-115.34-166.6c-.07-12.347 22.06-27.27 42.29-20.477" mask="url(#g)" transform="matrix(.06187 0 0 .06187 69.71 119.09)" fill="#25514b" filter="url(#t)"/><path id="L" d="m83.34 134.01c-.179.114-.551 1.161-.372 1.414.267.377 2.023-.941 1.881-1.31-.146-.38-1.354-.163-1.509-.104m-.887-.599l.209.311c0 0 .057.086.014.273-.064.293-.322 1.049-.36 1.677-.005.076-.111.757.617.589.727-.168 2.264-1.345 2.583-1.881.319-.535-.05-.853-.515-.899-.463-.045-1.181-.026-1.512.012-.331.038-.307-.072-.577-.37-.022-.022-.458.287-.458.287" fill="#3e3e3e" fill-rule="evenodd"/><path d="m83.23 133.85c-.179.114-.552 1.161-.372 1.414.267.377 2.023-.941 1.881-1.31-.146-.38-1.354-.163-1.509-.104m-.829-.619l.209.311c0 0 .057.086.014.273-.064.293-.322 1.049-.36 1.677-.005.076-.111.757.617.589.727-.168 2.264-1.345 2.583-1.881.319-.535-.05-.853-.515-.899-.463-.045-1.181-.026-1.512.012-.331.038-.307-.072-.577-.37-.022-.022-.458.287-.458.287" fill="url(#19)" fill-rule="evenodd"/><path d="m214.78 227.85c-2.797 3.296-6.24 5.845-9.926 7.474.432-2.596-.374-3.792-.374-3.792l-3.368-5.02c0 0 7.083-5.01 7.41-4.647 3.294 3.624 3.879 5.527 6.258 5.983" transform="matrix(.08845.00329-.00312.07993 65.05 114.21)" mask="url(#i)" fill="#54575a" filter="url(#s)"/><path id="M" d="m77.02 121.91c1.066 2.266 4.508 7.976 6.364 10.412-.177.873-1.155 1.442-1.844 1.163l-7.136-10.308c-.005-.764 1.365-1.687 2.616-1.267" fill="#c8c7c5"/><path id="N" d="m76.83 121.85c1.066 2.266 4.663 8.147 6.519 10.583-.252.836-1.14 1.288-1.875 1.079l-7.136-10.308c-.005-.764 1.417-1.646 2.492-1.355" fill="#7c858c"/><path d="m192.12 225.88l-118.58-171.19c3.174-9.06 16.868-17.988 30.23-18.875 22.16 44.22 78.16 134.39 111.83 178.22-5.194 8.137-14.62 12.648-23.471 11.846" mask="url(#k)" transform="matrix(.06187 0 0 .06187 69.836 119.59)" fill="#c8c7c5" filter="url(#u)"/><path d="m82.45 133.44l-7.643-11.04c.222-.191.505-.355.812-.463.427.772 1.56 2.76 3.362 5.478 1.405 2.12 2.852 4.208 3.968 5.69-.146.143-.315.256-.498.335m-.222.077c-.086.023-.174.038-.261.045l-7.48-10.803c.043-.068.095-.135.154-.2l7.587 10.958" fill="url(#18)" fill-rule="evenodd"/><path d="m92.36 129.97h-.265l-.224.702c-.022.071-.043.154-.057.199-.007-.043-.036-.132-.057-.199l-.229-.702h-.269l.432 1.213h.236l.432-1.213" id="O" fill="#005f6a" fill-rule="evenodd"/><path d="m92.66 129.97h.242v1.213h-.242z" id="P" fill="#005f6a" fill-rule="evenodd"/><path d="m94.26 131.19l-.232-.471c.154-.061.232-.175.232-.357 0-.258-.189-.385-.417-.385h-.565v1.213h.242v-.437h.244l.217.437h.279m-.249-.823c0 .106-.057.158-.174.158h-.317v-.312h.317c.108 0 .174.045.174.154" id="Q" fill="#005f6a" fill-rule="evenodd"/><path d="m95.39 130.21v-.239h-.939v.239h.348v.974h.242v-.974z" fill="#005f6a" fill-rule="evenodd"/><path d="m96.65 130.65v-.677h-.242v.681c0 .194-.095.314-.249.314-.154 0-.247-.123-.247-.317v-.677h-.242v.681c0 .353.197.551.49.551.308 0 .492-.203.492-.554" id="R" fill="#005f6a" fill-rule="evenodd"/><path d="m98.02 131.19l-.461-1.213h-.236l-.465 1.213h.26l.095-.27h.444l.095.27h.267m-.445-.501h-.277l.078-.22c.022-.071.05-.144.057-.189.014.045.036.118.057.189l.078.22" id="S" fill="#005f6a" fill-rule="evenodd"/><path d="m98.29 129.97v1.213h.851v-.239h-.608v-.974z" fill="#005f6a" fill-rule="evenodd"/><path d="m99.44 129.97h.242v1.213h-.242z" id="T" fill="#005f6a" fill-rule="evenodd"/><path d="m100.98 131.19v-.222h-.417c-.072 0-.198.001-.246.003.029-.031.1-.111.138-.158l.516-.622v-.215h-.913v.222h.379c.072 0 .198-.001.246-.003-.029.031-.1.111-.138.158l-.521.622v.215h.956" id="U" fill="#005f6a" fill-rule="evenodd"/><path d="m102.36 131.19l-.461-1.213h-.236l-.465 1.213h.26l.095-.27h.444l.095.27h.267m-.445-.501h-.277l.078-.22c.022-.071.05-.144.057-.189.014.045.036.118.057.189l.078.22" id="V" fill="#005f6a" fill-rule="evenodd"/><path d="m103.34 130.21v-.239h-.939v.239h.348v.974h.242v-.974z" fill="#005f6a" fill-rule="evenodd"/><path d="m103.64 129.97h.242v1.213h-.242z" id="W" fill="#005f6a" fill-rule="evenodd"/><path d="m105.25 130.58c0-.369-.196-.626-.527-.626-.331 0-.527.256-.527.626 0 .369.196.626.527.626.331 0 .527-.256.527-.626m-.249 0c0 .217-.082.385-.277.385-.196 0-.277-.168-.277-.385 0-.217.082-.385.277-.385.196 0 .277.168.277.385" id="X" fill="#005f6a" fill-rule="evenodd"/><path d="m106.53 131.19v-1.213h-.239v.513c0 .067.003.22.003.265-.014-.031-.057-.092-.085-.137l-.429-.641h-.232v1.213h.239v-.534c0-.067-.003-.22-.003-.265.014.031.057.092.085.137l.445.662h.217" id="Y" fill="#005f6a" fill-rule="evenodd"/><path d="m108.52 131.19l-.461-1.213h-.236l-.465 1.213h.26l.095-.27h.444l.095.27h.267m-.445-.501h-.277l.078-.22c.022-.071.05-.144.057-.189.014.045.036.118.057.189l.078.22" id="Z" fill="#005f6a" fill-rule="evenodd"/><path d="m109.75 130.36c0-.258-.189-.385-.417-.385h-.53v1.213h.242v-.43h.267c.251 0 .438-.118.438-.398m-.249.005c0 .106-.057.158-.174.158h-.282v-.312h.279c.108 0 .176.049.176.154" id="a" fill="#005f6a" fill-rule="evenodd"/><path d="m110.05 129.97h.242v1.213h-.242z" id="b" fill="#005f6a" fill-rule="evenodd"/><g font-family="Yanone Kaffeesatz" word-spacing="0" line-height="125%" letter-spacing="0"><text x="68.832" y="155.22" font-size="18.203"><tspan x="68.832" y="155.22">sysfs</tspan></text><text font-size="34.692" x="507.54" y="409.81"><tspan x="507.54" y="409.81">netconfpersistence.py</tspan></text></g><g transform="matrix(.35825 0 0 .35244 383.8 314.75)"><use height="98.68" width="195.52" xlink:href="#10"/><use height="98.68" width="195.52" xlink:href="#w"/><use height="98.68" width="195.52" xlink:href="#z"/></g><g color="#000"><use height="98.68" width="195.52" xlink:href="#v" transform="matrix(.29652 0 0 .29652 575.14 249.94)" fill="url(#1Y)"/><use height="98.68" width="195.52" xlink:href="#y" transform="matrix(.29652 0 0 .29652 575.14 249.94)" fill="url(#1X)"/></g><g font-family="Yanone Kaffeesatz" word-spacing="0" line-height="125%" letter-spacing="0"><g font-size="15.08"><text y="329.3" x="588.55"><tspan y="329.3" x="588.55">json</tspan></text><text y="346.87" x="588.76"><tspan y="346.87" x="588.76">Filesystem</tspan></text><text y="344.92" x="103.17"><tspan y="344.92" x="103.17">libnl</tspan></text></g><text x="171.5" y="408.01" font-size="34.692"><tspan x="171.5" y="408.01">sourceRoute.py</tspan></text></g><g transform="matrix(.35825 0 0 .35244 11.837 312.95)"><use height="98.68" width="195.52" xlink:href="#10"/><use height="98.68" width="195.52" xlink:href="#w"/><use height="98.68" width="195.52" xlink:href="#z"/></g><g color="#000"><use xlink:href="#v" width="195.52" height="98.68" transform="matrix(.29652 0 0 .29652 203.11 248.14)" fill="url(#1Y)"/><use xlink:href="#y" width="195.52" height="98.68" transform="matrix(.29652 0 0 .29652 203.11 248.14)" fill="url(#1X)"/></g><g font-family="Yanone Kaffeesatz" word-spacing="0" line-height="125%" letter-spacing="0"><g font-size="15.08"><text y="327.5" x="216.52"><tspan y="327.5" x="216.52">iproute2</tspan></text><text y="345.06" x="216.73"><tspan y="345.06" x="216.73">python-inotify</tspan></text></g><text x="212.65" y="568.46" font-size="34.692"><tspan x="212.65" y="568.46">netlink.py</tspan></text></g><g transform="matrix(.35825 0 0 .35244 25.322 473.42)"><use xlink:href="#10" width="195.52" height="98.68"/><use xlink:href="#w" width="195.52" height="98.68"/><use xlink:href="#z" width="195.52" height="98.68"/></g><g color="#000"><use height="98.68" width="195.52" xlink:href="#v" transform="matrix(.29652 0 0 .29652 216.67 408.54)" fill="url(#1Y)"/><use height="98.68" width="195.52" xlink:href="#y" transform="matrix(.29652 0 0 .29652 216.67 408.54)" fill="url(#1X)"/></g><g font-family="Yanone Kaffeesatz" word-spacing="0" line-height="125%" letter-spacing="0"><text x="230.08" y="487.98" font-size="15.08"><tspan x="230.08" y="487.98">iproute2</tspan></text><text x="32.34" y="568.46" font-size="34.692"><tspan x="32.34" y="568.46">ipwrapper.py</tspan></text></g><g transform="matrix(.35825 0 0 .35244-140.15 473.39)"><use xlink:href="#10" width="195.52" height="98.68"/><use xlink:href="#w" width="195.52" height="98.68"/><use xlink:href="#z" width="195.52" height="98.68"/></g><g color="#000"><use xlink:href="#v" width="195.52" height="98.68" transform="matrix(.29652 0 0 .29652 51.2 408.58)" fill="url(#1Y)"/><use xlink:href="#y" width="195.52" height="98.68" transform="matrix(.29652 0 0 .29652 51.2 408.58)" fill="url(#1X)"/></g><g font-family="Yanone Kaffeesatz" word-spacing="0" line-height="125%" letter-spacing="0" font-size="15.08"><text y="487.95" x="64.6"><tspan y="487.95" x="64.6">iproute2</tspan></text><text x="64.818" y="515.33"><tspan x="64.818" y="515.33">ethtool (ioctl)</tspan></text></g><g stroke="#000"><g stroke-width="2.789"><path d="m140.15 458.12h71.67v-7.119l14.718 10.166-14.718 10.79v-6.868h-71.67z" fill="url(#17)"/><path d="m619.06 213.15l-.078 20.712h6.986l-10.164 14.716-10.793-14.716h6.986l-.7-21.1z" fill="url(#16)"/><path d="m311.39 143.12s0 155.92 0 156.23l230.68-.136v-5.95l14.338 9.607-14.338 10.06v-6.402l-237.66.373v-23.01-140.79z" fill="url(#15)"/></g><path d="m303.55 240.11l-22.913 22.913 5.02 5.02-18.08 3.742 3.305-18.518 4.839 4.839 22.913-22.913z" fill="url(#14)" stroke-width="2.846"/></g><g transform="matrix(.35828 0 0 .35244 386.03 478.12)"><use xlink:href="#10" width="195.52" height="98.68"/><use xlink:href="#w" width="195.52" height="98.68"/><use xlink:href="#z" width="195.52" height="98.68"/></g><g color="#000"><use xlink:href="#v" width="195.52" height="98.68" transform="matrix(.29652 0 0 .29652 577.28 413.3)" fill="url(#1Y)"/><use xlink:href="#y" width="195.52" height="98.68" transform="matrix(.29652 0 0 .29652 577.28 413.3)" fill="url(#1X)"/></g><g font-family="Yanone Kaffeesatz" word-spacing="0" line-height="125%" letter-spacing="0"><text x="600.87" y="573.24" font-size="34.688"><tspan x="600.87" y="573.24">tc.py</tspan></text><text y="515.9" x="591.13" font-size="78.04"><tspan y="515.9" x="591.13" font-size="15.07">iproute2</tspan></text><text y="491.1" x="591.13" font-size="15.08"><tspan y="491.1" x="591.13">python-ethtool</tspan></text></g><g stroke="#000"><path d="m123.1 409.37v12.862h7.098l-10.137 15.435-10.761-15.435h6.847v-12.862z" fill="url(#13)" stroke-width="2.846"/><path d="m467.82 303.3s0 141.92 0 142.23l106.19-.136v-5.95l14.338 9.607-14.338 10.06v-6.402l-113.17.373v-23.01-126.79z" fill="url(#12)" stroke-width="2.789"/></g><g transform="translate(-63.52-40.19)"><g transform="matrix(.35828 0 0 .35244 202.52 129.15)"><use xlink:href="#10" width="195.52" height="98.68"/><use xlink:href="#w" width="195.52" height="98.68"/><use xlink:href="#z" width="195.52" height="98.68"/></g><g color="#000"><use transform="matrix(.29652 0 0 .29652 393.77 64.33)" xlink:href="#v" width="195.52" height="98.68" fill="url(#1a)"/><use transform="matrix(.29652 0 0 .29652 393.77 64.33)" xlink:href="#y" width="195.52" height="98.68" fill="url(#1b)"/></g><text y="214.09" x="377.91" word-spacing="0" line-height="125%" letter-spacing="0" font-size="34.688" font-family="Yanone Kaffeesatz"><tspan y="214.09" x="377.91">netmodels.py</tspan></text></g><path d="m425.15 130.82l94.71.078v-6.986l14.716 10.164-14.716 10.793v-6.986l-95.1.7z" fill="url(#11)" stroke="#000" stroke-width="2.789"/></svg>
