<?xml version="1.0" encoding="utf-8"?>
<!-- Generator: Adobe Illustrator 15.1.0, SVG Export Plug-In . SVG Version: 6.00 Build 0)  -->
<!DOCTYPE svg PUBLIC "-//W3C//DTD SVG 1.1//EN" "http://www.w3.org/Graphics/SVG/1.1/DTD/svg11.dtd">
<svg version="1.1" id="Layer_1" xmlns="http://www.w3.org/2000/svg" xmlns:xlink="http://www.w3.org/1999/xlink" x="0px" y="0px"
	 width="800px" height="600px" viewBox="0 0 800 600" enable-background="new 0 0 800 600" xml:space="preserve">
<text transform="matrix(1 0 0 1 225.9087 547.8936)" fill="#FFFFFF" font-family="'MyriadPro-Bold'" font-size="66.1264">COMPUTE</text>
<g>
	<g>
		<g>
			<g enable-background="new    ">
				<g>
					<polygon fill="#D1D1D1" stroke="#FFFFFF" stroke-width="4" stroke-miterlimit="10" stroke-dasharray="1" points="
						559.315,125.26 374.891,189.783 189.301,125.295 373.735,60.771 					"/>
				</g>
				<g>
					<polygon fill="#D1D1D1" stroke="#FFFFFF" stroke-width="4" stroke-miterlimit="10" stroke-dasharray="1" points="
						559.315,125.26 558.336,387.669 373.902,452.198 374.891,189.783 					"/>
				</g>
				<g>
					<polygon fill="#D1D1D1" stroke="#FFFFFF" stroke-width="4" stroke-miterlimit="10" stroke-dasharray="1" points="
						374.891,189.783 373.902,452.198 188.318,387.71 189.301,125.295 					"/>
				</g>
			</g>
		</g>
	</g>
	<g>
		<g>
			<g enable-background="new    ">
				<g>
					<polygon fill="#E1C72E" stroke="#FFFFFF" stroke-width="4" stroke-miterlimit="10" points="537.747,293.78 375.676,350.474 
						212.582,293.811 374.66,237.1 					"/>
				</g>
				<g>
					<polygon fill="#E1C72E" stroke="#FFFFFF" stroke-width="4" stroke-miterlimit="10" points="537.747,293.78 536.885,353.132 
						374.807,409.831 375.676,350.474 					"/>
				</g>
				<g>
					<polygon fill="#E1C72E" stroke="#FFFFFF" stroke-width="4" stroke-miterlimit="10" points="375.676,350.474 374.807,409.831 
						211.716,353.162 212.582,293.811 					"/>
				</g>
			</g>
		</g>
	</g>
	<g>
		<g>
			<g enable-background="new    ">
				<g>
					<polygon fill="#BEDC94" stroke="#FFFFFF" stroke-width="4" stroke-miterlimit="10" points="456.562,147.891 374.293,176.674 
						291.512,147.909 373.779,119.124 					"/>
				</g>
				<g>
					<polygon fill="#BEDC94" stroke="#FFFFFF" stroke-width="4" stroke-miterlimit="10" points="456.562,147.891 456.122,264.951 
						373.853,293.728 374.293,176.674 					"/>
				</g>
				<g>
					<polygon fill="#BEDC94" stroke="#FFFFFF" stroke-width="4" stroke-miterlimit="10" points="374.293,176.674 373.853,293.728 
						291.072,264.961 291.512,147.909 					"/>
				</g>
			</g>
		</g>
	</g>
	<g>
		<g>
			<g enable-background="new    ">
				<g>
					<polygon fill="#BEDC94" stroke="#FFFFFF" stroke-width="4" stroke-miterlimit="10" points="376.644,175.805 294.377,204.583 
						211.589,175.817 293.863,147.034 					"/>
				</g>
				<g>
					<polygon fill="#BEDC94" stroke="#FFFFFF" stroke-width="4" stroke-miterlimit="10" points="376.644,175.805 376.206,292.859 
						293.937,321.635 294.377,204.583 					"/>
				</g>
				<g>
					<polygon fill="#BEDC94" stroke="#FFFFFF" stroke-width="4" stroke-miterlimit="10" points="294.377,204.583 293.937,321.635 
						211.152,292.871 211.589,175.817 					"/>
				</g>
			</g>
		</g>
	</g>
	<g>
		<g>
			<g enable-background="new    ">
				<g>
					<polygon fill="#BEDC94" stroke="#FFFFFF" stroke-width="4" stroke-miterlimit="10" points="539.021,175.805 456.751,204.583 
						373.97,175.817 456.241,147.034 					"/>
				</g>
				<g>
					<polygon fill="#BEDC94" stroke="#FFFFFF" stroke-width="4" stroke-miterlimit="10" points="539.021,175.805 538.581,292.859 
						456.311,321.635 456.751,204.583 					"/>
				</g>
				<g>
					<polygon fill="#BEDC94" stroke="#FFFFFF" stroke-width="4" stroke-miterlimit="10" points="456.751,204.583 456.311,321.635 
						373.529,292.871 373.97,175.817 					"/>
				</g>
			</g>
		</g>
	</g>
</g>
</svg>
