<svg xmlns="http://www.w3.org/2000/svg" xmlns:xlink="http://www.w3.org/1999/xlink" preserveAspectRatio="xMinYMin meet" viewBox="0 0 491.09814 342.94312" width="100%" height="100%"><defs><path id="7" d="m1228.67 370.2l3.18-7.11c.204-.456.391-.906.877-.906h31.364c.486 0 .729.428.877.906l2.192 7.11" stroke-width=".455" fill="#ececec" stroke="#000"/><path id="8" d="m54.637-540.43c-10.998.001-22.275 5.222-25.358 12.04-3.293 7.284 3.922 13.549 16.315 13.546 12.39-.003 24.01-6.27 25.863-13.552 1.738-6.818-5.824-12.04-16.82-12.04m-.641 1.815c7.01-.001 11.389 4.461 9.712 10.223-1.773 6.09-9.558 11.29-17.315 11.292-7.755.002-11.896-5.191-9.361-11.288 2.396-5.763 9.95-10.226 16.964-10.227" fill-opacity=".753" fill="#74c227"/><linearGradient xlink:href="#0" id="5" gradientUnits="userSpaceOnUse" x1="267.51" y1="400.96" x2="267.47" y2="397.44"/><linearGradient xlink:href="#0" id="4" gradientUnits="userSpaceOnUse" x1="370.64" y1="588.72" x2="368.02" y2="591.08"/><linearGradient xlink:href="#0" id="6" gradientUnits="userSpaceOnUse" x1="471.01" y1="387.94" x2="471.05" y2="391.46"/><linearGradient xlink:href="#0" id="3" gradientUnits="userSpaceOnUse" x1="202.57" y1="373.85" x2="205.23" y2="371.54"/><linearGradient xlink:href="#0" id="1" gradientUnits="userSpaceOnUse" x1="191.45" y1="312.81" x2="190.66" y2="309.38"/><linearGradient id="0"><stop stop-color="#232323"/><stop offset="1" stop-color="#474747"/></linearGradient><linearGradient xlink:href="#0" id="2" gradientUnits="userSpaceOnUse" x1="442.47" y1="265.31" x2="443.31" y2="268.73"/></defs><g transform="translate(-126.76-227.43)"><g transform="translate(.758-1.01)"><path d="m299.67 411.94v49.737h36.979v-37.634l-23.06-12.1h-13.916z" fill="#fff" stroke="#000" stroke-width="2.31"/><path d="m328.94 435.54l6.618-8.961-23.04-12.852 15.565 20.734.856 1.078" fill="#c8b7b7"/><path d="m331.17 428.95l5.522-6.6-22.466-9.905 16.944 16.505z" fill="#fff" stroke="#000" stroke-linejoin="round" stroke-linecap="round" stroke-width="2.31"/></g><g transform="matrix(3.45583 0 0 3.45583-3879.76-457.9)"><g transform="matrix(.82011 0 0 .82011 253.76-158.24)"><g transform="matrix(1.04532 0 0 1.04532 1095.01 459.9)"><path d="m30 2.362l-20 10 20 10 20-10z" fill="#f9f9f9"/><path d="m30 22.362v25l20-10v-25z" fill="#ececec"/><path d="m30 22.362v25l-20-10v-25z" fill="#ccc"/><path d="m30 2.375l-20 10v25l20 10 20-10v-25l-20-10z" fill="none" stroke="#4d4d4d"/></g><g transform="matrix(-.20046 0 0-.20046 1339.3 497.43)"><path d="m1148.64 61.63c6.949 3.475 12.583-2.812 12.583-14.03 0-11.222-5.634-23.12-12.583-26.593-6.949-3.475-12.569 2.796-12.569 14.02 0 11.222 5.62 23.13 12.569 26.609m0-3.217c-4.392-2.196-7.947-11.646-7.947-21.08 0-9.436 3.553-15.309 7.947-13.11 4.392 2.196 7.96 11.623 7.96 21.07 0 9.436-3.568 15.325-7.96 13.13" fill="#74c227" fill-opacity=".753"/><path d="m1063.22 14.69s0 3.137 0 3.137c0 0 7.253 3.626 7.253 3.626 0 0 0 15.06 0 15.06 0 0 .806.403.806.403.645-5.055 1.558-10.692 3.439-13.339 0 0 4.03 2.01 4.03 2.01 0 0 0-3.137 0-3.137 0 0-4.03-2.01-4.03-2.01 0 0 0-27.611 0-27.611 0-7.975-3.815-10.783-5.479-11.616 0 0-5.588 1.24-5.588 1.24 0 0 2.687 1.343 2.687 1.343 2.149 1.075 4.137 3.951 4.137 9.953 0 0 0 24.562 0 24.562 0 0-7.253-3.626-7.253-3.626m27.487 17.912c0 0 7.575 1.816 7.575 1.816-1.773-2.948-3.815-6.03-3.815-7.913 0 0 0-31.728 0-31.728 0 0-4.352-2.176-4.352-2.176 0 0 0 25.364 0 25.364 0 6.095-2.149 7.082-3.6 6.357-.914-.457-1.827-.645-3.6-2.876-.645-1.219-.591-3.522-.806-3.63 0 0-2.203 5.532-2.203 5.532 0 1.703.645 4.177 2.418 5.064 2.149 1.075 3.922.258 7.793-2.468 0 0 .591 6.66.591 6.66m19.278 7.671c-1.125-2.176-3.867-5.279-3.922-7.967 0 0 0-31.728 0-31.728 0 0-4.406-2.203-4.406-2.203 0 0 0 39.26 0 39.26 0 0 .054.475.054.475 0 0 8.273 2.165 8.273 2.165m-9.171 9.405c0-2.708 1.316-4.245 2.939-3.434 1.623.812 2.939 3.665 2.939 6.373 0 2.708-1.316 4.245-2.939 3.434-1.623-.812-2.939-3.665-2.939-6.373m40.558 26.18c-.878-1.425-1.755-2.85-2.633-4.274 0 0-6.931-31.522-6.931-31.522 0 0-5.91-29.577-5.91-29.577 0 0-3.278-1.639-3.278-1.639 0 0-6.716 25.325-6.716 25.325-2.149 8.247-5.534 19.911-6.878 23.721 0 0-1.182 1.202-1.182 1.202 0 0 3.439 1.719 3.439 1.719 0 0-.054-.475-.054-.475 0 0 5.319-21.631 5.319-21.631 0 0 5.964-20.95 5.964-20.95 0 0 .698.529.698.529 0 0 5.104 23.975 5.104 23.975 0 0 5.964 28.618 5.964 28.618.054.565.054 1.013.054 1.461 0 0 7.04 3.519 7.04 3.519" fill="#4e9a06"/></g><g transform="matrix(.91751 0 0 1.04354 145.08.092)"><path d="m1072.39 471.87c.885-.443 1.328.068 1.328 1.532 0 .3-.01.615-.031.943-.013.325-.041.621-.084.888-.181.136-.373.268-.575.397-.202.128-.404.252-.607.371-.195.116-.38.222-.554.318-.174.087-.324.162-.45.225.01.359.031.648.074.863.049.212.111.367.188.465.077.098.174.145.293.14.119-.005.258-.047.418-.127.209-.105.415-.244.617-.418.202-.183.394-.383.575-.601.028.086.046.2.052.342.014.139.021.262.021.372 0 .109-.038.228-.115.358-.077.129-.181.263-.314.402-.132.13-.286.257-.46.38-.174.123-.359.234-.554.332-.244.122-.47.194-.68.217-.202.019-.376-.048-.523-.202-.146-.163-.261-.433-.345-.81-.084-.376-.126-.897-.126-1.561 0-.855.052-1.563.157-2.125.111-.574.251-1.039.418-1.396.174-.36.373-.637.596-.83.223-.202.45-.361.68-.476m-.094 1.016c-.105.052-.206.139-.303.261-.098.113-.188.281-.272.504-.077.211-.143.481-.199.809-.049.315-.08.708-.095 1.18.098-.049.209-.105.335-.167.126-.063.251-.13.376-.202.132-.084.258-.165.377-.243.126-.081.234-.162.324-.244.021-.138.035-.281.042-.43.01-.151.01-.287.01-.414-.01-.486-.052-.811-.136-.969-.084-.167-.237-.195-.46-.084"/><path d="m1074.46 471.3c.105-.107.223-.221.356-.341.132-.13.272-.25.418-.359.146-.119.293-.228.439-.329.153-.104.3-.191.439-.261.551-.275.934-.326 1.15-.152.216.165.324.579.324 1.243 0 0 0 4.911 0 4.911 0 .055-.01.105-.021.147-.01.033-.038.069-.095.115-.056.038-.143.085-.261.144-.119.059-.286.143-.502.251 0 0 0-4.802 0-4.802 0-.437-.038-.722-.115-.856-.077-.143-.247-.149-.512-.017-.111.056-.241.143-.387.262-.139.106-.268.23-.387.371 0 0 0 5.525 0 5.525 0 .055-.01.105-.021.147-.01.032-.038.069-.094.115-.056.038-.139.083-.251.139-.112.056-.272.136-.481.241 0 0 0-6.494 0-6.494"/><path d="m1080.14 467.99c.07-.035.15-.065.241-.093.098-.031.192-.05.282-.059 0 0 1.255-.627 1.255-.627.021.035.038.094.052.179.021.081.031.185.031.312 0 .282-.098.472-.293.569-.098.049-.223.089-.377.12.119.095.213.248.282.459.077.207.115.479.115.816 0 .728-.132 1.376-.398 1.945-.258.556-.69.986-1.297 1.289-.195.098-.352.158-.47.181-.07.126-.132.257-.188.394-.056.137-.084.251-.084.342 0 .064.031.103.095.116.062.005.15-.007.261-.035.112-.029.241-.066.387-.112.153-.049.317-.104.492-.164.209-.059.397-.094.565-.105.167-.02.31.004.429.072.125.055.22.159.282.309.07.147.104.357.104.63 0 .291-.038.588-.115.89-.077.311-.199.609-.366.892-.16.289-.37.558-.627.805-.251.253-.551.466-.899.641-.349.174-.634.272-.858.292-.216.026-.387-.002-.512-.085-.119-.086-.199-.205-.241-.357-.042-.152-.062-.319-.062-.501 0-.337.077-.684.23-1.043.153-.35.342-.68.565-.992-.202.028-.362.013-.481-.046-.112-.072-.164-.2-.157-.385.01-.187.07-.412.188-.681.118-.277.279-.571.481-.882-.244-.087-.415-.284-.512-.59-.09-.319-.136-.696-.136-1.132 0-.455.042-.862.126-1.222.084-.36.202-.674.356-.942.153-.277.334-.513.544-.708.216-.199.453-.363.711-.492m-.031.834c-.223.112-.415.335-.575.67-.153.322-.23.783-.23 1.384 0 .246.01.459.031.639.021.181.059.325.115.434.056.099.132.161.23.185.105.011.237-.023.397-.103.279-.139.481-.391.607-.753.125-.363.188-.844.188-1.445 0-.5-.066-.822-.199-.965-.126-.156-.314-.171-.565-.045m-.251 6.01c-.035.018-.067.033-.095.047-.028.005-.059.012-.094.02-.153.231-.286.484-.397.758-.111.274-.167.525-.167.752 0 .109.01.199.031.271.028.077.074.131.136.164.062.033.15.039.262.019.119-.023.268-.08.45-.17.188-.094.348-.206.481-.336.132-.13.241-.27.324-.421.09-.145.157-.292.199-.44.042-.139.062-.268.062-.386 0-.155-.021-.272-.062-.351-.035-.082-.098-.133-.188-.151-.09-.028-.213-.021-.366.019-.153.04-.345.109-.575.206"/><path d="m1083.45 473.08c0 .055-.01.105-.021.147-.01.032-.038.069-.094.115-.056.038-.143.085-.261.144-.112.056-.275.138-.492.246 0 0 0-6.316 0-6.316 0-.127.01-.228.031-.302.028-.087.073-.159.136-.218.07-.071.16-.135.272-.191.112-.065.255-.141.429-.228 0 0 0 6.603 0 6.603m-.858-8.343c.01-.251.049-.466.126-.649.077-.193.199-.331.366-.415.16-.08.272-.077.335.01.062.087.09.278.084.572 0 .282-.042.521-.126.718-.077.193-.195.329-.356.41-.139.07-.247.06-.324-.029-.07-.092-.105-.298-.105-.616"/><path d="m1084.41 466.32c.105-.107.223-.221.355-.341.132-.13.272-.25.418-.359.146-.119.293-.228.439-.329.153-.104.3-.191.439-.261.551-.275.934-.326 1.15-.152.216.165.324.579.324 1.243 0 0 0 4.911 0 4.911 0 .055-.01.105-.021.147-.01.032-.038.069-.095.115-.056.038-.143.085-.262.144-.119.059-.286.143-.502.251 0 0 0-4.802 0-4.802 0-.437-.038-.722-.115-.857-.077-.143-.247-.149-.512-.017-.112.056-.241.143-.387.262-.139.106-.268.23-.387.371 0 0 0 5.525 0 5.525 0 .055-.01.105-.021.147-.01.032-.039.069-.095.115-.056.038-.139.083-.251.139-.112.056-.272.136-.481.241 0 0 0-6.494 0-6.494"/><path d="m1090.11 463.01c.885-.443 1.328.068 1.328 1.532 0 .3-.01.615-.031.943-.013.325-.041.621-.084.888-.181.136-.373.268-.575.397-.202.128-.404.252-.607.371-.195.116-.38.222-.554.318-.174.087-.324.162-.45.225.01.359.031.648.074.863.049.212.111.367.188.465.077.098.174.145.293.14.119-.005.258-.047.418-.127.209-.105.415-.244.617-.418.202-.183.394-.383.575-.601.028.086.046.2.052.342.014.139.021.262.021.372 0 .109-.038.228-.115.358-.077.129-.181.263-.314.402-.132.13-.286.257-.46.38-.174.123-.359.234-.554.332-.244.122-.47.194-.68.217-.202.019-.376-.048-.523-.202-.146-.163-.261-.433-.345-.81-.084-.376-.125-.897-.125-1.561 0-.855.052-1.563.157-2.125.112-.574.251-1.039.418-1.396.174-.36.373-.637.596-.83.223-.202.45-.361.68-.476m-.095 1.016c-.105.052-.206.139-.303.261-.098.113-.188.281-.272.504-.077.211-.143.481-.199.809-.049.315-.08.708-.094 1.18.098-.049.209-.105.334-.167.126-.063.251-.13.377-.202.132-.084.258-.165.376-.243.126-.081.234-.162.324-.244.021-.138.035-.281.042-.43.01-.151.01-.287.01-.414-.01-.486-.052-.811-.136-.969-.084-.167-.237-.195-.46-.084"/></g></g><g transform="matrix(-.03864 0 0-.03864 1183.02 232.71)"><g fill="#c00"><path d="m228.31 17.543s9.512-8.525 9.512-8.525c0 0 3.189 1.595 3.189 1.595 0 0-9.198 8.263-9.198 8.263 0 0 4.166 2.083 4.166 2.083 0 0 12.862-6.431 12.862-6.431 0 0 2.715 1.357 2.715 1.357 0 0-32.508 16.254-32.508 16.254 0 0-8.093-4.046-8.093-4.046-3.218-1.609-2.913-4.475 3.776-7.82 5.199-2.599 9.96-3.425 13.578-2.729m-12.757 8.251c0 0 5.378 2.689 5.378 2.689 0 0 10.45-5.225 10.45-5.225 0 0-5.378-2.689-5.378-2.689-1.846-.923-4.808-.733-8.338 1.032-3.391 1.695-3.984 3.256-2.112 4.193"/><path d="m212.02 6.607s9.148 4.574 9.148 4.574c4.399-2.49 4.894-4.24 3.206-5.084-1.16-.58-2.824-.67-4.955-.527 0 0 1.455-2.336 1.455-2.336 3.255-.415 5.866-.271 7.976.784 3.242 1.621 1.388 5.291-6.692 9.331-8.267 4.134-15.206 5.124-18.789 3.332-3.928-1.964-.209-5.723 6.388-9.02.879-.44 1.725-.81 2.264-1.053m-4.148 8.01c1.82.91 5.155.35 9.295-1.482 0 0-6.433-3.216-6.433-3.216-3.213 1.737-5.104 3.578-2.863 4.699"/><path d="m210.73-4.53s-2.32 1.16-2.32 1.16c2.628-.312 4.993-.335 6.443.39 2.98 1.49 1.52 4.566-7.771 9.211-8.36 4.18-14.891 4.862-17.765 3.425-1.398-.699-1.415-2.01-.695-3.134 0 0-9.289 4.644-9.289 4.644 0 0-5.151-.114-5.151-.114 0 0 33.856-16.928 33.856-16.928 0 0 2.69 1.345 2.69 1.345m-17.301 8.624c-.834 1.024-1.333 2.539.037 3.225 1.951.975 5.607.202 10.761-2.375 6.13-3.065 7.715-4.964 5.711-5.967-1.291-.646-3.958-.446-6.246-.014 0 0-10.263 5.131-10.263 5.131"/><path d="m185.26-17.262s-14.582 7.291-14.582 7.291c0 0 8.491 4.245 8.491 4.245 0 0 14.582-7.291 14.582-7.291 0 0 2.767 1.384 2.767 1.384 0 0-32.508 16.254-32.508 16.254 0 0-2.767-1.384-2.767-1.384 0 0 13.14-6.571 13.14-6.571 0 0-8.491-4.245-8.491-4.245 0 0-13.14 6.571-13.14 6.571 0 0-2.767-1.384-2.767-1.384 0 0 32.508-16.254 32.508-16.254 0 0 2.767 1.384 2.767 1.384"/><path d="m170.16-24.813s-2.412 1.206-2.412 1.206c2.619-.361 5.218-.315 6.72.436 2.241 1.12 2.571 3.513-3.422 6.509-5.433 2.717-10.268 2.761-13.405 1.193-1.293-.646-1.996-1.323-2.156-2.01 0 0-1.813.906-1.813.906-2.647 1.323-3.21 2.528-1.523 3.371 1.423.712 2.996 1.034 5.145 1.039 0 0-2.566 2.338-2.566 2.338-2.759.061-4.98-.305-6.93-1.281-3.084-1.542-2.548-3.921 2.98-6.685 0 0 16.717-8.359 16.717-8.359 0 0 2.665 1.332 2.665 1.332m-10.4 5.2c.086.694.616 1.379 2.093 2.117 1.739.87 4.241.727 6.471-.388 2.412-1.206 3.17-2.455 1.378-3.351-1.451-.726-4.294-.569-6.459-.118 0 0-3.481 1.74-3.481 1.74 0 0-.002-.001-.002-.001"/><path d="m156.38-31.1c1.312.004 2.696.234 3.777.775 1.925.962 1.024 2.599-3.343 4.783 0 0-14.07 7.04-14.07 7.04 0 0 1.977.989 1.977.989 0 0-4.367 2.183-4.367 2.183 0 0-1.977-.989-1.977-.989 0 0-6.966 3.483-6.966 3.483 0 0-5.17-.078-5.17-.078 0 0 9.473-4.737 9.473-4.737 0 0-3.427-1.714-3.427-1.714 0 0 4.367-2.183 4.367-2.183 0 0 3.427 1.714 3.427 1.714 0 0 13.236-6.618 13.236-6.618 2.275-1.137 2.505-1.674 1.503-2.175-.712-.356-1.967-.519-2.979-.513 0 0 4.54-1.955 4.54-1.955"/><path d="m138.19 105.94c-8.598-.27-19.18 1.911-28.378 6.51-21.438 10.719-15.03 18.538-4.676 23.411 0 0 27.12 13.558 27.12 13.558 0 0 .155.077.155.077 0 0 15.03 7.517 15.03 7.517 0 0 68.45-34.23 68.45-34.23 9.94-4.97 15.35-5.708 18.853-3.956 3.764 1.882 2.152 4.805-4.621 8.191 0 0-9.48 4.74-9.48 4.74 0 0 14.296 7.148 14.296 7.148 0 0 4.439-2.22 4.439-2.22 22.892-11.446 33.569-21.766 18.13-29.483-12.59-6.295-29.07-4.713-49.48 4.475 0 0 27.06-13.532 27.06-13.532 0 0-28-14-28-14-12.493-6.246-30.17-7.614-54.627 4.613-11.645 5.822-17.31 12.483-14.278 17.18m-.275 25.609c0 0-11.75-5.875-11.75-5.875-3.191-1.595-3.748-4.336 3.721-8.07 7.334-3.667 13.371-3.094 15.99-1.785 0 0 11.75 5.875 11.75 5.875 0 0-19.711 9.856-19.711 9.856m48.4-36.36c0 0 12.161 6.081 12.161 6.081 0 0-23.602 11.801-23.602 11.801 0 0-12.161-6.081-12.161-6.081-4.577-2.288-5.138-5.601 3.902-10.122 8.499-4.25 14.879-4.09 19.7-1.679"/><path d="m288.44 51.713c-17.349 8.674-23.451 19.718-13.597 24.645 9.873 4.936 31.956 1.883 49.3-6.792 17.38-8.69 23.459-19.717 13.586-24.653-9.854-4.927-31.913-1.89-49.29 6.8"/><path d="m325.94 80.38c-15.371 7.686-20.76 17.461-12.03 21.828 8.733 4.366 28.28 1.671 43.65-6.02 15.385-7.692 20.784-17.467 12.05-21.834-8.734-4.367-28.29-1.67-43.675 6.02"/><path d="m311.35 123.41c-13.881 6.941-18.761 15.759-10.87 19.705 7.894 3.947 25.542 1.512 39.42-5.428 13.919-6.96 18.789-15.784 10.895-19.731-7.89-3.945-25.53-1.506-39.449 5.454"/><path d="m247.94 161.74c-12.413 6.207-16.744 14.07-9.705 17.593 7.04 3.519 22.782 1.361 35.2-4.847 12.4-6.2 16.751-14.09 9.713-17.608-7.04-3.52-22.808-1.337-35.21 4.861"/><path d="m167.18 184.25c-10.414 5.207-14.05 11.834-8.146 14.788 5.912 2.956 19.16 1.132 29.572-4.075 10.423-5.211 14.06-11.831 8.152-14.787-5.908-2.954-19.16-1.137-29.579 4.074"/><path d="m108.74 182.88c-9.424 4.712-12.737 10.701-7.385 13.376 5.35 2.675 17.335 1.022 26.759-3.689 9.44-4.72 12.743-10.713 7.395-13.387-5.352-2.676-17.328-1.019-26.768 3.701"/><path d="m67.61 171.31c-7.94 3.97-10.731 9.01-6.219 11.267 4.5 2.25 14.598.863 22.539-3.108 7.949-3.975 10.722-9.02 6.222-11.273-4.511-2.256-14.592-.862-22.542 3.113"/></g><g fill="#61615c"><path d="m30.396 40.38c3.928 4.403 12.373 9.915 5.31 13.447-5.185 2.593-9.292.961-11.571-.179-1.714-.857-2.674-1.919-2.547-3.138.167-1.215 1.527-2.55 4.675-4.124 0 0-12.823-6.411-12.823-6.411-18.909 9.947-13.941 17.18-4.651 21.829 7.741 3.87 22.04 6.777 38.441-.033-13.387 8.594-8.574 14.966-.129 19.19 8.332 4.166 24.685 7.445 42.662-1.543.318-.159.562-.308.867-.464-10.963 8.713-12.905 17.319-3.085 22.23 10.621 5.311 29.491 3.818 48.29-2.898 2.812-3.459 8.08-7.172 14.705-10.485 5.44-2.72 10.747-4.882 15.894-6.525 8.237-7.77 8.927-15.14.068-19.571-9.412-4.706-25.525-4.03-42.15.835 15.12-9.369 10.697-16.563 1.489-21.17-7.918-3.959-21.234-6.05-36.949-.952 10.552-8.136 6.144-14.45-2.215-18.629-9.55-4.775-26.94-6.862-46.937 3.137-6.18 3.092-14.88 9.656-9.343 15.454m117.42 30.668c6.457 3.228-2.786 9.812-12.293 14.565-9.48 4.74-22.827 9.452-29.28 6.223-6.449-3.225 2.898-9.938 12.376-14.677 9.511-4.754 22.752-9.336 29.2-6.111m-37.721-21.721c1.956.978 3 2.339 2.573 3.861-.489 1.624-2.313 3.445-6.04 5.309 0 0 11.849 5.924 11.849 5.924-4.642 1.629-9.268 3.559-13.743 5.796-2.088 1.044-4.01 2.109-5.84 3.181 6.616-6.555-.573-11.11-4.357-16.05-1.445-1.717-4.607-4.468 1.13-7.337 5.907-2.953 11.746-2.027 14.43-.685m-39.16-19.581c1.954.977 2.998 2.338 2.572 3.86-.489 1.624-2.313 3.445-6.04 5.309 0 0 11.316 5.658 11.316 5.658-6.173 3.116-14.716 9.627-9.215 15.388 3.927 4.403 11.945 9.702 4.882 13.233-5.185 2.593-9.717.749-11.996-.391-1.715-.857-2.674-1.919-2.547-3.138.166-1.216 1.527-2.55 4.675-4.124 0 0-12.312-6.156-12.312-6.156 18.34-9.664 7.842-15.438 3.11-21.619-1.446-1.717-4.607-4.468 1.13-7.337 5.903-2.953 11.743-2.026 14.427-.684"/><path d="m-26.807 56.955s-1.235-.618-1.235-.618c0 0 3.521-3.619 3.521-3.619 0 0-1.204-.602-1.204-.602 0 0-3.468 3.745-3.468 3.745-1.263-.401-3.01-.311-5.219.792-2.478 1.239-2.73 2.181-1.066 3.01 0 0 2.69 1.345 2.69 1.345 0 0 12.427-6.213 12.427-6.213 0 0-1.066-.533-1.066-.533 0 0-5.379 2.69-5.379 2.69m-1.61.805c0 0-3.857 1.929-3.857 1.929 0 0-1.463-.731-1.463-.731-.726-.363-1.238-.917.302-1.687 1.91-.955 2.83-.605 3.734-.153 0 0 1.285.642 1.285.642"/><path d="m-35.799 53.27c6.718-3.359 15.253-4.53 19.07-2.623 3.822 1.911 1.481 6.178-5.237 9.538-6.734 3.367-15.283 4.544-19.1 2.633-3.81-1.907-1.459-6.181 5.276-9.548m-3.108 8.465c3.154 1.577 10.166.615 15.717-2.161 5.526-2.763 7.448-6.268 4.294-7.845-3.136-1.568-10.146-.607-15.672 2.156-5.552 2.774-7.475 6.282-4.339 7.849"/><path d="m283.09 31.14c1.398.699 1.417 2.01.696 3.132 0 0 2.275-1.137 2.275-1.137 0 0 2.69 1.345 2.69 1.345 0 0-31.394 15.697-31.394 15.697 0 0-5.152-.114-5.152-.114 0 0 11.796-5.898 11.796-5.898-2.629.313-4.994.337-6.446-.389-2.978-1.489-1.516-4.566 7.772-9.21 8.362-4.181 14.89-4.862 17.764-3.426m-20.62 10.68c1.293.646 3.96.447 6.25.012 0 0 10.263-5.131 10.263-5.131.834-1.024 1.333-2.537-.038-3.223-1.951-.975-5.604-.205-10.76 2.373-6.132 3.066-7.719 4.967-5.715 5.969"/><path d="m277.49 20.261s2.873 1.437 2.873 1.437c0 0-11.06 3.527-11.06 3.527 0 0-18.829 14.503-18.829 14.503 0 0-2.98-1.49-2.98-1.49 0 0 9.671-7.102 9.671-7.102 1.714-1.278 4.703-3.406 5.89-4.157-1.676.6-5.739 2.052-8.248 2.885 0 0-14.377 4.841-14.377 4.841 0 0-2.873-1.437-2.873-1.437 0 0 39.933-13.01 39.933-13.01"/></g></g></g><g transform="translate(-16.415)"><path d="m433.33 334.58v49.737h36.979v-37.634l-23.06-12.1h-13.916z" fill="#fff" stroke="#000" stroke-width="2.31"/><g transform="translate(17.425)"><path d="m446.09 358.35l6.618-8.961-23.04-12.852 15.565 20.734.856 1.078" fill="#c8b7b7"/><path d="m448.31 351.76l5.522-6.6-22.466-9.905 16.944 16.505z" fill="#fff" stroke="#000" stroke-linejoin="round" stroke-linecap="round" stroke-width="2.31"/></g></g><g font-family="monospace" font-size="2.531"><text x="301.39" y="434.81">{<tspan fill="#ba2121">'</tspan><tspan fill="#ba2121">status</tspan><tspan fill="#ba2121">'</tspan>:</text><text x="301.39" y="438.25">    {<tspan fill="#ba2121">'</tspan><tspan fill="#ba2121">message</tspan><tspan fill="#ba2121">'</tspan>: <tspan fill="#ba2121">'</tspan><tspan fill="#ba2121">Done</tspan><tspan fill="#ba2121">'</tspan>,</text><text x="301.39" y="441.68">     <tspan fill="#ba2121">'</tspan><tspan fill="#ba2121">code</tspan><tspan fill="#ba2121">'</tspan>: <tspan fill="#666">0</tspan></text><text x="301.39" y="445.12">    }</text><text x="301.39" y="448.55">}</text><text x="301.39" y="451.99"/></g><text x="301.17" y="421.97" font-family="Yanone Kaffeesatz" word-spacing="0" line-height="125%" letter-spacing="0" font-size="11.184"><tspan x="301.17" y="421.97">xml</tspan></text><g transform="matrix(3.45583 0 0 3.45583-3764.63-872.21)"><use xlink:href="#7"/><path d="m1229.37 369.97h37.04c.502 0 .906.404.906.905v3.046h-38.851v-3.046c0-.502.404-.905.905-.905z" fill="#f9f9f9" stroke="#000" stroke-linejoin="round" stroke-linecap="round" stroke-width=".463"/><text y="373.6" x="1244.01" font-family="Yanone Kaffeesatz" word-spacing="0" line-height="125%" letter-spacing="0" font-size="4.87"><tspan y="373.6" x="1244.01">vdsm</tspan></text><g transform="matrix(.1672 0 0 .1672 1230.48 455.28)"><use xlink:href="#8"/><path d="m190.44-538.04s-.561-1.778-.561-1.778c0 0-11.493.001-11.493.001 0 0-2.101-8.122-2.101-8.122 0 0-1.226 0-1.226 0-.283 2.825-.899 6.127-3.4 8.122 0 0-6.387 0-6.387 0 0 0 .345 1.779.345 1.779 0 0 6.443-.001 6.443-.001 0 0 3.858 17.11 3.858 17.11 1.238 5.49 8.174 6.125 11.137 6.124 0 0 9.07-2.828 9.07-2.828 0 0-4.723.001-4.723.001-3.778.001-7.609-1.293-8.652-5.324 0 0-3.902-15.08-3.902-15.08 0 0 11.594-.001 11.594-.001m-44.18-2.353c0 0-11.931 1.109-11.931 1.109 2.883 1.172 6.232 2.356 6.31 3.451 0 0 1.444 20.371 1.444 20.371 0 0 7.73-.002 7.73-.002 0 0-1.74-16.583-1.74-16.583-.381-3.63 2.95-4.83 5.283-4.83 1.469 0 2.915-.156 5.891.624 1.127.523 1.268 1.895 1.618 1.895 0 0 2.873-3.859 2.873-3.859-.179-.968-1.422-2.177-4.224-2.177-3.397 0-6.07.957-11.938 3.621 0 0-1.314-3.621-1.314-3.621m-30.538 1.108c1.751.916 6.11 1.908 6.168 3.451 0 0-.406 20.373-.406 20.373 0 0 7.828-.002 7.828-.002 0 0-.36-24.681-.36-24.681 0 0-.089-.251-.089-.251 0 0-13.14 1.109-13.14 1.109m14.422-7.611c.03 1.428-1.985 2.601-4.503 2.601-2.518 0-4.529-1.173-4.494-2.601.035-1.408 2.051-2.534 4.503-2.534 2.452 0 4.464 1.126 4.494 2.534m-61.19-3.04c1.178.502 2.362 1.01 3.552 1.513 0 0 7.07 15.629 7.07 15.629 0 0 6.662 17.35 6.662 17.35 0 0 5.826-.001 5.826-.001 0 0 13.739-18.585 13.739-18.585 3.939-5.401 9.709-12.668 11.867-14.991 0 0 1.821-.914 1.821-.914 0 0-5.182 0-5.182 0 0 0 .067.228.067.228 0 0-9.372 13.202-9.372 13.202 0 0-11.833 14.907-11.833 14.907 0 0-1.189-.12-1.189-.12 0 0-6.215-13.423-6.215-13.423 0 0-6.294-14.06-6.294-14.06-.015-.275.04-.503.095-.731 0 0-10.612 0-10.612 0" fill="#4e9a06"/></g></g><g stroke="#000" stroke-width=".801"><path d="m250.08 387.92h233.53v-1.994l4.337 2.849-4.337 3.02v-1.924h-233.53z" fill="url(#6)"/><path d="m483.66 400.97h-228.75v1.994l-4.337-2.849 4.337-3.02v1.924h228.75z" fill="url(#5)"/></g><g transform="matrix(3.45583 0 0 3.45583-3845.04-1018.37)"><use xlink:href="#7"/><path d="m1229.37 369.97h37.04c.502 0 .906.404.906.905v3.046h-38.851v-3.046c0-.502.404-.905.905-.905z" fill="#f9f9f9" stroke="#000" stroke-linejoin="round" stroke-linecap="round" stroke-width=".463" id="9"/><text y="373.6" x="1244.01" font-family="Yanone Kaffeesatz" word-spacing="0" line-height="125%" letter-spacing="0" font-size="4.87"><tspan y="373.6" x="1244.01">vdsm</tspan></text><g transform="matrix(.1672 0 0 .1672 1230.48 455.28)"><use xlink:href="#8"/><path d="m190.44-538.04s-.561-1.778-.561-1.778c0 0-11.493.001-11.493.001 0 0-2.101-8.122-2.101-8.122 0 0-1.226 0-1.226 0-.283 2.825-.899 6.127-3.4 8.122 0 0-6.387 0-6.387 0 0 0 .345 1.779.345 1.779 0 0 6.443-.001 6.443-.001 0 0 3.858 17.11 3.858 17.11 1.238 5.49 8.174 6.125 11.137 6.124 0 0 9.07-2.828 9.07-2.828 0 0-4.723.001-4.723.001-3.778.001-7.609-1.293-8.652-5.324 0 0-3.902-15.08-3.902-15.08 0 0 11.594-.001 11.594-.001m-44.18-2.353c0 0-11.931 1.109-11.931 1.109 2.883 1.172 6.232 2.356 6.31 3.451 0 0 1.444 20.371 1.444 20.371 0 0 7.73-.002 7.73-.002 0 0-1.74-16.583-1.74-16.583-.381-3.63 2.95-4.83 5.283-4.83 1.469 0 2.915-.156 5.891.624 1.127.523 1.268 1.895 1.618 1.895 0 0 2.873-3.859 2.873-3.859-.179-.968-1.422-2.177-4.224-2.177-3.397 0-6.07.957-11.938 3.621 0 0-1.314-3.621-1.314-3.621m-30.538 1.108c1.751.916 6.11 1.908 6.168 3.451 0 0-.406 20.373-.406 20.373 0 0 7.828-.002 7.828-.002 0 0-.36-24.681-.36-24.681 0 0-.089-.251-.089-.251 0 0-13.14 1.109-13.14 1.109m14.422-7.611c.03 1.428-1.985 2.601-4.503 2.601-2.518 0-4.529-1.173-4.494-2.601.035-1.408 2.051-2.534 4.503-2.534 2.452 0 4.464 1.126 4.494 2.534m-61.19-3.04c1.178.502 2.362 1.01 3.552 1.513 0 0 7.07 15.629 7.07 15.629 0 0 6.662 17.35 6.662 17.35 0 0 5.826-.001 5.826-.001 0 0 13.739-18.585 13.739-18.585 3.939-5.401 9.709-12.668 11.867-14.991 0 0 1.821-.914 1.821-.914 0 0-5.182 0-5.182 0 0 0 .067.228.067.228 0 0-9.372 13.202-9.372 13.202 0 0-11.833 14.907-11.833 14.907 0 0-1.189-.12-1.189-.12 0 0-6.215-13.423-6.215-13.423 0 0-6.294-14.06-6.294-14.06-.015-.275.04-.503.095-.731 0 0-10.612 0-10.612 0" fill="#4e9a06" id="A"/></g></g><g transform="matrix(3.45583 0 0 3.45583-3894.33-727.66)"><use xlink:href="#7"/><use xlink:href="#9"/><text y="373.6" x="1244.01" font-family="Yanone Kaffeesatz" word-spacing="0" line-height="125%" letter-spacing="0" font-size="4.87"><tspan y="373.6" x="1244.01">vdsm</tspan></text><g transform="matrix(.1672 0 0 .1672 1230.48 455.28)"><use xlink:href="#8"/><use xlink:href="#A"/></g></g><g stroke="#000" stroke-width=".801"><path d="m224.52 423.01l130.53 110.5 1.496-1.319.732 5.137-5.137-1.253 1.443-1.272-130.53-110.5z" fill="url(#4)"/><path d="m353.09 546.59l-132.66-115.44-1.517 1.294-.647-5.148 5.115 1.337-1.463 1.248 132.66 115.44z" fill="url(#3)"/><path d="m219.97 319.96l178.54-65.53-.455-1.941 4.873 1.783-3.532 3.934-.439-1.873-178.54 65.53z" fill="url(#2)"/><path d="m400.47 263.46l-165.2 60.772.431 1.947-4.85-1.844 3.581-3.89.416 1.878 165.2-60.772z" fill="url(#1)"/></g><g font-size="14" transform="matrix(.12244 0 0 .12148 418.32 350.59)" font-family="monospace"><text y="14" x="0">{<tspan fill="#ba2121">'</tspan><tspan fill="#ba2121">red</tspan><tspan fill="#ba2121">'</tspan>:</text><text y="33" x="0">    {<tspan fill="#ba2121">'</tspan><tspan fill="#ba2121">bonding</tspan><tspan fill="#ba2121">'</tspan>: <tspan fill="#ba2121">'</tspan><tspan fill="#ba2121">bond0</tspan><tspan fill="#ba2121">'</tspan>,</text><text y="52" x="0">     <tspan fill="#ba2121">'</tspan><tspan fill="#ba2121">vlan</tspan><tspan fill="#ba2121">'</tspan>: <tspan fill="#ba2121">'</tspan><tspan fill="#ba2121">3</tspan><tspan fill="#ba2121">'</tspan>,</text><text y="71" x="0">     <tspan fill="#ba2121">'</tspan><tspan fill="#ba2121">STP</tspan><tspan fill="#ba2121">'</tspan>: <tspan fill="#ba2121">'</tspan><tspan fill="#ba2121">no</tspan><tspan fill="#ba2121">'</tspan>,</text><text y="90" x="0">     <tspan fill="#ba2121">'</tspan><tspan fill="#ba2121">bridged</tspan><tspan fill="#ba2121">'</tspan>: <tspan fill="#ba2121">'</tspan><tspan fill="#ba2121">true</tspan><tspan fill="#ba2121">'</tspan></text><text y="109" x="0">    }</text><text y="128" x="0">},</text><text y="147" x="0">{<tspan fill="#ba2121">'</tspan><tspan fill="#ba2121">bond0</tspan><tspan fill="#ba2121">'</tspan>:</text><text y="166" x="0">    {<tspan fill="#ba2121">'</tspan><tspan fill="#ba2121">nics</tspan><tspan fill="#ba2121">'</tspan>: [<tspan fill="#ba2121">'</tspan><tspan fill="#ba2121">eth2</tspan><tspan fill="#ba2121">'</tspan>, <tspan fill="#ba2121">'</tspan><tspan fill="#ba2121">eth1</tspan><tspan fill="#ba2121">'</tspan>],</text><text y="185" x="0">     <tspan fill="#ba2121">'</tspan><tspan fill="#ba2121">options</tspan><tspan fill="#ba2121">'</tspan>: <tspan fill="#ba2121">'</tspan><tspan fill="#ba2121">mode=4</tspan><tspan fill="#ba2121">'</tspan></text><text y="204" x="0">    }</text><text y="223" x="0">},</text><text y="242" x="0">{<tspan fill="#ba2121">'</tspan><tspan fill="#ba2121">connectivityCheck</tspan><tspan fill="#ba2121">'</tspan>: <tspan fill="#ba2121">'</tspan><tspan fill="#ba2121">true</tspan><tspan fill="#ba2121">'</tspan>,</text><text y="261" x="0"> <tspan fill="#ba2121">'</tspan><tspan fill="#ba2121">connectivityTimeout</tspan><tspan fill="#ba2121">'</tspan>: <tspan fill="#666">120</tspan>}</text><text y="280" x="0"/></g><text x="418.42" y="345.41" fill="#000" font-family="Yanone Kaffeesatz" word-spacing="0" line-height="125%" letter-spacing="0" font-size="11.184"><tspan x="418.42" y="345.41">xml</tspan></text></g></svg>
