<svg xmlns="http://www.w3.org/2000/svg" preserveAspectRatio="xMinYMin meet" viewBox="0 0 248.31501 91.53671" height="100%" width="100%"><g transform="matrix(3.12418 0 0 3.12418-217.4 1707.8)"><path d="m80.27-537.46c-5.545 0-10.04 4.355-10.04 9.723 0 5.368 4.496 9.712 10.04 9.712 5.545 0 10.03-4.344 10.03-9.712 0-5.368-4.485-9.723-10.03-9.723m0 1.539c3.505 0 6.342 3.67 6.342 8.184 0 4.514-2.835 8.173-6.342 8.173-3.505 0-6.353-3.656-6.353-8.173 0-4.514 2.847-8.184 6.353-8.184" fill="#74c227" fill-opacity=".753"/><path d="m148.43-535.44v-1.501h-5.788v-7.203h-.643c-.515 2.573-1.243 5.488-2.744 7.203h-3.216v1.501h3.216v13.209c0 3.815 3.045 4.246 4.373 4.246l4.46-1.93h-2.144c-1.715 0-3.302-.901-3.302-3.772v-11.75h5.788m-21.935-1.994l-6.05.943c1.415.986 3.045 1.972 3.045 2.873v15.178h3.473v-12.133c0-2.916 1.715-3.902 2.873-3.902.729 0 1.458-.129 2.873.515.514.429.472 1.543.643 1.543l1.758-3.173c0-.815-.515-1.844-1.93-1.844-1.715 0-3.13.815-6.219 3.045l-.472-3.045m-15.384.942c.898.772 3.086 1.6 3.13 2.873v15.178h3.516v-18.779l-.043-.214-6.602.943m7.319-6.693c0 1.296-1.05 2.346-2.346 2.346-1.296 0-2.346-1.05-2.346-2.346 0-1.296 1.05-2.346 2.346-2.346 1.296 0 2.346 1.05 2.346 2.346zm-32.367-2.822c.7.472 1.401.943 2.101 1.415l5.531 13.421 4.717 12.735h2.616l5.36-13.721c1.715-4.459 4.417-10.848 5.489-12.992l.943-.858h-2.744l.043.214-4.245 11.62-4.76 11.449-.557-.086-4.074-10.248-4.76-12.263c-.043-.257-.043-.472-.043-.686h-5.617" fill="#4e9a06"/></g></svg>
