<?xml version="1.0" encoding="utf-8"?>
<!-- Generator: Adobe Illustrator 15.1.0, SVG Export Plug-In . SVG Version: 6.00 Build 0)  -->
<!DOCTYPE svg PUBLIC "-//W3C//DTD SVG 1.1//EN" "http://www.w3.org/Graphics/SVG/1.1/DTD/svg11.dtd">
<svg version="1.1" id="Layer_1" xmlns="http://www.w3.org/2000/svg" xmlns:xlink="http://www.w3.org/1999/xlink" x="0px" y="0px"
	 width="800px" height="600px" viewBox="0 0 800 600" enable-background="new 0 0 800 600" xml:space="preserve">
<text transform="matrix(1 0 0 1 112.9536 558.5449)" fill="#FFFFFF" font-family="'MyriadPro-Bold'" font-size="61.4903">OBJECT STORAGE</text>
<g>
	<g enable-background="new    ">
		<g>
			<polygon fill="#C0C0C0" stroke="#FFFFFF" stroke-width="4" stroke-miterlimit="10" points="521.525,165.729 352.659,224.801 
				182.733,165.755 351.604,106.679 			"/>
		</g>
		<g>
			<polygon fill="#C0C0C0" stroke="#FFFFFF" stroke-width="4" stroke-miterlimit="10" points="521.525,165.729 520.626,405.996 
				351.754,465.079 352.659,224.801 			"/>
		</g>
		<g>
			<polygon fill="#C0C0C0" stroke="#FFFFFF" stroke-width="4" stroke-miterlimit="10" points="352.659,224.801 351.754,465.079 
				181.833,406.029 182.733,165.755 			"/>
		</g>
	</g>
</g>
<g>
	<defs>
		<polygon id="SVGID_1_" points="331.922,249.083 331.246,428.744 204.192,384.592 204.867,204.935 		"/>
	</defs>
	<clipPath id="SVGID_2_">
		<use xlink:href="#SVGID_1_"  overflow="visible"/>
	</clipPath>
	<g clip-path="url(#SVGID_2_)">
		<g>
			<polygon fill="#E1C72E" stroke="#FFFFFF" stroke-width="4" stroke-miterlimit="10" points="395.841,340.63 305.773,372.134 
				215.14,340.641 305.209,309.132 			"/>
			<polygon fill="#E1C72E" stroke="#FFFFFF" stroke-width="4" stroke-miterlimit="10" points="395.841,340.63 395.362,373.614 
				305.29,405.123 305.773,372.134 			"/>
			<polygon fill="#E1C72E" stroke="#FFFFFF" stroke-width="4" stroke-miterlimit="10" points="305.773,372.134 305.29,405.123 
				214.66,373.624 215.14,340.641 			"/>
		</g>
		<g>
			<polygon fill="#E1C72E" stroke="#FFFFFF" stroke-width="4" stroke-miterlimit="10" points="395.841,297.815 305.773,329.319 
				215.14,297.826 305.209,266.317 			"/>
			<polygon fill="#E1C72E" stroke="#FFFFFF" stroke-width="4" stroke-miterlimit="10" points="395.841,297.815 395.362,330.799 
				305.29,362.308 305.773,329.319 			"/>
			<polygon fill="#E1C72E" stroke="#FFFFFF" stroke-width="4" stroke-miterlimit="10" points="305.773,329.319 305.29,362.308 
				214.66,330.814 215.14,297.826 			"/>
		</g>
		<g>
			<polygon fill="#E1C72E" stroke="#FFFFFF" stroke-width="4" stroke-miterlimit="10" points="395.841,255 305.773,286.504 
				215.14,255.011 305.209,223.502 			"/>
			<polygon fill="#E1C72E" stroke="#FFFFFF" stroke-width="4" stroke-miterlimit="10" points="395.841,255 395.362,287.982 
				305.29,319.493 305.773,286.504 			"/>
			<polygon fill="#E1C72E" stroke="#FFFFFF" stroke-width="4" stroke-miterlimit="10" points="305.773,286.504 305.29,319.493 
				214.66,287.995 215.14,255.011 			"/>
		</g>
	</g>
</g>
<g>
	<polygon fill="none" stroke="#FFFFFF" stroke-miterlimit="10" points="331.922,249.083 331.246,428.744 204.192,384.592 
		204.867,204.935 	"/>
</g>
</svg>
