<svg xmlns="http://www.w3.org/2000/svg" xmlns:xlink="http://www.w3.org/1999/xlink" viewBox="0 0 574.71068 259.14169" height="259.14"><defs><linearGradient xlink:href="#1" id="9" gradientUnits="userSpaceOnUse" x1="507.2" y1="446.9" x2="506.91" y2="450.18"/><linearGradient xlink:href="#1" id="A" gradientUnits="userSpaceOnUse" x1="573.19" y1="438.92" x2="574.01" y2="442.11"/><linearGradient y2="532.84" x2="583.04" y1="529.65" x1="583.86" gradientUnits="userSpaceOnUse" id="G" xlink:href="#1"/><linearGradient xlink:href="#1" id="B" gradientUnits="userSpaceOnUse" x1="513.36" y1="405.84" x2="512.54" y2="409.03"/><linearGradient xlink:href="#1" id="C" gradientUnits="userSpaceOnUse" x1="294.06" y1="396.3" x2="293.24" y2="399.49"/><linearGradient id="F" gradientUnits="userSpaceOnUse" x1="89.14" y1="111.92" x2="147.78" y2="168.1"><stop stop-color="#ffe052"/><stop offset="1" stop-color="#ffc331"/></linearGradient><linearGradient id="D" gradientUnits="userSpaceOnUse" x1="671.31" y1="19.344" x2="-252.33" y2="208.23"><stop stop-color="#fff"/><stop offset="1" stop-color="#fff" stop-opacity="0"/></linearGradient><linearGradient id="E" gradientUnits="userSpaceOnUse" x1="55.55" y1="77.07" x2="110.15" y2="131.85"><stop stop-color="#387eb8"/><stop offset="1" stop-color="#366994"/></linearGradient><linearGradient xlink:href="#1" id="8" gradientUnits="userSpaceOnUse" x1="578.81" y1="468.24" x2="579.63" y2="471.42"/><linearGradient id="0"><stop stop-color="#a5c4e6"/><stop offset="1" stop-color="#497bb3"/></linearGradient><linearGradient id="1"><stop stop-color="#232323"/><stop offset="1" stop-color="#474747"/></linearGradient><linearGradient xlink:href="#1" id="7" gradientUnits="userSpaceOnUse" x1="513.1" y1="486.64" x2="512.82" y2="489.92"/><linearGradient xlink:href="#0" id="2" gradientUnits="userSpaceOnUse" x1="1637.37" x2="1659.96"/><linearGradient xlink:href="#0" id="3" gradientUnits="userSpaceOnUse" x1="1678.18" x2="1700.78"/><linearGradient xlink:href="#1" id="6" gradientUnits="userSpaceOnUse" x1="557.74" y1="500.38" x2="558.56" y2="503.57"/><linearGradient xlink:href="#1" id="4" gradientUnits="userSpaceOnUse" x1="243.48" y1="485.37" x2="243.2" y2="488.64"/><linearGradient xlink:href="#1" id="5" gradientUnits="userSpaceOnUse" x1="556.49" y1="494.67" x2="557.31" y2="497.85"/></defs><g transform="translate(-187.64-327.99)"><path d="m350.2 501.12l159.73.155" stroke-dasharray="4.29425 2.14712" fill="none" stroke="#000" stroke-width="1.074"/><g transform="matrix(4.74465 0 0 4.74465-7391.86-2268.55)"><path transform="matrix(1 .00055-.00055 1 0 0)" fill="url(#2)" stroke="#000" stroke-width=".5" d="m1637.62 578.69h22.09v7.457h-22.09z"/><text x="1644.56" y="584.05" transform="matrix(1 .00055-.00055 1 0 0)" font-family="Yanone Kaffeesatz" word-spacing="0" line-height="125%" letter-spacing="0" font-size="5.45"><tspan x="1644.56" y="584.05">Bond</tspan></text></g><g transform="matrix(4.74465 0 0 4.74465-7585.9-2297.02)"><path transform="matrix(1 .00055-.00055 1 0 0)" fill="url(#3)" stroke="#000" stroke-width=".5" d="m1678.43 566.35h22.1v7.457h-22.1z"/><text transform="matrix(1 .00055-.00055 1 0 0)" x="1680.73" y="571.72" font-family="Yanone Kaffeesatz" word-spacing="0" line-height="125%" letter-spacing="0" font-size="5.45"><tspan x="1680.73" y="571.72">SW Bridge</tspan></text></g><g transform="matrix(4.74465 0 0 4.74465-7585.9-2272.09)"><g fill-rule="evenodd"><path d="m1703.35 552.06c-.01-.045-.068-.077-.181-.096-.109-.016-.238-.013-.387.01-.149.024-.274.06-.377.109-.099.053-.144.102-.137.147.01.045.066.074.175.089.114.019.245.017.394-.007.149-.023.272-.061.37-.113.103-.049.151-.095.144-.14m-1.23.246l-.486.055.109.767.48-.068-.48.068-.109-.767.486-.055m-.925.102l.439-.048-.439.048m1.312.429c-.098.053-.144.102-.137.147.01.045.066.074.175.089.114.019.245.017.394-.007.149-.023.272-.061.37-.113.103-.049.151-.095.144-.14-.01-.045-.068-.077-.181-.096-.109-.016-.238-.013-.387.01-.148.024-.274.06-.377.109m-2.615 1.523l.137.925-.137-.925m1.851-1.232l.102.822.514-.102-.514.102-.102-.822m-.466.829l-.215-1.627-3.392.447.215 1.627 3.392-.447m1.405-.129c.114.019.245.017.394-.007.149-.023.272-.061.37-.113.103-.049.151-.095.144-.14-.01-.045-.068-.077-.181-.096-.109-.016-.238-.013-.387.01-.149.024-.274.06-.377.109-.098.053-.144.102-.137.147.01.045.066.074.175.089m.671 1.063c0-.119-.043-.222-.13-.308-.087-.082-.192-.123-.315-.124-.123 0-.228.041-.315.123-.087.087-.13.189-.13.308 0 .119.043.219.13.302.087.087.192.13.315.13.123 0 .228-.043.315-.13.087-.082.13-.183.13-.301m-2.844.704l1.062-.136.137.994 2.433-.307-.273-1.576-.514.034.514-.034.273 1.576-2.433.307-.137-.994-1.062.136m-.055.942l-.143-1.107-2.398.317.143 1.103 2.398-.314m-3.255 1.201l-.693-5.448.325-.062.24-.096 7.109-.835.836 5.924-7.73 1.089v-.127-.096l-.089-.35m2.044-3.343l.102.994-.102-.994m-.925.102l.137 1.028-.137-1.028" fill="#df0b00"/><path d="m1703.35 552.06c.01.045-.041.092-.144.14-.098.052-.221.09-.37.113-.149.024-.28.026-.394.007-.109-.015-.167-.044-.175-.089-.01-.045.039-.094.137-.147.103-.049.228-.086.377-.109.149-.023.278-.026.387-.01.114.019.174.051.181.096m-.843.777c.103-.049.228-.086.377-.109.149-.023.278-.026.387-.01.114.019.174.051.181.096.01.045-.041.092-.144.14-.098.052-.221.09-.37.113-.149.024-.28.026-.394.007-.109-.015-.167-.044-.175-.089-.01-.045.039-.094.137-.147m-1.231 1.119l-3.392.447-.215-1.627 3.392-.447.215 1.627m1.405-.129c-.109-.015-.167-.044-.175-.089-.01-.045.039-.094.137-.147.103-.049.228-.086.377-.109.149-.023.278-.026.387-.01.114.019.174.051.181.096.01.045-.041.092-.144.14-.098.052-.221.09-.37.113-.149.024-.28.026-.394.007m.671 1.062c0 .119-.043.219-.13.301-.087.087-.192.13-.315.13-.123 0-.228-.044-.315-.13-.087-.082-.13-.183-.13-.302 0-.119.043-.222.13-.308.087-.082.192-.123.315-.123.123 0 .228.041.315.124.087.087.13.19.13.308m-2.899 1.646l-2.398.314-.143-1.103 2.398-.317.143 1.107m-3.943-.561l.051.401-.144.02-.051-.404.144-.017m-.686.904l-.147-1.172.61-.078.15 1.172-.613.078" fill="#333"/><path d="m1696.12 551.02l.216-.027.044.346-.26-.319.26.319.01.082-1.634.208 1.634-.208.099.781.01.089.693 5.448.355 2.799-1.634.208-1.156-9.11-.25.031-.017-.154.264.117v.007-.007l-.264-.117-.038-.281.367-.048 1.299-.164zm-.461 2.953l.469-.058-.082-.637-.466.058.078.637m.163 2.909l.613-.078-.15-1.172-.61.078.147 1.172m.686-.904l-.144.017.051.404.144-.02-.051-.401" fill="#ccc"/><path transform="matrix(.13704.00008-.00008.13704 1692.49 548.85)" fill="#0f0" d="m26.55 36.95l-3.42.43-.58-4.655 3.4-.425z"/></g><g fill="none" stroke-linejoin="round" stroke-linecap="round" stroke-miterlimit="3"><path d="m1703.35 552.06c.01.045-.041.092-.144.14-.098.052-.221.09-.37.113-.149.024-.28.026-.394.007-.109-.015-.167-.044-.175-.089-.01-.045.039-.094.137-.147.103-.049.228-.086.377-.109.149-.023.278-.026.387-.01.114.019.174.051.181.096zm-.843.777c.103-.049.228-.086.377-.109.149-.023.278-.026.387-.01.114.019.174.051.181.096.01.045-.041.092-.144.14-.098.052-.221.09-.37.113-.149.024-.28.026-.394.007-.109-.015-.167-.044-.175-.089-.01-.045.039-.094.137-.147zm.174.99c-.109-.015-.167-.044-.175-.089-.01-.045.039-.094.137-.147.103-.049.228-.086.377-.109.149-.023.278-.026.387-.01.114.019.174.051.181.096.01.045-.041.092-.144.14-.098.052-.221.09-.37.113-.149.024-.28.026-.394.007z" stroke="#fc9" stroke-width=".274"/><path d="m1702.12 552.31l-.486.055.109.767.48-.068m-1.027-.652l.439-.048m-1.742 2l.137.925m1.714-2.157l.102.822.514-.102m-1.851 1.746l1.062-.136.137.994 2.433-.307-.273-1.576-.514.034m-4.111-.208l.102.994m-1.027-.891l.137 1.028" stroke="#0f0" stroke-width=".137"/><g stroke="#000"><path d="m1697.07 552.13l7.109-.835.836 5.924-7.73 1.089m0-.127v-.096l-.089-.35m-.127-5.605l-.576.068" stroke-width=".274"/><path d="m1697.2 557.74l.355 2.799-1.634.208-1.156-9.11v-.007l-.264-.117-.733-.322m1.062-.006l-.212-.165-.884.099m2.395-.098l-.158-.206-.946.119-.195.25m1.682 1.108l-.01-.089-.099-.781-1.634.208m1.624-.29l-.26-.319m1.075 6.719l-.693-5.448" stroke-width=".411"/><path d="m1695.66 553.97l-.078-.637.466-.058.082.637-.469.058zm.849 2l.051.401-.144.02-.051-.404.144-.017zm-.686.904l-.147-1.172.61-.078.15 1.172-.613.078z" stroke-width=".137"/></g><path d="m1701.27 553.96l-3.392.447-.215-1.627 3.392-.447.215 1.627zm2.076.933c0 .119-.043.219-.13.301-.087.087-.192.13-.315.13-.123 0-.228-.044-.315-.13-.087-.082-.13-.183-.13-.302 0-.119.043-.222.13-.308.087-.082.192-.123.315-.123.123 0 .228.041.315.124.087.087.13.19.13.308zm-2.899 1.646l-2.398.314-.143-1.103 2.398-.317.143 1.107z" stroke="#999" stroke-width=".274"/></g><text transform="matrix(1 .00055-.00055 1 0 0)" x="1698.16" y="560.48" font-family="Yanone Kaffeesatz" word-spacing="0" line-height="125%" letter-spacing="0" font-size="4.207"><tspan x="1698.16" y="560.48">vNic</tspan></text><g fill-rule="evenodd"><path d="m1683.04 552.05c-.01-.045-.068-.077-.181-.096-.109-.016-.238-.013-.387.01-.149.024-.274.06-.377.109-.099.053-.144.102-.137.147.01.045.066.074.175.089.114.019.245.017.394-.007.149-.023.272-.061.37-.113.103-.049.151-.095.144-.14m-1.23.246l-.486.054.109.767.48-.068-.48.068-.109-.767.486-.054m-.925.102l.439-.048-.439.048m1.312.429c-.098.053-.144.102-.137.147.01.045.066.074.175.089.114.019.245.017.394-.007.149-.023.272-.061.37-.113.103-.049.151-.095.144-.14-.01-.045-.068-.077-.181-.096-.109-.016-.238-.013-.387.01-.148.024-.274.06-.377.109m-2.615 1.523l.137.925-.137-.925m1.851-1.232l.102.822.514-.102-.514.102-.102-.822m-.466.829l-.215-1.627-3.392.447.215 1.627 3.392-.447m1.405-.129c.114.019.245.017.394-.007.149-.023.272-.061.37-.113.103-.049.151-.095.144-.14-.01-.045-.068-.077-.181-.096-.109-.016-.238-.013-.387.01-.149.024-.274.06-.377.109-.098.053-.144.102-.137.147.01.045.066.074.175.089m.671 1.063c0-.119-.043-.222-.13-.308-.087-.082-.192-.123-.315-.124-.123 0-.228.041-.315.123-.087.087-.13.189-.13.308 0 .119.043.219.13.302.087.087.192.13.315.13.123 0 .228-.043.315-.13.087-.082.13-.183.13-.301m-2.844.704l1.062-.136.137.994 2.433-.307-.273-1.576-.514.034.514-.034.273 1.576-2.433.307-.137-.994-1.062.136m-.055.942l-.143-1.107-2.398.317.143 1.103 2.398-.314m-3.255 1.201l-.693-5.448.325-.062.24-.096 7.109-.835.836 5.924-7.73 1.089v-.127-.096l-.089-.35m2.044-3.343l.102.994-.102-.994m-.925.102l.137 1.028-.137-1.028" fill="#df0b00"/><path d="m1683.04 552.05c.01.045-.041.092-.144.14-.098.052-.221.09-.37.113-.149.024-.28.026-.394.007-.109-.015-.167-.044-.175-.089-.01-.045.039-.094.137-.147.103-.049.228-.086.377-.109.149-.023.278-.026.387-.01.114.019.174.051.181.096m-.843.777c.103-.049.228-.086.377-.109.149-.023.278-.026.387-.01.114.019.174.051.181.096.01.045-.041.092-.144.14-.098.052-.221.09-.37.113-.149.024-.28.026-.394.007-.109-.015-.167-.044-.175-.089-.01-.045.039-.094.137-.147m-1.231 1.119l-3.392.447-.215-1.627 3.392-.447.215 1.627m1.405-.129c-.109-.015-.167-.044-.175-.089-.01-.045.039-.094.137-.147.103-.049.228-.086.377-.109.149-.023.278-.026.387-.01.114.019.174.051.181.096.01.045-.041.092-.144.14-.098.052-.221.09-.37.113-.149.024-.28.026-.394.007m.671 1.062c0 .119-.043.219-.13.301-.087.087-.192.13-.315.13-.123 0-.228-.044-.315-.13-.087-.082-.13-.183-.13-.302 0-.119.043-.222.13-.308.087-.082.192-.123.315-.123.123 0 .228.041.315.124.087.087.13.19.13.308m-2.899 1.646l-2.398.314-.143-1.103 2.398-.317.143 1.107m-3.943-.561l.051.401-.144.02-.051-.404.144-.017m-.686.904l-.147-1.172.61-.078.15 1.172-.613.078" fill="#333"/><path d="m1675.81 551.01l.216-.027.044.346-.26-.319.26.319.01.082-1.634.208 1.634-.208.099.781.01.089.693 5.448.355 2.799-1.634.208-1.156-9.11-.25.031-.017-.154.264.117v.007-.007l-.264-.117-.038-.281.367-.048 1.299-.164zm-.461 2.953l.469-.058-.082-.637-.466.058.078.637m.163 2.909l.613-.078-.15-1.172-.61.078.147 1.172m.686-.904l-.144.017.051.404.144-.02-.051-.401" fill="#ccc"/></g><use transform="matrix(.21076 0 0 .21076 1605.44 438.25)" xlink:href="#H"/><g fill="none" stroke-linejoin="round" stroke-linecap="round" stroke-miterlimit="3"><path d="m1683.04 552.05c.01.045-.041.092-.144.14-.098.052-.221.09-.37.113-.149.024-.28.026-.394.007-.109-.015-.167-.044-.175-.089-.01-.045.039-.094.137-.147.103-.049.228-.086.377-.109.149-.023.278-.026.387-.01.114.019.174.051.181.096zm-.843.777c.103-.049.228-.086.377-.109.149-.023.278-.026.387-.01.114.019.174.051.181.096.01.045-.041.092-.144.14-.098.052-.221.09-.37.113-.149.024-.28.026-.394.007-.109-.015-.167-.044-.175-.089-.01-.045.039-.094.137-.147zm.174.99c-.109-.015-.167-.044-.175-.089-.01-.045.039-.094.137-.147.103-.049.228-.086.377-.109.149-.023.278-.026.387-.01.114.019.174.051.181.096.01.045-.041.092-.144.14-.098.052-.221.09-.37.113-.149.024-.28.026-.394.007z" stroke="#fc9" stroke-width=".274"/><path d="m1681.81 552.3l-.486.054.109.767.48-.068m-1.027-.652l.439-.048m-1.742 2l.137.925m1.714-2.157l.102.822.514-.102m-1.851 1.746l1.062-.136.137.994 2.433-.307-.273-1.576-.514.034m-4.111-.208l.102.994m-1.027-.891l.137 1.028" stroke="#0f0" stroke-width=".137"/><g stroke="#000"><path d="m1676.76 552.12l7.109-.835.836 5.924-7.73 1.089m0-.127v-.096l-.089-.35m-.127-5.605l-.576.068" stroke-width=".274"/><path d="m1676.88 557.73l.355 2.799-1.634.208-1.156-9.11v-.007l-.264-.117-.733-.322m1.062-.006l-.212-.165-.884.099m2.395-.098l-.158-.206-.946.119-.195.25m1.682 1.108l-.01-.089-.099-.781-1.634.208m1.624-.29l-.26-.319m1.075 6.719l-.693-5.448" stroke-width=".411"/><path d="m1675.35 553.96l-.078-.637.466-.058.082.637-.469.058zm.849 2l.051.401-.144.02-.051-.404.144-.017zm-.686.904l-.147-1.172.61-.078.15 1.172-.613.078z" stroke-width=".137"/></g><path d="m1680.96 553.95l-3.392.447-.215-1.627 3.392-.447.215 1.627zm2.076.933c0 .119-.043.219-.13.301-.087.087-.192.13-.315.13-.123 0-.228-.044-.315-.13-.087-.082-.13-.183-.13-.302 0-.119.043-.222.13-.308.087-.082.192-.123.315-.123.123 0 .228.041.315.124.087.087.13.19.13.308zm-2.899 1.646l-2.398.314-.143-1.103 2.398-.317.143 1.107z" stroke="#999" stroke-width=".274"/></g><text transform="matrix(1 .00055-.00055 1 0 0)" x="1677.85" y="560.48" font-family="Yanone Kaffeesatz" word-spacing="0" line-height="125%" letter-spacing="0" font-size="4.207"><tspan x="1677.85" y="560.48">vNic</tspan></text><path d="m1684.78 555.26l9.961.005" stroke-dasharray="0.45 1.35" fill="none" stroke="#000" stroke-width=".225"/><text x="1686.34" y="551.42" transform="matrix(1 .00055-.00055 1 0 0)" font-family="Yanone Kaffeesatz" word-spacing="0" line-height="125%" letter-spacing="0" font-size="5.092"><tspan x="1686.34" y="551.42">1..<tspan font-size="4.7">N</tspan></tspan></text></g><g fill="none" stroke="#000"><path d="m428.63 392.16l.057-28.99" stroke-dasharray="2.11611 6.34834" stroke-width="1.058"/><g stroke-dasharray="4.27018 2.13509" stroke-width="1.068"><path d="m428.67 480.96v-49.31"/><path d="m349.12 537.65l.062-37.09"/></g></g><g fill-rule="evenodd"><path d="m368.17 539.95c-.047-.216-.322-.367-.86-.457-.517-.077-1.13-.061-1.837.048-.705.114-1.3.287-1.788.519-.465.251-.684.484-.651.699.048.212.313.352.829.422.541.091 1.164.082 1.869-.033.706-.11 1.291-.289 1.756-.536.49-.229.717-.452.683-.666zm-5.836 1.167l-2.308.259.518 3.641 2.276-.324-2.276.324-.518-3.641 2.308-.259m-4.389.485l2.081-.226-2.081.226m6.225 2.036c-.465.251-.684.483-.651.699.048.212.313.352.827.425.541.091 1.163.082 1.869-.033.706-.11 1.291-.288 1.756-.535.489-.229.717-.453.683-.666-.048-.212-.322-.367-.86-.457-.517-.077-1.13-.061-1.837.048-.704.115-1.3.287-1.788.519m-12.407 7.228l.648 4.389-.648-4.389m8.781-5.847l.485 3.902 2.439-.486-2.439.486-.485-3.902m-2.213 3.933l-1.019-7.722-16.09 2.121 1.02 7.722 16.09-2.121m6.665-.614c.541.091 1.163.082 1.869-.033.706-.11 1.291-.289 1.756-.536.49-.23.717-.453.683-.666-.047-.216-.322-.367-.86-.457-.517-.077-1.13-.061-1.837.048-.705.114-1.301.287-1.789.519-.465.251-.683.483-.651.699.048.212.313.352.829.422zm3.183 5.04c0-.564-.204-1.051-.617-1.463-.413-.391-.91-.585-1.496-.585-.586 0-1.083.194-1.495.584-.413.412-.618.899-.619 1.463 0 .564.204 1.04.617 1.431.412.414.909.62 1.495.619.586 0 1.083-.205 1.496-.617.413-.39.618-.866.619-1.43zm-13.494 3.341l5.04-.648.648 4.714 11.542-1.457-1.296-7.478-2.439.161 2.439-.161 1.296 7.478-11.542 1.457-.648-4.714-5.04.648m-.261 4.47l-.68-5.251-11.38 1.506.68 5.235 11.38-1.489m-15.446 5.697l-3.286-25.848 1.544-.292 1.138-.455 33.732-3.964 3.968 28.11-36.675 5.165v-.602-.455l-.422-1.658m9.697-15.86l.485 4.714-.485-4.714m-4.389.485l.648 4.877-.648-4.877" fill="#060"/><path d="m368.17 539.95c.048.212-.194.436-.683.666-.465.248-1.05.426-1.755.535-.705.11-1.329.122-1.869.033-.517-.07-.794-.211-.828-.425-.047-.216.185-.448.651-.698.488-.234 1.084-.406 1.788-.519.707-.11 1.319-.123 1.837-.048.539.091.822.259.86.457m-4 3.687c.488-.234 1.084-.406 1.788-.519.707-.11 1.32-.123 1.837-.048.539.091.822.259.86.457.048.212-.194.436-.683.666-.465.248-1.05.426-1.756.535-.705.111-1.329.122-1.869.033-.517-.069-.794-.211-.828-.421-.048-.216.185-.448.65-.699zm-5.839 5.312l-16.09 2.12-1.02-7.722 16.09-2.121 1.02 7.722m6.665-.614c-.517-.07-.794-.211-.828-.425-.047-.216.185-.448.65-.699.489-.233 1.084-.406 1.789-.519.706-.106 1.319-.123 1.837-.048.539.091.822.259.86.457.048.212-.194.436-.683.666-.465.248-1.049.426-1.755.535-.705.11-1.329.122-1.869.033m3.183 5.04c-.001.564-.204 1.04-.619 1.43-.413.412-.911.617-1.496.617-.586 0-1.083-.206-1.495-.619-.413-.391-.617-.867-.617-1.431.001-.564.204-1.051.619-1.463.413-.39.91-.585 1.495-.584.586 0 1.083.194 1.496.585.412.414.617.9.617 1.463zm-13.756 7.811l-11.38 1.489-.68-5.235 11.38-1.506.68 5.251m-18.709-2.66l.242 1.902-.683.097-.242-1.918.683-.082m-3.254 4.29l-.696-5.56 2.894-.372.712 5.559-2.91.372" fill="#333"/><path d="m333.88 535l1.024-.129.209 1.642-1.235-1.512 1.235 1.512.048.389-7.754.987 7.754-.987.47 3.706.048.423 3.286 25.848 1.683 13.282-7.755.987-5.487-43.23-1.187.146-.081-.731 1.251.554-.002.038.002-.038-1.251-.554-.176-1.333 1.739-.227 6.161-.777zm-2.186 14.01l2.227-.275-.389-3.02-2.211.275.37 3.02zm.772 13.801l2.91-.371-.712-5.56-2.894.373.696 5.559m3.253-4.29l-.683.082.242 1.918.683-.097-.242-1.902" fill="#ccc"/></g><path transform="matrix(.65021.00036-.00036.65021 316.67 524.7)" fill="#0f0" fill-rule="evenodd" d="m23.13 37.38l-.58-4.655 3.4-.425.6 4.65z" id="H"/><g fill="none" stroke-linejoin="round" stroke-linecap="round" stroke-miterlimit="3"><path d="m368.17 539.95c.048.212-.194.436-.683.666-.465.248-1.05.426-1.755.535-.705.11-1.329.122-1.869.033-.517-.07-.794-.211-.828-.425-.047-.216.185-.448.651-.698.488-.234 1.084-.406 1.788-.519.707-.11 1.319-.123 1.837-.048.539.091.822.259.86.457zm-4 3.688c.488-.234 1.084-.406 1.788-.519.707-.11 1.32-.123 1.837-.048.539.091.822.259.86.457.048.212-.194.436-.683.666-.465.248-1.05.426-1.756.535-.705.111-1.329.122-1.869.033-.517-.069-.794-.211-.828-.421-.048-.216.185-.448.65-.699zm.826 4.698c-.517-.07-.794-.211-.828-.425-.047-.216.185-.448.65-.699.489-.233 1.084-.406 1.789-.519.706-.106 1.319-.123 1.837-.048.539.091.822.259.86.457.048.212-.194.436-.683.666-.465.248-1.049.426-1.755.535-.705.11-1.329.122-1.869.033z" stroke="#fc9" stroke-width="1.3"/><path d="m362.34 541.11l-2.308.259.518 3.641 2.276-.324m-4.875-3.091l2.081-.226m-8.263 9.489l.648 4.389m8.133-10.237l.485 3.902 2.439-.486m-8.782 8.286l5.04-.648.648 4.714 11.542-1.457-1.296-7.478-2.439.162m-19.506-.986l.485 4.714m-4.875-4.229l.648 4.877" stroke="#0f0" stroke-width=".65"/><g stroke-width="1.3"><path d="m358.33 548.95l-16.09 2.12-1.02-7.722 16.09-2.121 1.02 7.722zm9.848 4.427c-.001.564-.204 1.04-.619 1.43-.413.412-.911.617-1.496.617-.586 0-1.083-.206-1.495-.619-.413-.391-.617-.867-.617-1.431.001-.564.204-1.051.619-1.463.413-.39.91-.585 1.495-.584.586 0 1.083.194 1.496.585.412.414.617.9.617 1.463zm-13.756 7.811l-11.38 1.489-.68-5.235 11.38-1.506.68 5.251z" stroke="#999"/><path d="m338.38 540.29l33.732-3.964 3.967 28.11-36.675 5.165m0-.601v-.455l-.422-1.659m-.603-26.594l-2.731.324" stroke="#000"/></g><g stroke="#000"><path d="m338.98 566.88l1.683 13.282-7.755.987-5.487-43.23.002-.038-1.252-.554-3.478-1.53m5.04-.03l-1.01-.781-4.194.469m11.363-.465l-.747-.976-4.487.567-.927 1.186m7.979 5.255l-.048-.423-.47-3.706-7.754.987m7.706-1.378l-1.235-1.513m5.103 31.879l-3.286-25.847" stroke-width="1.951"/><path d="m331.69 549.01l-.37-3.02 2.211-.275.389 3.02-2.227.275zm4.03 9.511l.242 1.902-.683.097-.242-1.918.683-.082zm-3.253 4.29l-.696-5.56 2.894-.372.712 5.559-2.91.372z" stroke-width=".65"/></g></g><g fill-rule="evenodd"><path d="m528.71 539.95c-.048-.212-.322-.367-.86-.457-.517-.077-1.13-.061-1.837.048-.705.114-1.3.286-1.788.519-.47.25-.684.483-.651.698.048.212.313.352.828.425.541.091 1.163.082 1.869-.033.706-.11 1.292-.289 1.756-.536.49-.23.717-.453.683-.666m-5.836 1.168l-2.308.259.518 3.641 2.276-.324-2.276.324-.518-3.641 2.308-.259m-4.389.485l2.081-.226-2.081.226m6.225 2.036c-.465.251-.684.483-.65.699.047.212.313.352.827.425.541.091 1.164.082 1.869-.033.706-.11 1.291-.288 1.756-.535.489-.229.717-.453.683-.666-.047-.216-.322-.367-.86-.457-.517-.077-1.13-.061-1.837.048-.704.115-1.301.286-1.788.519zm-12.407 7.227l.648 4.389-.648-4.389m8.781-5.847l.485 3.902 2.439-.486-2.439.486-.485-3.902m-2.213 3.933l-1.019-7.722-16.09 2.12 1.02 7.722 16.09-2.12m6.665-.614c.541.091 1.164.082 1.869-.033.706-.11 1.291-.289 1.756-.536.49-.23.717-.453.683-.666-.047-.216-.322-.367-.86-.457-.517-.077-1.13-.061-1.837.048-.705.114-1.301.286-1.789.519-.465.251-.683.483-.65.699.048.212.313.352.829.422zm3.183 5.04c0-.564-.204-1.051-.617-1.463-.413-.391-.91-.585-1.496-.585-.586 0-1.083.194-1.495.584-.413.412-.618.899-.619 1.463 0 .564.204 1.041.617 1.431.413.41.909.62 1.495.619.586 0 1.083-.205 1.496-.617.413-.39.618-.866.619-1.43zm-13.494 3.341l5.04-.647.648 4.714 11.542-1.457-1.296-7.478-2.439.162 2.439-.162 1.296 7.478-11.542 1.457-.648-4.714-5.04.647m-.261 4.47l-.68-5.251-11.38 1.505.68 5.235 11.38-1.489m-15.446 5.697l-3.286-25.847 1.544-.292 1.138-.455 33.732-3.964 3.968 28.11-36.675 5.165v-.601-.455l-.422-1.658m9.697-15.86l.485 4.714-.485-4.714m-4.389.485l.648 4.877-.648-4.877" fill="#060"/><path d="m528.71 539.95c.048.212-.194.436-.683.666-.465.248-1.05.426-1.755.535-.705.111-1.329.122-1.869.033-.517-.07-.794-.211-.829-.422-.047-.216.185-.448.651-.699.488-.234 1.084-.406 1.788-.519.706-.106 1.319-.123 1.837-.048.539.09.822.259.86.457zm-4 3.688c.488-.234 1.084-.406 1.788-.519.707-.11 1.32-.123 1.837-.048.54.091.822.259.86.457.048.212-.194.436-.683.666-.465.248-1.05.426-1.756.536-.705.11-1.328.121-1.869.033-.517-.069-.794-.211-.828-.421-.048-.216.185-.448.65-.699zm-5.839 5.312l-16.09 2.121-1.02-7.722 16.09-2.121 1.02 7.722m6.665-.614c-.517-.07-.794-.211-.828-.425-.048-.216.185-.448.65-.699.489-.233 1.084-.406 1.789-.519.707-.11 1.319-.123 1.837-.048.539.091.822.259.86.457.048.212-.194.436-.683.666-.465.248-1.05.426-1.756.536-.705.11-1.328.121-1.869.033m3.183 5.04c-.001.563-.204 1.04-.619 1.43-.413.412-.911.617-1.495.617-.586 0-1.083-.206-1.495-.619-.413-.391-.617-.867-.617-1.431 0-.564.204-1.051.619-1.463.413-.39.91-.585 1.495-.584.586 0 1.083.194 1.496.585.413.41.617.9.617 1.463zm-13.756 7.811l-11.38 1.489-.68-5.235 11.379-1.505.68 5.251m-18.709-2.66l.242 1.902-.683.097-.242-1.918.683-.082m-3.254 4.291l-.696-5.56 2.894-.373.712 5.56-2.91.372" fill="#333"/><path d="m494.42 535l1.024-.13.209 1.642-1.235-1.513 1.235 1.513.048.389-7.754.987 7.754-.987.47 3.707.048.423 3.286 25.848 1.683 13.282-7.755.987-5.487-43.23-1.187.146-.081-.731 1.251.554-.002.038.002-.038-1.251-.554-.18-1.333 1.739-.227 6.161-.777zm-2.186 14.01l2.227-.275-.389-3.02-2.211.275.37 3.02zm.772 13.801l2.91-.371-.712-5.56-2.894.372.696 5.559m3.253-4.29l-.683.082.242 1.918.683-.097-.242-1.902z" fill="#ccc"/><path transform="matrix(.65021.00036-.00036.65021 477.21 524.7)" fill="#0f0" d="m25.95 32.3l.6 4.65-3.42.43-.58-4.655z"/></g><g fill="none"><g stroke-linejoin="round" stroke-linecap="round" stroke-miterlimit="3"><path d="m528.71 539.95c.048.212-.194.436-.683.666-.465.248-1.05.426-1.755.535-.705.111-1.329.122-1.869.033-.517-.07-.794-.211-.829-.422-.047-.216.185-.448.651-.699.488-.234 1.084-.406 1.788-.519.706-.106 1.319-.123 1.837-.048.539.09.822.259.86.457zm-4 3.688c.488-.234 1.084-.406 1.788-.519.707-.11 1.32-.123 1.837-.048.54.091.822.259.86.457.048.212-.194.436-.683.666-.465.248-1.05.426-1.756.536-.705.11-1.328.121-1.869.033-.517-.069-.794-.211-.828-.421-.048-.216.185-.448.65-.699zm.826 4.698c-.517-.07-.794-.211-.828-.425-.048-.216.185-.448.65-.699.489-.233 1.084-.406 1.789-.519.707-.11 1.319-.123 1.837-.048.539.091.822.259.86.457.048.212-.194.436-.683.666-.465.248-1.05.426-1.756.536-.705.11-1.328.121-1.869.033z" stroke="#fc9" stroke-width="1.3"/><path d="m522.88 541.11l-2.308.259.518 3.641 2.276-.324m-4.875-3.091l2.081-.226m-8.263 9.489l.648 4.389m8.133-10.236l.485 3.902 2.439-.486m-8.782 8.286l5.04-.648.648 4.714 11.542-1.457-1.296-7.478-2.439.161m-19.506-.986l.485 4.714m-4.875-4.229l.648 4.877" stroke="#0f0" stroke-width=".65"/><g stroke-width="1.3"><path d="m518.87 548.95l-16.09 2.121-1.02-7.722 16.09-2.121 1.02 7.722zm9.848 4.427c-.001.563-.204 1.04-.619 1.43-.413.412-.911.617-1.495.617-.586 0-1.083-.206-1.495-.619-.413-.391-.617-.867-.617-1.431 0-.564.204-1.051.619-1.463.413-.39.91-.585 1.495-.584.586 0 1.083.194 1.496.585.413.41.617.9.617 1.463zm-13.756 7.811l-11.38 1.489-.68-5.235 11.379-1.505.68 5.251z" stroke="#999"/><path d="m498.92 540.29l33.732-3.964 3.967 28.11-36.675 5.165m0-.602v-.455l-.422-1.659m-.603-26.593l-2.731.324" stroke="#000"/></g><g stroke="#000"><path d="m499.52 566.88l1.683 13.282-7.755.987-5.487-43.23.002-.038-1.251-.554-3.478-1.53m5.04-.03l-1.01-.781-4.194.47m11.363-.465l-.747-.976-4.487.566-.927 1.186m7.979 5.255l-.048-.423-.47-3.706-7.754.987m7.706-1.377l-1.235-1.513m5.103 31.879l-3.286-25.847" stroke-width="1.951"/><path d="m492.23 549.01l-.37-3.02 2.211-.275.389 3.02-2.227.275zm4.03 9.512l.242 1.902-.683.097-.242-1.918.683-.082zm-3.253 4.29l-.696-5.56 2.894-.373.712 5.56-2.91.372z" stroke-width=".65"/></g></g><g stroke="#000" stroke-width="1.068"><path d="m509.48 537.16l.062-36.618" stroke-dasharray="4.27018 2.13509"/><path d="m377.14 553.82l115.24.064" stroke-dasharray="2.13509 6.40528"/></g></g><text transform="matrix(1 .00055-.00055 1 0 0)" y="550.65" x="411.62" font-family="Yanone Kaffeesatz" word-spacing="0" line-height="125%" letter-spacing="0" font-size="24.16"><tspan y="550.65" x="411.62">1..<tspan font-size="21.825">M</tspan></tspan></text><g transform="matrix(3.7061 0 0 3.7061-301.23-829.73)"><g transform="matrix(-.07445-.00054-.00054.07445 228.32 306.61)" fill="#fff" stroke="#000" stroke-linejoin="round" stroke-linecap="round" stroke-dashoffset="3"><path d="m257.67 472.58c-5 1-10.302.372-10 12.371v75.63c0 6 2.28 11.701 11.05 9.924l121.95 1.076c8.994.576 10.375-1.061 16-7.243l30.3-33.54c5.247-6.25 3.987-14.349-.281-19.277l-30.01-33.939c-6.103-6.457-8.622-4.622-13.247-5z" stroke-width="2"/><path d="m867.68 556.19c0 3.964-3.285 7.177-7.338 7.177-4.052 0-7.338-3.213-7.338-7.177 0-3.964 3.285-7.177 7.338-7.177 4.052 0 7.338 3.213 7.338 7.177z" transform="translate(-445.19-34.35)"/><rect width="127.27" height="77.65" x="259.41" y="482.72" rx="7.76"/></g><text y="346.14" x="202.16" transform="matrix(.99997.00728-.00728.99997 0 0)" font-family="Yanone Kaffeesatz" word-spacing="0" line-height="125%" letter-spacing="0" font-size="6.977"><tspan y="346.14" x="202.16">vlan</tspan></text><path d="m196.92 345.51l.032-2.448" stroke-dasharray="1.1522 0.576102" fill="none" stroke="#000" stroke-width=".288"/></g><g transform="translate(-129.3-34.85)"><path d="m345.08 449.89l7.28-20.681-14.394-18.365 21.674 1.158 13.236-19.854 5.625 21.01 22.17 6.784-18.2 12.243.993 22.832-16.711-13.236z" fill="#6a9d00"/><g font-family="Yanone Kaffeesatz" word-spacing="0" line-height="125%" letter-spacing="0" font-size="15.439"><text x="349.58" y="425.57"><tspan x="349.58" y="425.57">webserv</tspan></text><text x="360.57" y="437.95"><tspan x="360.57" y="437.95">net</tspan></text></g></g><g transform="translate(-240.71 4.286)"><path d="m457.09 509.27l7.28-20.681-14.394-18.365 21.674 1.158 13.236-19.854 5.625 21.01 22.17 6.784-18.2 12.243.993 22.832-16.71-13.236z" fill="#dd7f2b"/><g font-family="Yanone Kaffeesatz" word-spacing="0" line-height="125%" letter-spacing="0" font-size="15.439"><text x="464.64" y="484.96"><tspan x="464.64" y="484.96">Display</tspan></text><text x="472.58" y="497.33"><tspan x="472.58" y="497.33">net</tspan></text></g></g><text transform="matrix(1 .00055-.00055 1 0 0)" x="192.34" y="352.75" font-family="Yanone Kaffeesatz" word-spacing="0" line-height="125%" letter-spacing="0" font-size="19.961"><tspan x="192.34" y="352.75">SetupNetworks</tspan></text><g transform="matrix(1.58883 0 0 1.58883-227.01-241.77)"><text y="481.7" x="537.65" font-family="Yanone Kaffeesatz" word-spacing="0" line-height="125%" letter-spacing="0" font-size="17.897"><tspan y="481.7" x="537.65">configurator.py</tspan></text><g transform="matrix(3.6988 0 0 3.6988-1712.59-1078.72)"><g transform="matrix(.04997 0 0 .04916 585.95 408.61)"><path d="m565.13-138.12v290.88h212.75v-220.09l-132.69-70.781h-80.06z" fill="url(#D)" stroke="#000" stroke-width="13.398"/><path d="m733.52-.152l38.08-52.4-132.55-75.16 89.55 121.26 4.923 6.302" fill="#c8b7b7"/><path d="m746.35-38.692l31.77-38.599-129.25-57.927 97.48 96.53z" fill="#fff" stroke="#000" stroke-linejoin="round" stroke-linecap="round" stroke-width="13.398"/></g><g transform="matrix(.04136 0 0 .04136 612.64 399.57)" color="#000"><path d="m99.75 67.47c-28.03 0-26.28 12.156-26.28 12.156l.031 12.594h26.75v3.781h-37.37c0 0-17.938-2.034-17.938 26.25 0 28.28 15.656 27.28 15.656 27.28h9.344v-13.12c0 0-.504-15.656 15.406-15.656 15.91 0 26.531 0 26.531 0 0 0 14.906.241 14.906-14.406 0-14.647 0-24.22 0-24.22 0 0 2.263-14.656-27.03-14.656m-14.75 8.469c2.661 0 4.813 2.151 4.813 4.813 0 2.661-2.151 4.813-4.813 4.813-2.661 0-4.813-2.151-4.813-4.813 0-2.661 2.151-4.813 4.813-4.813" fill="url(#E)"/><path d="m100.55 177.31c28.03 0 26.28-12.156 26.28-12.156l-.031-12.594h-26.75v-3.781h37.38c0 0 17.938 2.034 17.938-26.25 0-28.28-15.656-27.28-15.656-27.28h-9.344v13.12c0 0 .504 15.656-15.406 15.656-15.91 0-26.531 0-26.531 0 0 0-14.906-.241-14.906 14.406 0 14.647 0 24.22 0 24.22 0 0-2.263 14.656 27.03 14.656m14.75-8.469c-2.661 0-4.813-2.151-4.813-4.813 0-2.661 2.151-4.813 4.813-4.813 2.661 0 4.813 2.151 4.813 4.813 0 2.661-2.151 4.813-4.813 4.813" fill="url(#F)"/></g></g></g><g stroke="#000" stroke-width=".749"><path d="m264.14 390.19l107.73 16.978.483-1.801 3.229 3.623-4.65 1.682.466-1.738-109.24-17.357z" fill="url(#C)"/><path d="m482.42 399.6l175.16 4.471.483-1.801 3.229 3.623-4.65 1.682.466-1.738-175.16-4.471z" fill="url(#B)"/><path d="m660.84 413.56l-180.9 27.22.466 1.738-4.65-1.682 3.229-3.623.483 1.801 180.9-27.22z" fill="url(#A)"/><path d="m475.66 445.82l181.31-.511.18-1.856 3.78 3.044-4.311 2.422.174-1.791-181.31.511z" fill="url(#9)"/><path d="m660.75 453.59l-175.18 28.29.466 1.738-4.65-1.682 3.229-3.623.483 1.801 175.18-28.29z" fill="url(#8)"/><path d="m481.92 492l175.95-13.01.18-1.856 3.78 3.044-4.311 2.422.174-1.791-175.95 13.01z" fill="url(#7)"/><path d="m628.25 516.09l-90.54 18.65.466 1.738-4.65-1.682 3.229-3.623.483 1.801 90.54-18.65z" fill="url(#6)"/><path d="m660.58 487.52l-161.53 31.27-121.15 19.884.466 1.738-4.65-1.682 3.229-3.623.483 1.801 121.15-19.884 161.53-31.27z" fill="url(#5)"/><path d="m270.41 484.67l101.77-.89.18-1.856 3.78 3.044-4.311 2.422.174-1.791-104.17.89z" fill="url(#4)"/></g><g font-family="Yanone Kaffeesatz" word-spacing="0" line-height="125%" letter-spacing="0" font-size="19.961"><text transform="matrix(.99921.03982-.03982.99921 0 0)" x="562.43" y="376.99"><tspan x="562.43" y="376.99">configureBridge</tspan></text><text transform="matrix(1 .00297-.00297 1 0 0)" x="565.11" y="442.36"><tspan x="565.11" y="442.36">configureVlan</tspan></text><text transform="matrix(.9978-.06623.06623.9978 0 0)" x="533.3" y="520.85"><tspan x="533.3" y="520.85">configureBond</tspan></text></g><path d="m537.21 564.3l132.08-29.837.797 1.864 2.377-3.702-4.491-1.224.78 1.549-131.7 29.711z" fill="url(#G)" stroke="#000" stroke-width=".749"/><g font-family="Yanone Kaffeesatz" word-spacing="0" line-height="125%" letter-spacing="0" font-size="19.961"><text transform="matrix(.97607-.21747.21747.97607 0 0)" x="437.81" y="664.72"><tspan x="437.81" y="664.72">configureNic</tspan></text><text transform="matrix(.99289.11906-.11906.99289 0 0)" x="359.1" y="375.73"><tspan x="359.1" y="375.73">configure</tspan></text><text transform="matrix(1 .00063-.00063 1 0 0)" x="313.86" y="482.66"><tspan x="313.86" y="482.66">configure</tspan></text></g></g></svg>