<?xml version="1.0" encoding="UTF-8" standalone="no"?>
<svg
   xmlns:dc="http://purl.org/dc/elements/1.1/"
   xmlns:cc="http://creativecommons.org/ns#"
   xmlns:rdf="http://www.w3.org/1999/02/22-rdf-syntax-ns#"
   xmlns:svg="http://www.w3.org/2000/svg"
   xmlns="http://www.w3.org/2000/svg"
   xmlns:xlink="http://www.w3.org/1999/xlink"
   xmlns:sodipodi="http://sodipodi.sourceforge.net/DTD/sodipodi-0.dtd"
   xmlns:inkscape="http://www.inkscape.org/namespaces/inkscape"
   preserveAspectRatio="xMinYMin meet"
   viewBox="0 0 351.08019 188.6086"
   height="100%"
   width="100%"
   id="svg3620"
   version="1.1"
   inkscape:version="0.48.4 r9939"
   sodipodi:docname="unified_reboot_flow.svg">
  <metadata
     id="metadata3881">
    <rdf:RDF>
      <cc:Work
         rdf:about="">
        <dc:format>image/svg+xml</dc:format>
        <dc:type
           rdf:resource="http://purl.org/dc/dcmitype/StillImage" />
      </cc:Work>
    </rdf:RDF>
  </metadata>
  <sodipodi:namedview
     pagecolor="#ffffff"
     bordercolor="#666666"
     borderopacity="1"
     objecttolerance="10"
     gridtolerance="10"
     guidetolerance="10"
     inkscape:pageopacity="0"
     inkscape:pageshadow="2"
     inkscape:window-width="1920"
     inkscape:window-height="1015"
     id="namedview3879"
     showgrid="false"
     fit-margin-top="1"
     fit-margin-left="1"
     fit-margin-right="3"
     fit-margin-bottom="0"
     inkscape:zoom="4.8318896"
     inkscape:cx="150.88188"
     inkscape:cy="73.922685"
     inkscape:window-x="1920"
     inkscape:window-y="27"
     inkscape:window-maximized="1"
     inkscape:current-layer="svg3620" />
  <defs
     id="defs3622">
    <path
       id="X"
       d="m 534.5172,440.00751 a 48.40129,18.781684 0 1 1 -96.80099,0 48.40129,18.781684 0 1 1 96.80099,0"
       inkscape:connector-curvature="0" />
    <path
       id="Y"
       d="m 482.09,382.73 -12.79,10.296 -27.05,10.658 13.889,-12.987 25.953,-7.968 z"
       inkscape:connector-curvature="0"
       style="fill:#b1883f;fill-rule:evenodd;stroke:#746137;stroke-width:1.89499998;stroke-linejoin:round" />
    <path
       id="Z"
       d="m 494.67,400.47 v 24.417 c 8.724,-35.838 25.16,-23.07 24.487,-31.784 l -24.487,7.367"
       inkscape:connector-curvature="0" />
    <path
       id="a"
       d="m 493.32,399.77 -36.805,-8.792 -0.246,47.04 37.05,8.788 v -47.04 z"
       inkscape:connector-curvature="0"
       style="fill:#c7a465;stroke:#746137;stroke-width:1.89499998;stroke-linecap:square;stroke-linejoin:round" />
    <path
       id="b"
       d="m 474.32,428.77 c 6.668,9.925 13.156,-6.358 13.143,-15.252 -0.015,-10.55 -8.412,-14.474 -13.223,-13.333 -7.727,1.833 -15.05,11.727 -14.989,22.837 0.064,12.299 8.484,17.09 15.09,15.508 -1.495,0.084 -6.483,-0.081 -6.604,-14.674 -0.083,-9.912 2.493,-14.501 6.519,-13.708 0.09,0.021 4.437,1.175 4.45,8.302 0.013,7.08 -4.385,10.318 -4.385,10.318"
       inkscape:connector-curvature="0" />
    <path
       id="c"
       d="m 474.26,410.14 c -4.418,-0.892 -9.806,5.03 -9.766,14.296 0.065,15.07 8.842,14.334 9.904,14.08 7.67,-1.832 14.97,-11.638 14.97,-22.705 0,-12.351 -8.424,-17.217 -15.07,-15.641 1.84,-0.763 9.922,0.193 9.935,14.265 0.008,9.14 -5.987,15.535 -9.897,14.346 -0.09,-0.021 -4.428,-1.161 -4.452,-8.271 -0.024,-7.097 4.376,-10.371 4.376,-10.371"
       inkscape:connector-curvature="0" />
    <path
       id="d"
       d="m 588.69,406.2 c 0,0 0,103.07 0,103.07 0,0 79.25,19.14 79.25,19.14 0,0 0,-77.989 0,-77.989 0,0 -49.42,-37.02 -49.42,-37.02 0,0 -29.822,-7.203 -29.822,-7.203"
       inkscape:connector-curvature="0"
       style="fill:#6a9d00;stroke:#000000;stroke-width:3.90300012" />
    <path
       id="e"
       d="m 656.19,457.73 c 0,0 11.834,-10.819 11.834,-10.819 0,0 -48.14,-32.15 -48.14,-32.15 0,0 36.31,42.974 36.31,42.974"
       inkscape:connector-curvature="0"
       style="fill:#6a9d00;stroke:#000000;stroke-width:3.90300012;stroke-linecap:round;stroke-linejoin:round" />
    <path
       id="f"
       d="m 603.74,418.8 c -3.179,-1.827 -7.07,-0.234 -7.07,4.84 0,8.286 6.349,10.571 7.119,10.757 5.557,1.342 10.85,-1.821 10.85,-7.898 0,-6.754 -6.067,-11.961 -10.85,-13.12 1.325,0.143 7.14,3.111 7.14,10.797 0,5.01 -4.342,6.692 -7.167,4.844 -0.065,-0.039 -3.196,-1.989 -3.196,-5.891 0,-3.885 3.176,-4.334 3.176,-4.334"
       inkscape:connector-curvature="0" />
    <linearGradient
       xlink:href="#7"
       id="M"
       gradientUnits="userSpaceOnUse"
       x1="671.71002"
       y1="368.76001"
       x2="673.95001"
       y2="380.76999" />
    <linearGradient
       xlink:href="#5"
       id="L"
       gradientUnits="userSpaceOnUse"
       x1="659.42999"
       y1="310.81"
       x2="658.03003"
       y2="441.26001" />
    <linearGradient
       xlink:href="#7"
       id="F"
       gradientUnits="userSpaceOnUse"
       x1="482.78"
       y1="382"
       x2="485.01999"
       y2="394.01001" />
    <linearGradient
       xlink:href="#9"
       id="J"
       gradientUnits="userSpaceOnUse"
       gradientTransform="matrix(0,-0.1564,-0.15638,0,547.66,324.17)"
       x1="-704.14001"
       y1="408.54999"
       x2="-487.29999"
       y2="515.5" />
    <linearGradient
       xlink:href="#9"
       id="H"
       gradientUnits="userSpaceOnUse"
       gradientTransform="matrix(0.10702,0,0,0.107,674.9,385.02)"
       x1="-561.40997"
       y1="513.69"
       x2="-820.81"
       y2="164.69" />
    <linearGradient
       xlink:href="#1"
       id="W"
       gradientUnits="userSpaceOnUse"
       x1="186.92"
       y1="464.44"
       x2="186.64"
       y2="467.72" />
    <linearGradient
       xlink:href="#9"
       id="I"
       gradientUnits="userSpaceOnUse"
       gradientTransform="matrix(0,-0.1564,-0.15638,0,547.66,324.17)"
       x1="-520.83002"
       y1="556.48999"
       x2="-728.35999"
       y2="384.32999" />
    <linearGradient
       xlink:href="#9"
       id="N"
       gradientUnits="userSpaceOnUse"
       gradientTransform="matrix(0,-0.1564,-0.15638,0,736.59,310.93)"
       x1="-520.83002"
       y1="556.48999"
       x2="-728.35999"
       y2="384.32999" />
    <linearGradient
       xlink:href="#9"
       id="V"
       gradientUnits="userSpaceOnUse"
       gradientTransform="matrix(0,-0.1564,-0.15638,0,547.66,324.17)"
       x1="-704.14001"
       y1="408.54999"
       x2="-487.29999"
       y2="515.5" />
    <linearGradient
       xlink:href="#9"
       id="U"
       gradientUnits="userSpaceOnUse"
       gradientTransform="matrix(0,-0.1564,-0.15638,0,547.66,324.17)"
       x1="-520.83002"
       y1="556.48999"
       x2="-728.35999"
       y2="384.32999" />
    <linearGradient
       xlink:href="#9"
       id="O"
       gradientUnits="userSpaceOnUse"
       gradientTransform="matrix(0,-0.1564,-0.15638,0,736.59,310.93)"
       x1="-704.14001"
       y1="408.54999"
       x2="-487.29999"
       y2="515.5" />
    <linearGradient
       xlink:href="#9"
       id="T"
       gradientUnits="userSpaceOnUse"
       gradientTransform="matrix(0.10702,0,0,0.107,674.9,385.02)"
       x1="-561.40997"
       y1="513.69"
       x2="-820.81"
       y2="164.69" />
    <linearGradient
       xlink:href="#7"
       id="R"
       gradientUnits="userSpaceOnUse"
       x1="482.78"
       y1="382"
       x2="485.01999"
       y2="394.01001" />
    <linearGradient
       xlink:href="#5"
       id="Q"
       gradientUnits="userSpaceOnUse"
       x1="470.51001"
       y1="324.04999"
       x2="469.10999"
       y2="454.5" />
    <linearGradient
       xlink:href="#9"
       id="S"
       gradientUnits="userSpaceOnUse"
       gradientTransform="matrix(0.10702,0,0,0.107,674.9,385.02)"
       x1="-751.03003"
       y1="256.87"
       x2="-603.64001"
       y2="471.20999" />
    <linearGradient
       xlink:href="#9"
       id="G"
       gradientUnits="userSpaceOnUse"
       gradientTransform="matrix(0.10702,0,0,0.107,674.9,385.02)"
       x1="-751.03003"
       y1="256.87"
       x2="-603.64001"
       y2="471.20999" />
    <linearGradient
       id="7"
       x1="-86.260002"
       gradientUnits="userSpaceOnUse"
       y1="54.099998"
       x2="-85.080002"
       y2="60.439999">
      <stop
         stop-color="#b1883f"
         id="stop3650" />
      <stop
         stop-color="#b1883f"
         stop-opacity="0"
         offset="1"
         id="stop3652" />
    </linearGradient>
    <linearGradient
       xlink:href="#9"
       id="8"
       gradientUnits="userSpaceOnUse"
       gradientTransform="matrix(0.10702,0,0,0.107,674.9,385.02)"
       x1="-751.03003"
       y1="256.87"
       x2="-603.64001"
       y2="471.20999" />
    <linearGradient
       id="5"
       x1="-92.739998"
       gradientUnits="userSpaceOnUse"
       y1="23.521"
       x2="-93.470001"
       y2="92.370003">
      <stop
         stop-color="#fff"
         stop-opacity=".668"
         id="stop3656" />
      <stop
         stop-color="#fff"
         stop-opacity="0"
         offset="1"
         id="stop3658" />
    </linearGradient>
    <linearGradient
       id="1">
      <stop
         stop-color="#232323"
         id="stop3661" />
      <stop
         offset="1"
         stop-color="#474747"
         id="stop3663" />
    </linearGradient>
    <linearGradient
       y2="395.79001"
       x2="392.20001"
       y1="392.51001"
       x1="391.92001"
       gradientUnits="userSpaceOnUse"
       id="0"
       xlink:href="#1"
       gradientTransform="matrix(1.4128134,0,0,1.4128134,-106.8714,-160.45623)" />
    <linearGradient
       xlink:href="#5"
       id="4"
       gradientUnits="userSpaceOnUse"
       x1="470.51001"
       y1="324.04999"
       x2="469.10999"
       y2="454.5" />
    <linearGradient
       xlink:href="#7"
       id="6"
       gradientUnits="userSpaceOnUse"
       x1="482.78"
       y1="382"
       x2="485.01999"
       y2="394.01001" />
    <linearGradient
       xlink:href="#9"
       id="B"
       gradientUnits="userSpaceOnUse"
       gradientTransform="matrix(0,-0.1564,-0.15638,0,547.66,324.17)"
       x1="-520.83002"
       y1="556.48999"
       x2="-728.35999"
       y2="384.32999" />
    <linearGradient
       xlink:href="#9"
       id="C"
       gradientUnits="userSpaceOnUse"
       gradientTransform="matrix(0,-0.1564,-0.15638,0,547.66,324.17)"
       x1="-704.14001"
       y1="408.54999"
       x2="-487.29999"
       y2="515.5" />
    <linearGradient
       xlink:href="#9"
       id="A"
       gradientUnits="userSpaceOnUse"
       gradientTransform="matrix(0.10702,0,0,0.107,674.9,385.02)"
       x1="-561.40997"
       y1="513.69"
       x2="-820.81"
       y2="164.69" />
    <linearGradient
       xlink:href="#5"
       id="E"
       gradientUnits="userSpaceOnUse"
       x1="470.51001"
       y1="324.04999"
       x2="469.10999"
       y2="454.5" />
    <linearGradient
       id="9">
      <stop
         id="stop3673" />
      <stop
         offset="1"
         stop-color="#fff"
         id="stop3675" />
    </linearGradient>
    <radialGradient
       xlink:href="#3"
       id="2"
       gradientUnits="userSpaceOnUse"
       gradientTransform="matrix(0.8054,0,0,0.20643,534.12,332.23)"
       cx="-59.599998"
       cy="522.12"
       r="61.169998" />
    <radialGradient
       id="3"
       gradientUnits="userSpaceOnUse"
       cy="522.12"
       cx="-59.599998"
       gradientTransform="matrix(1.0178,0,0,0.13108,127.26,37.24)"
       r="61.169998">
      <stop
         stop-opacity=".208"
         id="stop3679" />
      <stop
         stop-opacity="0"
         offset="1"
         id="stop3681" />
    </radialGradient>
    <radialGradient
       xlink:href="#3"
       id="P"
       gradientUnits="userSpaceOnUse"
       gradientTransform="matrix(0.8054,0,0,0.20643,534.12,332.23)"
       cx="-59.599998"
       cy="522.12"
       r="61.169998" />
    <radialGradient
       xlink:href="#3"
       id="D"
       gradientUnits="userSpaceOnUse"
       gradientTransform="matrix(0.8054,0,0,0.20643,534.12,332.23)"
       cx="-59.599998"
       cy="522.12"
       r="61.169998" />
    <radialGradient
       xlink:href="#3"
       id="K"
       gradientUnits="userSpaceOnUse"
       gradientTransform="matrix(0.8054,0,0,0.20643,723.05,318.99)"
       cx="-59.599998"
       cy="522.12"
       r="61.169998" />
    <linearGradient
       y2="395.79001"
       x2="392.20001"
       y1="392.51001"
       x1="391.92001"
       gradientUnits="userSpaceOnUse"
       id="0-3"
       xlink:href="#1-8"
       gradientTransform="matrix(1.4128134,0,0,1.4128134,-106.8714,-160.45623)" />
    <linearGradient
       id="1-8">
      <stop
         stop-color="#232323"
         id="stop3661-6" />
      <stop
         offset="1"
         stop-color="#474747"
         id="stop3663-4" />
    </linearGradient>
    <linearGradient
       y2="395.79001"
       x2="392.20001"
       y1="392.51001"
       x1="391.92001"
       gradientTransform="matrix(-1.4128134,0,0,1.4128134,478.3293,-479.54961)"
       gradientUnits="userSpaceOnUse"
       id="linearGradient3898"
       xlink:href="#1-8"
       inkscape:collect="always" />
    <linearGradient
       inkscape:collect="always"
       xlink:href="#5"
       id="linearGradient5225"
       gradientUnits="userSpaceOnUse"
       x1="470.51001"
       y1="324.04999"
       x2="469.10999"
       y2="454.5" />
    <linearGradient
       inkscape:collect="always"
       xlink:href="#5"
       id="linearGradient5227"
       gradientUnits="userSpaceOnUse"
       x1="470.51001"
       y1="324.04999"
       x2="469.10999"
       y2="454.5" />
    <linearGradient
       inkscape:collect="always"
       xlink:href="#5"
       id="linearGradient5229"
       gradientUnits="userSpaceOnUse"
       x1="659.42999"
       y1="310.81"
       x2="658.03003"
       y2="441.26001" />
    <linearGradient
       inkscape:collect="always"
       xlink:href="#5"
       id="linearGradient5231"
       gradientUnits="userSpaceOnUse"
       x1="470.51001"
       y1="324.04999"
       x2="469.10999"
       y2="454.5" />
    <linearGradient
       inkscape:collect="always"
       xlink:href="#5"
       id="linearGradient5233"
       gradientUnits="userSpaceOnUse"
       x1="470.51001"
       y1="324.04999"
       x2="469.10999"
       y2="454.5" />
    <linearGradient
       inkscape:collect="always"
       xlink:href="#5"
       id="linearGradient5235"
       gradientUnits="userSpaceOnUse"
       x1="470.51001"
       y1="324.04999"
       x2="469.10999"
       y2="454.5" />
    <linearGradient
       inkscape:collect="always"
       xlink:href="#5"
       id="linearGradient5237"
       gradientUnits="userSpaceOnUse"
       x1="470.51001"
       y1="324.04999"
       x2="469.10999"
       y2="454.5" />
    <linearGradient
       inkscape:collect="always"
       xlink:href="#1-8"
       id="linearGradient5246"
       gradientUnits="userSpaceOnUse"
       gradientTransform="matrix(-1.4128134,0,0,1.4128134,478.3293,-479.54961)"
       x1="391.92001"
       y1="392.51001"
       x2="392.20001"
       y2="395.79001" />
  </defs>
  <g
     transform="translate(1523.7664,442.52176)"
     id="g3686">
    <g
       transform="translate(-1824.82,-831.92)"
       id="g3688" />
    <g
       transform="translate(-1712.88,-789.62)"
       id="g3696">
      <use
         xlink:href="#X"
         id="use3698"
         style="color:#000000;fill:url(#P);fill-rule:evenodd"
         x="0"
         y="0"
         width="448.39087"
         height="174.55663" />
      <g
         id="g3700">
        <use
           xlink:href="#Y"
           id="use3702"
           x="0"
           y="0"
           width="448.39087"
           height="174.55663" />
        <path
           d="m 483.35,382.39 37.3,8.928 -27.461,8.03 -37.28,-8.631 27.435,-8.324 z"
           id="path3704"
           inkscape:connector-curvature="0"
           style="fill:#82642f;stroke:#746137;stroke-width:1.89499998;stroke-linecap:square;stroke-linejoin:round" />
        <g
           id="g3706"
           style="fill-rule:evenodd">
          <use
             xlink:href="#Z"
             id="use3708"
             style="opacity:0.81199999;fill:url(#linearGradient5225)"
             x="0"
             y="0"
             width="448.39087"
             height="174.55663" />
          <path
             d="m 517.94,391.87 c 0,0 -34.836,-8.04 -34.836,-8.04 l -22.622,6.937 c 27,8.527 33.773,-2.924 57.46,1.103"
             id="path3710"
             inkscape:connector-curvature="0"
             style="fill:url(#R)" />
        </g>
        <g
           transform="matrix(0.39784,0,0,0.39784,249.1,210.3)"
           id="g3712">
          <use
             xlink:href="#d"
             id="use3714"
             x="0"
             y="0"
             width="448.39087"
             height="174.55663" />
          <path
             d="m 651.42,470.24 c 0,0 14.183,-15.14 14.183,-15.14 0,0 -49.37,-38.557 -49.37,-38.557 0,0 33.36,51.02 33.36,51.02 0,0 1.834,2.676 1.834,2.676"
             id="path3716"
             inkscape:connector-curvature="0"
             style="fill:#6a7a00" />
          <use
             xlink:href="#e"
             id="use3718"
             x="0"
             y="0"
             width="448.39087"
             height="174.55663" />
          <g
             id="g3720"
             style="color:#000000;fill-rule:evenodd">
            <path
               d="m 603.74,429.01 c 4.811,7.503 9.518,0.529 9.511,-4.351 -0.008,-5.769 -6.05,-10.453 -9.515,-11.289 -5.557,-1.342 -10.85,1.821 -10.85,7.898 0,6.754 6.067,11.961 10.85,13.12 -1.082,-0.412 -4.689,-2.031 -4.738,-10.08 -0.033,-5.442 1.833,-7.162 4.73,-5.507 0.065,0.039 3.196,1.989 3.196,5.891 0,3.885 -3.184,4.319 -3.184,4.319"
               id="path3722"
               inkscape:connector-curvature="0"
               style="fill:url(#S)" />
            <use
               xlink:href="#f"
               id="use3724"
               style="fill:url(#T)"
               x="0"
               y="0"
               width="448.39087"
               height="174.55663" />
          </g>
        </g>
        <use
           xlink:href="#a"
           id="use3726"
           x="0"
           y="0"
           width="448.39087"
           height="174.55663" />
        <path
           d="m 493.7,399.85 26.558,-7.983 0.169,46.23 -26.656,8.623 -0.07,-46.866 z"
           id="path3728"
           inkscape:connector-curvature="0"
           style="fill:#c7a465;stroke:#746137;stroke-width:1.89499998;stroke-linecap:square;stroke-linejoin:round" />
        <g
           id="g3730"
           style="fill-rule:evenodd">
          <use
             xlink:href="#b"
             id="use3732"
             style="color:#000000;fill:url(#U)"
             x="0"
             y="0"
             width="448.39087"
             height="174.55663" />
          <path
             d="m 505.41,417.61 c 0,0 -11.858,-17.349 -11.858,-17.349 l 27.85,-8.373 c 0,0 9.574,16.629 9.574,16.629 0,0 -25.567,9.09 -25.567,9.09 z"
             id="path3734"
             inkscape:connector-curvature="0"
             style="fill:#b1883f;stroke:#746137;stroke-width:1.89499998;stroke-linejoin:round" />
          <use
             xlink:href="#c"
             id="use3736"
             style="color:#000000;fill:url(#V)"
             x="0"
             y="0"
             width="448.39087"
             height="174.55663" />
          <path
             d="m 491.95,400.49 v 24.418 c -6.209,6.279 -35.17,-40.687 -34.804,3.145 l 0.013,-35.878 34.791,8.314"
             id="path3738"
             inkscape:connector-curvature="0"
             style="opacity:0.81199999;fill:url(#linearGradient5227)" />
        </g>
      </g>
    </g>
    <g
       transform="translate(-2078.76,-781.55)"
       id="g3740">
      <g
         id="g3742"
         style="fill-rule:evenodd">
        <path
           d="m 723.443,426.76929 a 48.40129,18.781684 0 1 1 -96.80099,0 48.40129,18.781684 0 1 1 96.80099,0"
           id="path3744"
           inkscape:connector-curvature="0"
           style="color:#000000;fill:url(#K)" />
        <path
           d="m 671.02,369.49 -12.79,10.296 -27.05,10.658 13.889,-12.987 25.953,-7.968 z"
           id="path3746"
           inkscape:connector-curvature="0"
           style="fill:#b1883f;stroke:#746137;stroke-width:1.89499998;stroke-linejoin:round" />
      </g>
      <path
         d="m 672.27,369.16 37.3,8.928 -27.461,8.03 -37.28,-8.631 27.435,-8.324 z"
         id="path3748"
         inkscape:connector-curvature="0"
         style="fill:#82642f;stroke:#746137;stroke-width:1.89499998;stroke-linecap:square;stroke-linejoin:round" />
      <g
         id="g3750"
         style="fill-rule:evenodd">
        <path
           d="m 683.59,387.23 v 24.417 c 8.724,-35.838 25.16,-23.07 24.487,-31.784 l -24.487,7.367"
           id="path3752"
           inkscape:connector-curvature="0"
           style="opacity:0.81199999;fill:url(#linearGradient5229)" />
        <path
           d="m 706.86,378.64 c 0,0 -34.836,-8.04 -34.836,-8.04 l -22.622,6.937 c 27,8.527 33.773,-2.924 57.46,1.103"
           id="path3754"
           inkscape:connector-curvature="0"
           style="fill:url(#M)" />
      </g>
      <g
         id="g3756"
         style="fill:#c7a465;stroke:#746137;stroke-width:1.89499998;stroke-linecap:square;stroke-linejoin:round">
        <path
           d="m 682.24,386.53 -36.805,-8.792 -0.246,47.04 37.05,8.788 v -47.04 z"
           id="path3758"
           inkscape:connector-curvature="0" />
        <path
           d="m 682.63,386.61 26.558,-7.983 0.169,46.23 -26.656,8.623 -0.07,-46.866 z"
           id="path3760"
           inkscape:connector-curvature="0" />
      </g>
      <g
         id="g3762"
         style="fill-rule:evenodd">
        <path
           d="m 663.24,415.53 c 6.668,9.925 13.156,-6.358 13.143,-15.252 -0.015,-10.55 -8.412,-14.474 -13.223,-13.333 -7.727,1.833 -15.05,11.727 -14.989,22.837 0.064,12.299 8.484,17.09 15.09,15.508 -1.495,0.084 -6.483,-0.081 -6.604,-14.674 -0.083,-9.912 2.493,-14.501 6.519,-13.708 0.09,0.021 4.437,1.175 4.45,8.302 0.013,7.08 -4.385,10.318 -4.385,10.318"
           id="path3764"
           inkscape:connector-curvature="0"
           style="color:#000000;fill:url(#N)" />
        <path
           d="m 694.34,404.37 c 0,0 -11.858,-17.349 -11.858,-17.349 l 27.85,-8.373 c 0,0 9.574,16.629 9.574,16.629 0,0 -25.567,9.09 -25.567,9.09 z"
           id="path3766"
           inkscape:connector-curvature="0"
           style="fill:#b1883f;stroke:#746137;stroke-width:1.89499998;stroke-linejoin:round" />
        <path
           d="m 663.19,396.9 c -4.418,-0.892 -9.806,5.03 -9.766,14.296 0.065,15.07 8.842,14.334 9.904,14.08 7.67,-1.832 14.97,-11.638 14.97,-22.705 0,-12.351 -8.424,-17.217 -15.07,-15.641 1.84,-0.763 9.922,0.193 9.935,14.265 0.008,9.14 -5.987,15.535 -9.897,14.346 -0.09,-0.021 -4.428,-1.161 -4.452,-8.271 -0.024,-7.097 4.376,-10.371 4.376,-10.371"
           id="path3768"
           inkscape:connector-curvature="0"
           style="color:#000000;fill:url(#O)" />
        <path
           d="m 680.88,387.25 v 24.418 c -6.209,6.279 -35.17,-40.687 -34.804,3.145 l 0.013,-35.878 34.791,8.314"
           id="path3770"
           inkscape:connector-curvature="0"
           style="opacity:0.81199999;fill:url(#L)" />
      </g>
    </g>
    <g
       transform="translate(-1889.83,-712.81)"
       id="g3772">
      <use
         xlink:href="#X"
         id="use3774"
         style="color:#000000;fill:url(#D);fill-rule:evenodd"
         x="0"
         y="0"
         width="448.39087"
         height="174.55663" />
      <g
         id="g3776">
        <use
           xlink:href="#Y"
           id="use3778"
           x="0"
           y="0"
           width="448.39087"
           height="174.55663" />
        <path
           d="m 483.35,382.39 37.3,8.928 -27.461,8.03 -37.28,-8.631 27.435,-8.324 z"
           id="g"
           inkscape:connector-curvature="0"
           style="fill:#82642f;stroke:#746137;stroke-width:1.89499998;stroke-linecap:square;stroke-linejoin:round" />
        <g
           id="g3781"
           style="fill-rule:evenodd">
          <use
             xlink:href="#Z"
             id="use3783"
             style="opacity:0.81199999;fill:url(#linearGradient5231)"
             x="0"
             y="0"
             width="448.39087"
             height="174.55663" />
          <path
             d="m 517.94,391.87 c 0,0 -34.836,-8.04 -34.836,-8.04 l -22.622,6.937 c 27,8.527 33.773,-2.924 57.46,1.103"
             id="path3785"
             inkscape:connector-curvature="0"
             style="fill:url(#F)" />
        </g>
        <g
           transform="matrix(0.39784,0,0,0.39784,249.1,210.3)"
           id="g3787">
          <use
             xlink:href="#d"
             id="use3789"
             x="0"
             y="0"
             width="448.39087"
             height="174.55663" />
          <path
             d="m 651.42,470.24 c 0,0 14.183,-15.14 14.183,-15.14 0,0 -49.37,-38.557 -49.37,-38.557 0,0 33.36,51.02 33.36,51.02 0,0 1.834,2.676 1.834,2.676"
             id="path3791"
             inkscape:connector-curvature="0"
             style="fill:#6a7a00" />
          <use
             xlink:href="#e"
             id="use3793"
             x="0"
             y="0"
             width="448.39087"
             height="174.55663" />
          <g
             id="g3795"
             style="color:#000000;fill-rule:evenodd">
            <path
               d="m 603.74,429.01 c 4.811,7.503 9.518,0.529 9.511,-4.351 -0.008,-5.769 -6.05,-10.453 -9.515,-11.289 -5.557,-1.342 -10.85,1.821 -10.85,7.898 0,6.754 6.067,11.961 10.85,13.12 -1.082,-0.412 -4.689,-2.031 -4.738,-10.08 -0.033,-5.442 1.833,-7.162 4.73,-5.507 0.065,0.039 3.196,1.989 3.196,5.891 0,3.885 -3.184,4.319 -3.184,4.319"
               id="path3797"
               inkscape:connector-curvature="0"
               style="fill:url(#G)" />
            <use
               xlink:href="#f"
               id="use3799"
               style="fill:url(#H)"
               x="0"
               y="0"
               width="448.39087"
               height="174.55663" />
          </g>
        </g>
        <use
           xlink:href="#a"
           id="use3801"
           x="0"
           y="0"
           width="448.39087"
           height="174.55663" />
        <path
           d="m 493.7,399.85 26.558,-7.983 0.169,46.23 -26.656,8.623 -0.07,-46.866 z"
           id="h"
           inkscape:connector-curvature="0"
           style="fill:#c7a465;stroke:#746137;stroke-width:1.89499998;stroke-linecap:square;stroke-linejoin:round" />
        <use
           xlink:href="#b"
           id="use3804"
           style="color:#000000;fill:url(#I);fill-rule:evenodd"
           x="0"
           y="0"
           width="448.39087"
           height="174.55663" />
        <path
           d="m 505.41,417.61 c 0,0 -11.858,-17.349 -11.858,-17.349 l 27.85,-8.373 c 0,0 9.574,16.629 9.574,16.629 0,0 -25.567,9.09 -25.567,9.09 z"
           id="i"
           inkscape:connector-curvature="0"
           style="fill:#b1883f;fill-rule:evenodd;stroke:#746137;stroke-width:1.89499998;stroke-linejoin:round" />
        <g
           id="g3807"
           style="fill-rule:evenodd">
          <use
             xlink:href="#c"
             id="use3809"
             style="color:#000000;fill:url(#J)"
             x="0"
             y="0"
             width="448.39087"
             height="174.55663" />
          <path
             d="m 491.95,400.49 v 24.418 c -6.209,6.279 -35.17,-40.687 -34.804,3.145 l 0.013,-35.878 34.791,8.314"
             id="path3811"
             inkscape:connector-curvature="0"
             style="opacity:0.81199999;fill:url(#linearGradient5233)" />
        </g>
      </g>
    </g>
    <g
       transform="translate(-1712.88,-712.81)"
       id="g3813">
      <use
         xlink:href="#X"
         id="use3815"
         style="color:#000000;fill:url(#2);fill-rule:evenodd"
         x="0"
         y="0"
         width="448.39087"
         height="174.55663" />
      <g
         id="g3817">
        <use
           xlink:href="#Y"
           id="use3819"
           x="0"
           y="0"
           width="448.39087"
           height="174.55663" />
        <use
           xlink:href="#g"
           id="use3821"
           x="0"
           y="0"
           width="448.39087"
           height="174.55663" />
        <g
           id="g3823"
           style="fill-rule:evenodd">
          <use
             xlink:href="#Z"
             id="use3825"
             style="opacity:0.81199999;fill:url(#linearGradient5235)"
             x="0"
             y="0"
             width="448.39087"
             height="174.55663" />
          <path
             d="m 517.94,391.87 c 0,0 -34.836,-8.04 -34.836,-8.04 l -22.622,6.937 c 27,8.527 33.773,-2.924 57.46,1.103"
             id="path3827"
             inkscape:connector-curvature="0"
             style="fill:url(#6)" />
        </g>
        <g
           transform="matrix(0.39784,0,0,0.39784,249.1,210.3)"
           id="g3829">
          <use
             xlink:href="#d"
             id="use3831"
             x="0"
             y="0"
             width="448.39087"
             height="174.55663" />
          <path
             d="m 651.42,470.24 c 0,0 14.183,-15.14 14.183,-15.14 0,0 -49.37,-38.557 -49.37,-38.557 0,0 33.36,51.02 33.36,51.02 0,0 1.834,2.676 1.834,2.676"
             id="path3833"
             inkscape:connector-curvature="0"
             style="fill:#6a7a00" />
          <use
             xlink:href="#e"
             id="use3835"
             x="0"
             y="0"
             width="448.39087"
             height="174.55663" />
          <g
             id="g3837"
             style="color:#000000;fill-rule:evenodd">
            <path
               d="m 603.74,429.01 c 4.811,7.503 9.518,0.529 9.511,-4.351 -0.008,-5.769 -6.05,-10.453 -9.515,-11.289 -5.557,-1.342 -10.85,1.821 -10.85,7.898 0,6.754 6.067,11.961 10.85,13.12 -1.082,-0.412 -4.689,-2.031 -4.738,-10.08 -0.033,-5.442 1.833,-7.162 4.73,-5.507 0.065,0.039 3.196,1.989 3.196,5.891 0,3.885 -3.184,4.319 -3.184,4.319"
               id="path3839"
               inkscape:connector-curvature="0"
               style="fill:url(#8)" />
            <use
               xlink:href="#f"
               id="use3841"
               style="fill:url(#A)"
               x="0"
               y="0"
               width="448.39087"
               height="174.55663" />
          </g>
        </g>
        <use
           xlink:href="#a"
           id="use3843"
           x="0"
           y="0"
           width="448.39087"
           height="174.55663" />
        <use
           xlink:href="#h"
           id="use3845"
           x="0"
           y="0"
           width="448.39087"
           height="174.55663" />
        <use
           xlink:href="#b"
           id="use3847"
           style="color:#000000;fill:url(#B);fill-rule:evenodd"
           x="0"
           y="0"
           width="448.39087"
           height="174.55663" />
        <use
           xlink:href="#i"
           id="use3849"
           x="0"
           y="0"
           width="448.39087"
           height="174.55663" />
        <g
           id="g3851"
           style="fill-rule:evenodd">
          <use
             xlink:href="#c"
             id="use3853"
             style="color:#000000;fill:url(#C)"
             x="0"
             y="0"
             width="448.39087"
             height="174.55663" />
          <path
             d="m 491.95,400.49 v 24.418 c -6.209,6.279 -35.17,-40.687 -34.804,3.145 l 0.013,-35.878 34.791,8.314"
             id="path3855"
             inkscape:connector-curvature="0"
             style="opacity:0.81199999;fill:url(#linearGradient5237)" />
        </g>
      </g>
    </g>
    <g
       transform="translate(-1627.4,-701.69)"
       id="g3857">
      <g
         transform="translate(71.72,15.15)"
         id="g3859">
        <path
           d="m 215.78,415.04 7.28,-20.681 -14.394,-18.365 21.674,1.158 13.236,-19.854 5.625,21.01 22.17,6.784 -18.2,12.243 0.993,22.832 -16.711,-13.236 z"
           id="path3861"
           inkscape:connector-curvature="0"
           style="fill:#6a9d00" />
        <g
           word-spacing="0"
           line-height="125%"
           letter-spacing="0"
           font-size="15.439"
           id="g3863"
           style="font-size:15.43900013px;line-height:125%;letter-spacing:0;word-spacing:0;font-family:Yanone Kaffeesatz">
          <text
             x="220.28"
             y="390.72"
             id="text3865">
            <tspan
               x="220.28"
               y="390.72"
               id="tspan3867">webserv</tspan>
          </text>
          <text
             x="231.27"
             y="403.10001"
             id="text3869">
            <tspan
               x="231.27"
               y="403.10001"
               id="tspan3871">net</tspan>
          </text>
        </g>
      </g>
      <text
         transform="matrix(1,5.5e-4,-5.5e-4,1,0,0)"
         x="266.64001"
         y="390.38"
         word-spacing="0"
         line-height="125%"
         letter-spacing="0"
         font-size="19.961"
         id="text3873"
         sodipodi:linespacing="125%"
         style="font-size:19.96100044px;line-height:125%;letter-spacing:0;word-spacing:0;font-family:Yanone Kaffeesatz">
        <tspan
           x="266.64001"
           y="390.38"
           id="tspan3875">SetupNetworks</tspan>
      </text>
      <path
         d="m 369.92879,392.79761 -104.79865,-0.95683 0,-2.62218 -5.71554,4.53584 5.71554,3.1866 0,-2.22978 104.79865,0.95683 z"
         id="path3877"
         inkscape:connector-curvature="0"
         style="fill:url(#0);stroke:#000000;stroke-width:1.05819726"
         sodipodi:nodetypes="cccccccc" />
    </g>
  </g>
  <g
     id="g5241">
    <text
       style="font-size:19.96100044px;line-height:125%;letter-spacing:0;word-spacing:0;font-family:Yanone Kaffeesatz"
       sodipodi:linespacing="125%"
       id="text3690"
       font-size="19.961"
       letter-spacing="0"
       line-height="125%"
       word-spacing="0"
       transform="matrix(0.99999999,5.5e-4,-5.5e-4,0.99999999,-217.0536,-389.39824)"
       x="218.7"
       y="462.32999">
      <tspan
         id="tspan3692"
         x="218.7"
         y="462.32999">Reboot</tspan>
    </text>
    <path
       sodipodi:nodetypes="cccccccc"
       style="fill:url(#linearGradient5246);stroke:#000000;stroke-width:1.05819726"
       inkscape:connector-curvature="0"
       id="path3877-2"
       d="m 1.5290986,73.704245 86.7986504,-0.95683 0,-2.62218 5.71554,4.53584 -5.71554,3.1866 0,-2.22978 -86.7986504,0.95683 z" />
  </g>
  <text
     style="font-size:19.96100235px;line-height:125%;letter-spacing:0;word-spacing:0;font-family:Yanone Kaffeesatz"
     sodipodi:linespacing="125%"
     y="15.667009"
     x="81.844376"
     transform="matrix(0.99999985,5.4999992e-4,-5.4999992e-4,0.99999985,0,0)"
     word-spacing="0"
     line-height="125%"
     letter-spacing="0"
     font-size="19.961"
     id="text3690-7">
    <tspan
       y="15.667009"
       x="81.844376"
       id="tspan3692-9">RunningConfig</tspan>
    <tspan
       y="15.667009"
       x="81.844376"
       id="tspan5189" />
    <tspan
       y="15.667009"
       x="81.844376"
       id="tspan5191" />
    <tspan
       y="15.667009"
       x="81.844376"
       id="tspan5193" />
  </text>
  <text
     style="font-size:19.96100235px;line-height:125%;letter-spacing:0;word-spacing:0;font-family:Yanone Kaffeesatz"
     sodipodi:linespacing="125%"
     y="15.568547"
     x="247.8846"
     transform="matrix(0.99999985,5.4999993e-4,-5.4999993e-4,0.99999985,0,0)"
     word-spacing="0"
     line-height="125%"
     letter-spacing="0"
     font-size="19.961"
     id="text3690-7-7">
    <tspan
       y="15.568547"
       x="247.8846"
       id="tspan3692-9-7">PersistentConfig</tspan>
    <tspan
       y="15.568547"
       x="247.8846"
       id="tspan5189-1" />
    <tspan
       y="15.568547"
       x="247.8846"
       id="tspan5191-0" />
    <tspan
       y="15.568547"
       x="247.8846"
       id="tspan5193-5" />
  </text>
</svg>
