<svg xmlns="http://www.w3.org/2000/svg" xmlns:xlink="http://www.w3.org/1999/xlink" preserveAspectRatio="xMinYMin meet" viewBox="0 0 114.06659 78.826433" width="100%" height="100%"><defs><path id="4" d="m26.55 36.95l-3.42.43-.58-4.655 3.4-.425z" fill="#0f0" fill-rule="evenodd"/><path id="5" d="m257.67 472.58c-5 1-10.302.372-10 12.371v75.63c0 6 2.28 11.701 11.05 9.924l121.95 1.076c8.994.576 10.375-1.061 16-7.243l30.3-33.54c5.247-6.25 3.987-14.349-.281-19.277l-30.01-33.939c-6.103-6.457-8.622-4.622-13.247-5z" stroke-linejoin="round" stroke="#000" stroke-dashoffset="3" fill="#fff" stroke-width="2" stroke-linecap="round"/><rect id="6" width="127.27" x="259.41" y="482.72" rx="7.76" height="77.65" stroke-linejoin="round" stroke="#000" stroke-dashoffset="3" fill="#fff" stroke-linecap="round"/><linearGradient xlink:href="#0" id="3" gradientUnits="userSpaceOnUse" x1="1597.22" x2="1619.82"/><linearGradient xlink:href="#0" id="2" gradientUnits="userSpaceOnUse" x1="1678.18" x2="1700.78"/><linearGradient id="0"><stop stop-color="#a5c4e6"/><stop offset="1" stop-color="#497bb3"/></linearGradient><linearGradient xlink:href="#0" id="1" gradientUnits="userSpaceOnUse" x1="1637.37" x2="1659.96"/></defs><g transform="translate(-117.18-307.13)"><path d="m175.77 359.1l43.1.042" stroke-dasharray="1.1587 0.579348" fill="none" stroke="#000" stroke-width=".29"/><g transform="matrix(1.28023 0 0 1.28023-1913.23-388.23)"><path transform="matrix(1 .00055-.00055 1 0 0)" fill="url(#1)" stroke="#000" stroke-width=".5" d="m1637.62 578.69h22.09v7.457h-22.09z"/><text transform="matrix(1 .00055-.00055 1 0 0)" y="584.05" x="1644.56" font-family="Yanone Kaffeesatz" word-spacing="0" line-height="125%" letter-spacing="0" font-size="5.45"><tspan y="584.05" x="1644.56">Bond</tspan></text></g><g transform="matrix(1.28023 0 0 1.28023-1965.59-395.91)"><path transform="matrix(1 .00055-.00055 1 0 0)" fill="url(#2)" stroke="#000" stroke-width=".5" d="m1678.43 566.35h22.1v7.457h-22.1z"/><text y="571.72" x="1680.73" transform="matrix(1 .00055-.00055 1 0 0)" font-family="Yanone Kaffeesatz" word-spacing="0" line-height="125%" letter-spacing="0" font-size="5.45"><tspan y="571.72" x="1680.73">SW Bridge</tspan></text></g><g transform="matrix(1.28023 0 0 1.28023-1965.59-389.19)"><g fill-rule="evenodd"><path d="m1703.35 552.06c-.01-.045-.068-.077-.181-.096-.109-.016-.238-.013-.387.01-.149.024-.274.06-.377.109-.099.053-.144.102-.137.147.01.045.066.074.175.089.114.019.245.017.394-.007.149-.023.272-.061.37-.113.103-.049.151-.095.144-.14m-1.23.246l-.486.055.109.767.48-.068-.48.068-.109-.767.486-.055m-.925.102l.439-.048-.439.048m1.312.429c-.098.053-.144.102-.137.147.01.045.066.074.175.089.114.019.245.017.394-.007.149-.023.272-.061.37-.113.103-.049.151-.095.144-.14-.01-.045-.068-.077-.181-.096-.109-.016-.238-.013-.387.01-.148.024-.274.06-.377.109m-2.615 1.523l.137.925-.137-.925m1.851-1.232l.102.822.514-.102-.514.102-.102-.822m-.466.829l-.215-1.627-3.392.447.215 1.627 3.392-.447m1.405-.129c.114.019.245.017.394-.007.149-.023.272-.061.37-.113.103-.049.151-.095.144-.14-.01-.045-.068-.077-.181-.096-.109-.016-.238-.013-.387.01-.149.024-.274.06-.377.109-.098.053-.144.102-.137.147.01.045.066.074.175.089m.671 1.063c0-.119-.043-.222-.13-.308-.087-.082-.192-.123-.315-.124-.123 0-.228.041-.315.123-.087.087-.13.189-.13.308 0 .119.043.219.13.302.087.087.192.13.315.13.123 0 .228-.043.315-.13.087-.082.13-.183.13-.301m-2.844.704l1.062-.136.137.994 2.433-.307-.273-1.576-.514.034.514-.034.273 1.576-2.433.307-.137-.994-1.062.136m-.055.942l-.143-1.107-2.398.317.143 1.103 2.398-.314m-3.255 1.201l-.693-5.448.325-.062.24-.096 7.109-.835.836 5.924-7.73 1.089v-.127-.096l-.089-.35m2.044-3.343l.102.994-.102-.994m-.925.102l.137 1.028-.137-1.028" fill="#df0b00"/><path d="m1703.35 552.06c.01.045-.041.092-.144.14-.098.052-.221.09-.37.113-.149.024-.28.026-.394.007-.109-.015-.167-.044-.175-.089-.01-.045.039-.094.137-.147.103-.049.228-.086.377-.109.149-.023.278-.026.387-.01.114.019.174.051.181.096m-.843.777c.103-.049.228-.086.377-.109.149-.023.278-.026.387-.01.114.019.174.051.181.096.01.045-.041.092-.144.14-.098.052-.221.09-.37.113-.149.024-.28.026-.394.007-.109-.015-.167-.044-.175-.089-.01-.045.039-.094.137-.147m-1.231 1.119l-3.392.447-.215-1.627 3.392-.447.215 1.627m1.405-.129c-.109-.015-.167-.044-.175-.089-.01-.045.039-.094.137-.147.103-.049.228-.086.377-.109.149-.023.278-.026.387-.01.114.019.174.051.181.096.01.045-.041.092-.144.14-.098.052-.221.09-.37.113-.149.024-.28.026-.394.007m.671 1.062c0 .119-.043.219-.13.301-.087.087-.192.13-.315.13-.123 0-.228-.044-.315-.13-.087-.082-.13-.183-.13-.302 0-.119.043-.222.13-.308.087-.082.192-.123.315-.123.123 0 .228.041.315.124.087.087.13.19.13.308m-2.899 1.646l-2.398.314-.143-1.103 2.398-.317.143 1.107m-3.943-.561l.051.401-.144.02-.051-.404.144-.017m-.686.904l-.147-1.172.61-.078.15 1.172-.613.078" fill="#333"/><path d="m1696.12 551.02l.216-.027.044.346-.26-.319.26.319.01.082-1.634.208 1.634-.208.099.781.01.089.693 5.448.355 2.799-1.634.208-1.156-9.11-.25.031-.017-.154.264.117v.007-.007l-.264-.117-.038-.281.367-.048 1.299-.164zm-.461 2.953l.469-.058-.082-.637-.466.058.078.637m.163 2.909l.613-.078-.15-1.172-.61.078.147 1.172m.686-.904l-.144.017.051.404.144-.02-.051-.401" fill="#ccc"/></g><path transform="matrix(.13704.00008-.00008.13704 1692.49 548.85)" fill="#0f0" fill-rule="evenodd" d="m25.95 32.3l.6 4.65-3.42.43-.58-4.655z" id="7"/><g fill="none" stroke-linejoin="round" stroke-linecap="round" stroke-miterlimit="3"><path d="m1703.35 552.06c.01.045-.041.092-.144.14-.098.052-.221.09-.37.113-.149.024-.28.026-.394.007-.109-.015-.167-.044-.175-.089-.01-.045.039-.094.137-.147.103-.049.228-.086.377-.109.149-.023.278-.026.387-.01.114.019.174.051.181.096zm-.843.777c.103-.049.228-.086.377-.109.149-.023.278-.026.387-.01.114.019.174.051.181.096.01.045-.041.092-.144.14-.098.052-.221.09-.37.113-.149.024-.28.026-.394.007-.109-.015-.167-.044-.175-.089-.01-.045.039-.094.137-.147zm.174.99c-.109-.015-.167-.044-.175-.089-.01-.045.039-.094.137-.147.103-.049.228-.086.377-.109.149-.023.278-.026.387-.01.114.019.174.051.181.096.01.045-.041.092-.144.14-.098.052-.221.09-.37.113-.149.024-.28.026-.394.007z" stroke="#fc9" stroke-width=".274"/><path d="m1702.12 552.31l-.486.055.109.767.48-.068m-1.027-.652l.439-.048m-1.742 2l.137.925m1.714-2.157l.102.822.514-.102m-1.851 1.746l1.062-.136.137.994 2.433-.307-.273-1.576-.514.034m-4.111-.208l.102.994m-1.027-.891l.137 1.028" stroke="#0f0" stroke-width=".137"/><g stroke="#000"><path d="m1697.07 552.13l7.109-.835.836 5.924-7.73 1.089m0-.127v-.096l-.089-.35m-.127-5.605l-.576.068" stroke-width=".274"/><path d="m1697.2 557.74l.355 2.799-1.634.208-1.156-9.11v-.007l-.264-.117-.733-.322m1.062-.006l-.212-.165-.884.099m2.395-.098l-.158-.206-.946.119-.195.25m1.682 1.108l-.01-.089-.099-.781-1.634.208m1.624-.29l-.26-.319m1.075 6.719l-.693-5.448" stroke-width=".411"/><path d="m1695.66 553.97l-.078-.637.466-.058.082.637-.469.058zm.849 2l.051.401-.144.02-.051-.404.144-.017zm-.686.904l-.147-1.172.61-.078.15 1.172-.613.078z" stroke-width=".137"/></g><path d="m1701.27 553.96l-3.392.447-.215-1.627 3.392-.447.215 1.627zm2.076.933c0 .119-.043.219-.13.301-.087.087-.192.13-.315.13-.123 0-.228-.044-.315-.13-.087-.082-.13-.183-.13-.302 0-.119.043-.222.13-.308.087-.082.192-.123.315-.123.123 0 .228.041.315.124.087.087.13.19.13.308zm-2.899 1.646l-2.398.314-.143-1.103 2.398-.317.143 1.107z" stroke="#999" stroke-width=".274"/></g><text y="560.48" x="1698.16" transform="matrix(1 .00055-.00055 1 0 0)" font-family="Yanone Kaffeesatz" word-spacing="0" line-height="125%" letter-spacing="0" font-size="4.207"><tspan y="560.48" x="1698.16">vNic</tspan></text><g fill-rule="evenodd"><path d="m1683.04 552.05c-.01-.045-.068-.077-.181-.096-.109-.016-.238-.013-.387.01-.149.024-.274.06-.377.109-.099.053-.144.102-.137.147.01.045.066.074.175.089.114.019.245.017.394-.007.149-.023.272-.061.37-.113.103-.049.151-.095.144-.14m-1.23.246l-.486.054.109.767.48-.068-.48.068-.109-.767.486-.054m-.925.102l.439-.048-.439.048m1.312.429c-.098.053-.144.102-.137.147.01.045.066.074.175.089.114.019.245.017.394-.007.149-.023.272-.061.37-.113.103-.049.151-.095.144-.14-.01-.045-.068-.077-.181-.096-.109-.016-.238-.013-.387.01-.148.024-.274.06-.377.109m-2.615 1.523l.137.925-.137-.925m1.851-1.232l.102.822.514-.102-.514.102-.102-.822m-.466.829l-.215-1.627-3.392.447.215 1.627 3.392-.447m1.405-.129c.114.019.245.017.394-.007.149-.023.272-.061.37-.113.103-.049.151-.095.144-.14-.01-.045-.068-.077-.181-.096-.109-.016-.238-.013-.387.01-.149.024-.274.06-.377.109-.098.053-.144.102-.137.147.01.045.066.074.175.089m.671 1.063c0-.119-.043-.222-.13-.308-.087-.082-.192-.123-.315-.124-.123 0-.228.041-.315.123-.087.087-.13.189-.13.308 0 .119.043.219.13.302.087.087.192.13.315.13.123 0 .228-.043.315-.13.087-.082.13-.183.13-.301m-2.844.704l1.062-.136.137.994 2.433-.307-.273-1.576-.514.034.514-.034.273 1.576-2.433.307-.137-.994-1.062.136m-.055.942l-.143-1.107-2.398.317.143 1.103 2.398-.314m-3.255 1.201l-.693-5.448.325-.062.24-.096 7.109-.835.836 5.924-7.73 1.089v-.127-.096l-.089-.35m2.044-3.343l.102.994-.102-.994m-.925.102l.137 1.028-.137-1.028" fill="#df0b00"/><path d="m1683.04 552.05c.01.045-.041.092-.144.14-.098.052-.221.09-.37.113-.149.024-.28.026-.394.007-.109-.015-.167-.044-.175-.089-.01-.045.039-.094.137-.147.103-.049.228-.086.377-.109.149-.023.278-.026.387-.01.114.019.174.051.181.096m-.843.777c.103-.049.228-.086.377-.109.149-.023.278-.026.387-.01.114.019.174.051.181.096.01.045-.041.092-.144.14-.098.052-.221.09-.37.113-.149.024-.28.026-.394.007-.109-.015-.167-.044-.175-.089-.01-.045.039-.094.137-.147m-1.231 1.119l-3.392.447-.215-1.627 3.392-.447.215 1.627m1.405-.129c-.109-.015-.167-.044-.175-.089-.01-.045.039-.094.137-.147.103-.049.228-.086.377-.109.149-.023.278-.026.387-.01.114.019.174.051.181.096.01.045-.041.092-.144.14-.098.052-.221.09-.37.113-.149.024-.28.026-.394.007m.671 1.062c0 .119-.043.219-.13.301-.087.087-.192.13-.315.13-.123 0-.228-.044-.315-.13-.087-.082-.13-.183-.13-.302 0-.119.043-.222.13-.308.087-.082.192-.123.315-.123.123 0 .228.041.315.124.087.087.13.19.13.308m-2.899 1.646l-2.398.314-.143-1.103 2.398-.317.143 1.107m-3.943-.561l.051.401-.144.02-.051-.404.144-.017m-.686.904l-.147-1.172.61-.078.15 1.172-.613.078" fill="#333"/><path d="m1675.81 551.01l.216-.027.044.346-.26-.319.26.319.01.082-1.634.208 1.634-.208.099.781.01.089.693 5.448.355 2.799-1.634.208-1.156-9.11-.25.031-.017-.154.264.117v.007-.007l-.264-.117-.038-.281.367-.048 1.299-.164zm-.461 2.953l.469-.058-.082-.637-.466.058.078.637m.163 2.909l.613-.078-.15-1.172-.61.078.147 1.172m.686-.904l-.144.017.051.404.144-.02-.051-.401" fill="#ccc"/></g><use transform="matrix(.13704.00008-.00008.13704 1672.18 548.84)" xlink:href="#4"/><g fill="none" stroke-linejoin="round" stroke-linecap="round" stroke-miterlimit="3"><path d="m1683.04 552.05c.01.045-.041.092-.144.14-.098.052-.221.09-.37.113-.149.024-.28.026-.394.007-.109-.015-.167-.044-.175-.089-.01-.045.039-.094.137-.147.103-.049.228-.086.377-.109.149-.023.278-.026.387-.01.114.019.174.051.181.096zm-.843.777c.103-.049.228-.086.377-.109.149-.023.278-.026.387-.01.114.019.174.051.181.096.01.045-.041.092-.144.14-.098.052-.221.09-.37.113-.149.024-.28.026-.394.007-.109-.015-.167-.044-.175-.089-.01-.045.039-.094.137-.147zm.174.99c-.109-.015-.167-.044-.175-.089-.01-.045.039-.094.137-.147.103-.049.228-.086.377-.109.149-.023.278-.026.387-.01.114.019.174.051.181.096.01.045-.041.092-.144.14-.098.052-.221.09-.37.113-.149.024-.28.026-.394.007z" stroke="#fc9" stroke-width=".274"/><path d="m1681.81 552.3l-.486.054.109.767.48-.068m-1.027-.652l.439-.048m-1.742 2l.137.925m1.714-2.157l.102.822.514-.102m-1.851 1.746l1.062-.136.137.994 2.433-.307-.273-1.576-.514.034m-4.111-.208l.102.994m-1.027-.891l.137 1.028" stroke="#0f0" stroke-width=".137"/><g stroke="#000"><path d="m1676.76 552.12l7.109-.835.836 5.924-7.73 1.089m0-.127v-.096l-.089-.35m-.127-5.605l-.576.068" stroke-width=".274"/><path d="m1676.88 557.73l.355 2.799-1.634.208-1.156-9.11v-.007l-.264-.117-.733-.322m1.062-.006l-.212-.165-.884.099m2.395-.098l-.158-.206-.946.119-.195.25m1.682 1.108l-.01-.089-.099-.781-1.634.208m1.624-.29l-.26-.319m1.075 6.719l-.693-5.448" stroke-width=".411"/><path d="m1675.35 553.96l-.078-.637.466-.058.082.637-.469.058zm.849 2l.051.401-.144.02-.051-.404.144-.017zm-.686.904l-.147-1.172.61-.078.15 1.172-.613.078z" stroke-width=".137"/></g><path d="m1680.96 553.95l-3.392.447-.215-1.627 3.392-.447.215 1.627zm2.076.933c0 .119-.043.219-.13.301-.087.087-.192.13-.315.13-.123 0-.228-.044-.315-.13-.087-.082-.13-.183-.13-.302 0-.119.043-.222.13-.308.087-.082.192-.123.315-.123.123 0 .228.041.315.124.087.087.13.19.13.308zm-2.899 1.646l-2.398.314-.143-1.103 2.398-.317.143 1.107z" stroke="#999" stroke-width=".274"/></g><text y="560.48" x="1677.85" transform="matrix(1 .00055-.00055 1 0 0)" font-family="Yanone Kaffeesatz" word-spacing="0" line-height="125%" letter-spacing="0" font-size="4.207"><tspan y="560.48" x="1677.85">vNic</tspan></text><path d="m1684.78 555.26l9.961.005" stroke-dasharray="0.45 1.35" fill="none" stroke="#000" stroke-width=".225"/><text transform="matrix(1 .00055-.00055 1 0 0)" y="551.42" x="1686.34" font-family="Yanone Kaffeesatz" word-spacing="0" line-height="125%" letter-spacing="0" font-size="5.092"><tspan y="551.42" x="1686.34">1..<tspan font-size="4.7">N</tspan></tspan></text></g><g fill="none" stroke="#000"><path d="m196.94 329.7l.015-7.822" stroke-dasharray="0.570981 1.71294" stroke-width=".285"/><g stroke-dasharray="1.1522 0.576102" stroke-width=".288"><path d="m196.95 353.66v-13.304"/><path d="m175.48 368.95l.017-10.01"/></g></g><g fill-rule="evenodd"><path d="m180.62 369.57c-.013-.058-.087-.099-.232-.123-.14-.021-.305-.017-.496.013-.19.031-.351.077-.483.14-.126.068-.185.13-.176.189.013.057.084.095.224.114.146.025.314.022.504-.009.191-.03.348-.078.474-.145.132-.062.193-.122.184-.18zm-1.575.315l-.623.07.14.983.614-.087-.614.087-.14-.983.623-.07m-1.184.131l.561-.061-.561.061m1.68.549c-.126.068-.184.13-.176.188.013.057.084.095.223.115.146.025.314.022.504-.009.191-.03.348-.078.474-.144.132-.062.194-.122.184-.18-.013-.057-.087-.099-.232-.123-.139-.021-.305-.016-.496.013-.19.031-.351.077-.483.14m-3.348 1.95l.175 1.184-.175-1.184m2.369-1.578l.131 1.053.658-.131-.658.131-.131-1.053m-.597 1.061l-.275-2.084-4.343.572.275 2.084 4.342-.572m1.798-.166c.146.025.314.022.504-.009.191-.03.348-.078.474-.145.132-.062.194-.122.184-.18-.013-.058-.087-.099-.232-.123-.14-.021-.305-.017-.496.013-.19.031-.351.077-.483.14-.126.068-.184.13-.176.188.013.057.084.095.224.114zm.859 1.36c0-.152-.055-.284-.166-.395-.111-.105-.245-.158-.404-.158-.158 0-.292.053-.404.158-.111.111-.167.243-.167.395 0 .152.055.281.166.386.111.112.245.167.403.167.158 0 .292-.055.404-.167.111-.105.167-.234.167-.386m-3.641.901l1.36-.175.175 1.272 3.114-.393-.35-2.02-.658.043.658-.043.35 2.02-3.114.393-.175-1.272-1.36.175m-.07 1.206l-.183-1.417-3.071.406.183 1.412 3.071-.402m-4.168 1.537l-.887-6.974.417-.079.307-.123 9.102-1.07 1.071 7.584-9.896 1.394v-.162-.123l-.114-.447m2.617-4.279l.131 1.272-.131-1.272m-1.184.131l.175 1.316-.175-1.316" fill="#060"/><path d="m180.62 369.57c.013.057-.053.118-.184.18-.126.067-.283.115-.474.144-.19.03-.358.033-.504.009-.14-.019-.214-.057-.223-.115-.013-.058.05-.121.176-.188.132-.063.292-.109.483-.14.191-.03.356-.033.496-.013.145.024.222.07.232.123m-1.08.995c.132-.063.293-.109.483-.14.191-.03.356-.033.496-.013.146.024.222.07.232.123.013.057-.053.118-.184.18-.126.067-.283.115-.474.144-.19.03-.358.033-.504.009-.139-.019-.214-.057-.224-.114-.013-.058.05-.121.176-.188zm-1.575 1.433l-4.343.572-.275-2.084 4.343-.572.275 2.084m1.798-.166c-.14-.019-.214-.057-.223-.115-.013-.058.05-.121.176-.188.132-.063.293-.109.483-.14.19-.029.356-.033.496-.013.145.024.222.07.232.123.013.057-.053.118-.184.18-.126.067-.283.115-.474.144-.19.03-.358.033-.504.009m.859 1.36c0 .152-.055.281-.167.386-.111.111-.246.167-.404.167-.158 0-.292-.056-.403-.167-.111-.105-.166-.234-.166-.386 0-.152.055-.284.167-.395.111-.105.246-.158.404-.158.158 0 .292.053.404.158.111.112.166.243.166.395m-3.712 2.108l-3.071.402-.183-1.412 3.071-.406.183 1.417m-5.05-.718l.065.513-.184.026-.065-.518.184-.022m-.878 1.158l-.188-1.5.781-.1.192 1.5-.785.101" fill="#333"/><path d="m171.37 368.24l.276-.035.056.443-.333-.408.333.408.013.105-2.092.266 2.092-.266.127 1 .013.114.887 6.974.454 3.584-2.092.266-1.48-11.663-.32.039-.022-.197.338.149v.01-.01l-.338-.149-.047-.36.469-.061 1.662-.21zm-.59 3.781l.601-.074-.105-.816-.597.074.1.816m.209 3.724l.785-.1-.192-1.5-.781.101.188 1.5m.878-1.158l-.184.022.065.518.184-.026-.065-.513" fill="#ccc"/></g><use transform="matrix(.17544.0001-.0001.17544 166.72 365.46)" xlink:href="#4"/><g fill="none" stroke-linejoin="round" stroke-linecap="round" stroke-miterlimit="3"><path d="m180.62 369.57c.013.057-.053.118-.184.18-.126.067-.283.115-.474.144-.19.03-.358.033-.504.009-.14-.019-.214-.057-.223-.115-.013-.058.05-.121.176-.188.132-.063.292-.109.483-.14.191-.03.356-.033.496-.013.145.024.222.07.232.123zm-1.079.995c.132-.063.293-.109.483-.14.191-.03.356-.033.496-.013.146.024.222.07.232.123.013.057-.053.118-.184.18-.126.067-.283.115-.474.144-.19.03-.358.033-.504.009-.139-.019-.214-.057-.224-.114-.013-.058.05-.121.176-.188zm.223 1.268c-.14-.019-.214-.057-.223-.115-.013-.058.05-.121.176-.188.132-.063.293-.109.483-.14.19-.029.356-.033.496-.013.145.024.222.07.232.123.013.057-.053.118-.184.18-.126.067-.283.115-.474.144-.19.03-.358.033-.504.009z" stroke="#fc9" stroke-width=".351"/><path d="m179.05 369.89l-.623.07.14.983.614-.087m-1.315-.834l.562-.061m-2.23 2.56l.175 1.184m2.195-2.762l.131 1.053.658-.131m-2.37 2.236l1.36-.175.175 1.272 3.114-.393-.35-2.02-.658.044m-5.263-.266l.131 1.272m-1.315-1.141l.175 1.316" stroke="#0f0" stroke-width=".175"/><g stroke-width=".351"><path d="m177.97 372l-4.343.572-.275-2.084 4.343-.572.275 2.084zm2.657 1.194c0 .152-.055.281-.167.386-.111.111-.246.167-.404.167-.158 0-.292-.056-.403-.167-.111-.105-.166-.234-.166-.386 0-.152.055-.284.167-.395.111-.105.246-.158.404-.158.158 0 .292.053.404.158.111.112.166.243.166.395zm-3.712 2.108l-3.071.402-.183-1.412 3.071-.406.183 1.417z" stroke="#999"/><path d="m172.58 369.66l9.102-1.07 1.071 7.584-9.896 1.394m0-.162v-.123l-.114-.448m-.163-7.176l-.737.087" stroke="#000"/></g><g stroke="#000"><path d="m172.74 376.84l.454 3.584-2.092.266-1.48-11.663v-.01l-.338-.149-.938-.413m1.36-.008l-.272-.211-1.132.127m3.066-.126l-.202-.263-1.211.153-.25.32m2.153 1.418l-.013-.114-.127-1-2.092.266m2.079-.372l-.333-.408m1.377 8.602l-.887-6.974" stroke-width=".526"/><path d="m170.78 372.02l-.1-.816.597-.074.105.816-.601.074zm1.086 2.566l.065.513-.184.026-.065-.518.184-.022zm-.878 1.157l-.188-1.5.781-.1.192 1.5-.785.101z" stroke-width=".175"/></g></g><g fill-rule="evenodd"><path d="m223.94 369.57c-.013-.057-.087-.099-.232-.123-.14-.021-.305-.017-.496.013-.19.031-.351.077-.483.14-.127.067-.184.13-.176.188.013.057.084.095.223.115.146.025.314.022.504-.009.191-.03.348-.078.474-.145.132-.062.193-.122.184-.18m-1.575.315l-.623.07.14.983.614-.087-.614.087-.14-.983.623-.07m-1.184.131l.561-.061-.561.061m1.68.549c-.126.068-.184.13-.176.188.013.057.084.095.223.115.146.025.314.022.504-.009.191-.03.348-.078.474-.144.132-.062.194-.122.184-.18-.013-.058-.087-.099-.232-.123-.139-.021-.305-.016-.496.013-.19.031-.351.077-.483.14m-3.348 1.95l.175 1.184-.175-1.184m2.369-1.578l.131 1.053.658-.131-.658.131-.131-1.053m-.597 1.061l-.275-2.084-4.343.572.275 2.084 4.342-.572m1.798-.166c.146.025.314.022.504-.009.191-.03.348-.078.474-.145.132-.062.194-.122.184-.18-.013-.058-.087-.099-.232-.123-.14-.021-.305-.017-.496.013-.19.031-.351.077-.483.14-.126.068-.184.13-.176.188.013.057.084.095.224.114zm.859 1.36c0-.152-.055-.284-.166-.395-.111-.105-.245-.158-.404-.158-.158 0-.292.052-.404.158-.111.111-.167.243-.167.395 0 .152.055.281.166.386.112.111.245.167.403.167.158 0 .292-.055.404-.166.111-.105.167-.234.167-.386m-3.641.901l1.36-.175.175 1.272 3.114-.393-.35-2.02-.658.044.658-.044.35 2.02-3.114.393-.175-1.272-1.36.175m-.07 1.206l-.183-1.417-3.07.406.183 1.413 3.071-.402m-4.168 1.537l-.887-6.974.417-.079.307-.123 9.102-1.07 1.071 7.584-9.896 1.394v-.162-.123l-.114-.447m2.617-4.279l.131 1.272-.131-1.272m-1.184.131l.175 1.316-.175-1.316" fill="#060"/><path d="m223.94 369.57c.013.057-.053.118-.184.18-.126.067-.283.115-.474.144-.19.03-.358.033-.504.009-.14-.019-.214-.057-.224-.114-.013-.058.05-.121.176-.189.132-.063.292-.109.483-.14.19-.029.356-.033.496-.013.145.024.222.07.232.123zm-1.08.995c.132-.063.293-.11.483-.14.191-.03.356-.033.496-.013.146.024.222.07.232.123.013.057-.053.118-.184.18-.126.067-.283.115-.474.144-.19.03-.358.033-.504.009-.139-.019-.214-.057-.224-.114-.013-.058.05-.121.176-.188zm-1.575 1.433l-4.343.572-.275-2.084 4.343-.572.275 2.084m1.798-.166c-.14-.019-.214-.057-.223-.115-.013-.058.05-.121.176-.188.132-.063.293-.109.483-.14.191-.03.356-.033.496-.013.145.024.222.07.232.123.013.057-.053.118-.184.18-.126.067-.283.115-.474.145-.19.03-.358.033-.504.009m.859 1.36c0 .152-.055.281-.167.386-.111.111-.246.167-.404.166-.158 0-.292-.056-.403-.167-.111-.105-.166-.234-.166-.386 0-.152.055-.284.167-.395.111-.105.246-.158.404-.158.158 0 .292.053.404.158.112.111.166.243.166.395m-3.712 2.108l-3.071.402-.183-1.413 3.07-.406.183 1.417m-5.05-.718l.065.513-.184.026-.065-.518.184-.022m-.878 1.158l-.188-1.5.781-.101.192 1.5-.785.101" fill="#333"/><path d="m214.69 368.24l.276-.035.056.443-.333-.408.333.408.013.105-2.092.266 2.092-.266.127 1 .013.114.887 6.974.454 3.584-2.092.266-1.48-11.663-.32.039-.022-.197.338.149v.01-.01l-.338-.149-.049-.36.469-.061 1.662-.21zm-.59 3.78l.601-.074-.105-.816-.597.074.1.816m.209 3.724l.785-.1-.192-1.5-.781.1.188 1.5m.878-1.158l-.184.022.065.518.184-.026-.065-.513" fill="#ccc"/><path transform="matrix(.17544.0001-.0001.17544 210.04 365.46)" fill="#0f0" d="m22.55 32.725l3.4-.425.6 4.65-3.42.43z"/></g><g fill="none"><g stroke-linejoin="round" stroke-linecap="round" stroke-miterlimit="3"><path d="m223.94 369.57c.013.057-.053.118-.184.18-.126.067-.283.115-.474.144-.19.03-.358.033-.504.009-.14-.019-.214-.057-.224-.114-.013-.058.05-.121.176-.189.132-.063.292-.109.483-.14.19-.029.356-.033.496-.013.145.024.222.07.232.123zm-1.08.995c.132-.063.293-.11.483-.14.191-.03.356-.033.496-.013.146.024.222.07.232.123.013.057-.053.118-.184.18-.126.067-.283.115-.474.144-.19.03-.358.033-.504.009-.139-.019-.214-.057-.224-.114-.013-.058.05-.121.176-.188zm.223 1.268c-.14-.019-.214-.057-.223-.115-.013-.058.05-.121.176-.188.132-.063.293-.109.483-.14.191-.03.356-.033.496-.013.145.024.222.07.232.123.013.057-.053.118-.184.18-.126.067-.283.115-.474.145-.19.03-.358.033-.504.009z" stroke="#fc9" stroke-width=".351"/><path d="m222.36 369.89l-.623.07.14.983.614-.087m-1.315-.834l.561-.061m-2.23 2.56l.175 1.184m2.195-2.762l.131 1.053.658-.131m-2.37 2.236l1.36-.175.175 1.272 3.114-.393-.35-2.02-.658.043m-5.263-.266l.131 1.272m-1.315-1.141l.175 1.316" stroke="#0f0" stroke-width=".175"/><g stroke-width=".351"><path d="m221.28 372l-4.343.572-.275-2.084 4.343-.572.275 2.084zm2.657 1.194c0 .152-.055.281-.167.386-.111.111-.246.167-.404.166-.158 0-.292-.056-.403-.167-.111-.105-.166-.234-.166-.386 0-.152.055-.284.167-.395.111-.105.246-.158.404-.158.158 0 .292.053.404.158.112.111.166.243.166.395zm-3.712 2.108l-3.071.402-.183-1.413 3.07-.406.183 1.417z" stroke="#999"/><path d="m215.9 369.66l9.102-1.07 1.071 7.584-9.896 1.394m0-.162v-.123l-.114-.448m-.163-7.176l-.737.087" stroke="#000"/></g><g stroke="#000"><path d="m216.06 376.84l.454 3.584-2.092.266-1.48-11.663v-.01l-.338-.149-.938-.413m1.36-.008l-.272-.211-1.132.127m3.066-.126l-.202-.263-1.211.153-.25.32m2.153 1.418l-.013-.114-.127-1-2.092.266m2.079-.372l-.333-.408m1.377 8.602l-.887-6.974" stroke-width=".526"/><path d="m214.1 372.02l-.1-.816.597-.074.105.816-.601.074zm1.086 2.566l.065.513-.184.026-.065-.518.184-.022zm-.878 1.157l-.188-1.5.781-.101.192 1.5-.785.101z" stroke-width=".175"/></g></g><g stroke="#000" stroke-width=".288"><path d="m218.75 368.82l.017-9.88" stroke-dasharray="1.1522 0.576102"/><path d="m183.04 373.32l31.09.017" stroke-dasharray="0.576102 1.72831"/></g></g><text x="192.47" y="372.41" transform="matrix(1 .00055-.00055 1 0 0)" font-family="Yanone Kaffeesatz" word-spacing="0" line-height="125%" letter-spacing="0" font-size="6.519"><tspan x="192.47" y="372.41">1..<tspan font-size="5.889">M</tspan></tspan></text><g transform="matrix(1.28023 0 0 1.28023-1964.44-390.79)"><g fill-rule="evenodd"><path d="m1662.33 552.06c-.01-.045-.068-.077-.181-.096-.109-.016-.238-.013-.387.01-.149.024-.274.06-.377.109-.099.053-.144.102-.137.147.01.045.066.074.175.089.114.019.245.017.394-.007.149-.023.272-.061.37-.113.103-.049.151-.095.144-.14m-1.23.246l-.486.055.109.767.48-.068-.48.068-.109-.767.486-.055m-.925.102l.439-.048-.439.048m1.312.429c-.098.053-.144.102-.137.147.01.045.066.074.175.089.114.019.245.017.394-.007.149-.023.272-.061.37-.113.103-.049.151-.095.144-.14-.01-.045-.068-.077-.181-.096-.109-.016-.238-.013-.387.01-.148.024-.274.06-.377.109m-2.615 1.523l.137.925-.137-.925m1.851-1.232l.102.822.514-.102-.514.102-.102-.822m-.466.829l-.215-1.627-3.392.447.215 1.627 3.392-.447m1.405-.129c.114.019.245.017.394-.007.149-.023.272-.061.37-.113.103-.049.151-.095.144-.14-.01-.045-.068-.077-.181-.096-.109-.016-.238-.013-.387.01-.149.024-.274.06-.377.109-.098.053-.144.102-.137.147.01.045.066.074.175.089m.671 1.063c0-.119-.043-.222-.13-.308-.087-.082-.192-.123-.315-.124-.123 0-.228.041-.315.123-.087.087-.13.189-.13.308 0 .119.043.219.13.302.087.087.192.13.315.13.123 0 .228-.043.315-.13.087-.082.13-.183.13-.301m-2.844.704l1.062-.136.137.994 2.433-.307-.273-1.576-.514.034.514-.034.273 1.576-2.433.307-.137-.994-1.062.136m-.055.942l-.143-1.107-2.398.317.143 1.103 2.398-.314m-3.255 1.201l-.693-5.448.325-.062.24-.096 7.109-.835.836 5.924-7.73 1.089v-.127-.096l-.089-.35m2.044-3.343l.102.994-.102-.994m-.925.102l.137 1.028-.137-1.028" fill="#df0b00"/><path d="m1662.33 552.06c.01.045-.041.092-.144.14-.098.052-.221.09-.37.113-.149.024-.28.026-.394.007-.109-.015-.167-.044-.175-.089-.01-.045.039-.094.137-.147.103-.049.228-.086.377-.109.149-.023.278-.026.387-.01.114.019.174.051.181.096m-.843.777c.103-.049.228-.086.377-.109.149-.023.278-.026.387-.01.114.019.174.051.181.096.01.045-.041.092-.144.14-.098.052-.221.09-.37.113-.149.024-.28.026-.394.007-.109-.015-.167-.044-.175-.089-.01-.045.039-.094.137-.147m-1.231 1.119l-3.392.447-.215-1.627 3.392-.447.215 1.627m1.405-.129c-.109-.015-.167-.044-.175-.089-.01-.045.039-.094.137-.147.103-.049.228-.086.377-.109.149-.023.278-.026.387-.01.114.019.174.051.181.096.01.045-.041.092-.144.14-.098.052-.221.09-.37.113-.149.024-.28.026-.394.007m.671 1.062c0 .119-.043.219-.13.301-.087.087-.192.13-.315.13-.123 0-.228-.044-.315-.13-.087-.082-.13-.183-.13-.302 0-.119.043-.222.13-.308.087-.082.192-.123.315-.123.123 0 .228.041.315.124.087.087.13.19.13.308m-2.899 1.646l-2.398.314-.143-1.103 2.398-.317.143 1.107m-3.943-.561l.051.401-.144.02-.051-.404.144-.017m-.686.904l-.147-1.172.61-.078.15 1.172-.613.078" fill="#333"/><path d="m1655.11 551.02l.216-.027.044.346-.26-.319.26.319.01.082-1.634.208 1.634-.208.099.781.01.089.693 5.448.355 2.799-1.634.208-1.156-9.11-.25.031-.017-.154.264.117v.007-.007l-.264-.117-.038-.281.367-.048 1.299-.164zm-.461 2.953l.469-.058-.082-.637-.466.058.078.637m.163 2.909l.613-.078-.15-1.172-.61.078.147 1.172m.686-.904l-.144.017.051.404.144-.02-.051-.401" fill="#ccc"/></g><use transform="translate(-41.01)" xlink:href="#7"/><g fill="none" stroke-linejoin="round" stroke-linecap="round" stroke-miterlimit="3"><path d="m1662.33 552.06c.01.045-.041.092-.144.14-.098.052-.221.09-.37.113-.149.024-.28.026-.394.007-.109-.015-.167-.044-.175-.089-.01-.045.039-.094.137-.147.103-.049.228-.086.377-.109.149-.023.278-.026.387-.01.114.019.174.051.181.096zm-.843.777c.103-.049.228-.086.377-.109.149-.023.278-.026.387-.01.114.019.174.051.181.096.01.045-.041.092-.144.14-.098.052-.221.09-.37.113-.149.024-.28.026-.394.007-.109-.015-.167-.044-.175-.089-.01-.045.039-.094.137-.147zm.174.99c-.109-.015-.167-.044-.175-.089-.01-.045.039-.094.137-.147.103-.049.228-.086.377-.109.149-.023.278-.026.387-.01.114.019.174.051.181.096.01.045-.041.092-.144.14-.098.052-.221.09-.37.113-.149.024-.28.026-.394.007z" stroke="#fc9" stroke-width=".274"/><path d="m1661.1 552.31l-.486.055.109.767.48-.068m-1.027-.652l.439-.048m-1.742 2l.137.925m1.714-2.157l.102.822.514-.102m-1.851 1.746l1.062-.136.137.994 2.433-.307-.273-1.576-.514.034m-4.111-.208l.102.994m-1.027-.891l.137 1.028" stroke="#0f0" stroke-width=".137"/><g stroke="#000"><path d="m1656.05 552.13l7.109-.835.836 5.924-7.73 1.089m0-.127v-.096l-.089-.35m-.127-5.605l-.576.068" stroke-width=".274"/><path d="m1656.18 557.74l.355 2.799-1.634.208-1.156-9.11v-.007l-.264-.117-.733-.322m1.062-.006l-.212-.165-.884.099m2.395-.098l-.158-.206-.946.119-.195.25m1.682 1.108l-.01-.089-.099-.781-1.634.208m1.624-.29l-.26-.319m1.075 6.719l-.693-5.448" stroke-width=".411"/><path d="m1654.64 553.97l-.078-.637.466-.058.082.637-.469.058zm.849 2l.051.401-.144.02-.051-.404.144-.017zm-.686.904l-.147-1.172.61-.078.15 1.172-.613.078z" stroke-width=".137"/></g></g><g transform="translate(-.273-3.18)"><path d="m1660.53 557.14l-3.392.447-.215-1.627 3.392-.447.215 1.627zm2.076.933c0 .119-.043.219-.13.301-.087.087-.192.13-.315.13-.123 0-.228-.044-.315-.13-.087-.082-.13-.183-.13-.302 0-.119.043-.222.13-.308.087-.082.192-.123.315-.123.123 0 .228.041.315.124.087.087.13.19.13.308zm-2.899 1.646l-2.398.314-.143-1.103 2.398-.317.143 1.107z" stroke-miterlimit="3" fill="none" stroke="#999" stroke-linejoin="round" stroke-linecap="round" stroke-width=".274"/><text y="563.68" x="1657.42" transform="matrix(1 .00055-.00055 1 0 0)" font-family="Yanone Kaffeesatz" word-spacing="0" line-height="125%" letter-spacing="0" font-size="4.207"><tspan y="563.68" x="1657.42">vNic</tspan></text></g><g fill-rule="evenodd"><path d="m1642.02 552.05c-.01-.045-.068-.077-.181-.096-.109-.016-.238-.013-.387.01-.149.024-.274.06-.377.109-.099.053-.144.102-.137.147.01.045.066.074.175.089.114.019.245.017.394-.007.149-.023.272-.061.37-.113.103-.049.151-.095.144-.14m-1.23.246l-.486.054.109.767.48-.068-.48.068-.109-.767.486-.054m-.925.102l.439-.048-.439.048m1.312.429c-.098.053-.144.102-.137.147.01.045.066.074.175.089.114.019.245.017.394-.007.149-.023.272-.061.37-.113.103-.049.151-.095.144-.14-.01-.045-.068-.077-.181-.096-.109-.016-.238-.013-.387.01-.148.024-.274.06-.377.109m-2.615 1.523l.137.925-.137-.925m1.851-1.232l.102.822.514-.102-.514.102-.102-.822m-.466.829l-.215-1.627-3.392.447.215 1.627 3.392-.447m1.405-.129c.114.019.245.017.394-.007.149-.023.272-.061.37-.113.103-.049.151-.095.144-.14-.01-.045-.068-.077-.181-.096-.109-.016-.238-.013-.387.01-.149.024-.274.06-.377.109-.098.053-.144.102-.137.147.01.045.066.074.175.089m.671 1.063c0-.119-.043-.222-.13-.308-.087-.082-.192-.123-.315-.124-.123 0-.228.041-.315.123-.087.087-.13.189-.13.308 0 .119.043.219.13.302.087.087.192.13.315.13.123 0 .228-.043.315-.13.087-.082.13-.183.13-.301m-2.844.704l1.062-.136.137.994 2.433-.307-.273-1.576-.514.034.514-.034.273 1.576-2.433.307-.137-.994-1.062.136m-.055.942l-.143-1.107-2.398.317.143 1.103 2.398-.314m-3.255 1.201l-.693-5.448.325-.062.24-.096 7.109-.835.836 5.924-7.73 1.089v-.127-.096l-.089-.35m2.044-3.343l.102.994-.102-.994m-.925.102l.137 1.028-.137-1.028" fill="#df0b00"/><path d="m1642.02 552.05c.01.045-.041.092-.144.14-.098.052-.221.09-.37.113-.149.024-.28.026-.394.007-.109-.015-.167-.044-.175-.089-.01-.045.039-.094.137-.147.103-.049.228-.086.377-.109.149-.023.278-.026.387-.01.114.019.174.051.181.096m-.843.777c.103-.049.228-.086.377-.109.149-.023.278-.026.387-.01.114.019.174.051.181.096.01.045-.041.092-.144.14-.098.052-.221.09-.37.113-.149.024-.28.026-.394.007-.109-.015-.167-.044-.175-.089-.01-.045.039-.094.137-.147m-1.231 1.119l-3.392.447-.215-1.627 3.392-.447.215 1.627m1.405-.129c-.109-.015-.167-.044-.175-.089-.01-.045.039-.094.137-.147.103-.049.228-.086.377-.109.149-.023.278-.026.387-.01.114.019.174.051.181.096.01.045-.041.092-.144.14-.098.052-.221.09-.37.113-.149.024-.28.026-.394.007m.671 1.062c0 .119-.043.219-.13.301-.087.087-.192.13-.315.13-.123 0-.228-.044-.315-.13-.087-.082-.13-.183-.13-.302 0-.119.043-.222.13-.308.087-.082.192-.123.315-.123.123 0 .228.041.315.124.087.087.13.19.13.308m-2.899 1.646l-2.398.314-.143-1.103 2.398-.317.143 1.107m-3.943-.561l.051.401-.144.02-.051-.404.144-.017m-.686.904l-.147-1.172.61-.078.15 1.172-.613.078" fill="#333"/><path d="m1634.79 551.01l.216-.027.044.346-.26-.319.26.319.01.082-1.634.208 1.634-.208.099.781.01.089.693 5.448.355 2.799-1.634.208-1.156-9.11-.25.031-.017-.154.264.117v.007-.007l-.264-.117-.038-.281.367-.048 1.299-.164zm-.461 2.953l.469-.058-.082-.637-.466.058.078.637m.163 2.909l.613-.078-.15-1.172-.61.078.147 1.172m.686-.904l-.144.017.051.404.144-.02-.051-.401" fill="#ccc"/></g><use transform="matrix(.13704.00008-.00008.13704 1631.17 548.84)" xlink:href="#4"/><g fill="none" stroke-linejoin="round" stroke-linecap="round" stroke-miterlimit="3"><path d="m1642.02 552.05c.01.045-.041.092-.144.14-.098.052-.221.09-.37.113-.149.024-.28.026-.394.007-.109-.015-.167-.044-.175-.089-.01-.045.039-.094.137-.147.103-.049.228-.086.377-.109.149-.023.278-.026.387-.01.114.019.174.051.181.096zm-.843.777c.103-.049.228-.086.377-.109.149-.023.278-.026.387-.01.114.019.174.051.181.096.01.045-.041.092-.144.14-.098.052-.221.09-.37.113-.149.024-.28.026-.394.007-.109-.015-.167-.044-.175-.089-.01-.045.039-.094.137-.147zm.174.99c-.109-.015-.167-.044-.175-.089-.01-.045.039-.094.137-.147.103-.049.228-.086.377-.109.149-.023.278-.026.387-.01.114.019.174.051.181.096.01.045-.041.092-.144.14-.098.052-.221.09-.37.113-.149.024-.28.026-.394.007z" stroke="#fc9" stroke-width=".274"/><path d="m1640.79 552.3l-.486.054.109.767.48-.068m-1.027-.652l.439-.048m-1.742 2l.137.925m1.714-2.157l.102.822.514-.102m-1.851 1.746l1.062-.136.137.994 2.433-.307-.273-1.576-.514.034m-4.111-.208l.102.994m-1.027-.891l.137 1.028" stroke="#0f0" stroke-width=".137"/><g stroke="#000"><path d="m1635.74 552.12l7.109-.835.836 5.924-7.73 1.089m0-.127v-.096l-.089-.35m-.127-5.605l-.576.068" stroke-width=".274"/><path d="m1635.87 557.73l.355 2.799-1.634.208-1.156-9.11v-.007l-.264-.117-.733-.322m1.062-.006l-.212-.165-.884.099m2.395-.098l-.158-.206-.946.119-.195.25m1.682 1.108l-.01-.089-.099-.781-1.634.208m1.624-.29l-.26-.319m1.075 6.719l-.693-5.448" stroke-width=".411"/><path d="m1634.33 553.96l-.078-.637.466-.058.082.637-.469.058zm.849 2l.051.401-.144.02-.051-.404.144-.017zm-.686.904l-.147-1.172.61-.078.15 1.172-.613.078z" stroke-width=".137"/></g></g><g transform="translate(-.273-3.18)"><path d="m1640.22 557.13l-3.392.447-.215-1.627 3.392-.447.215 1.627zm2.076.933c0 .119-.043.219-.13.301-.087.087-.192.13-.315.13-.123 0-.228-.044-.315-.13-.087-.082-.13-.183-.13-.302 0-.119.043-.222.13-.308.087-.082.192-.123.315-.123.123 0 .228.041.315.124.087.087.13.19.13.308zm-2.899 1.646l-2.398.314-.143-1.103 2.398-.317.143 1.107z" stroke-miterlimit="3" fill="none" stroke="#999" stroke-linejoin="round" stroke-linecap="round" stroke-width=".274"/><text y="563.68" x="1637.11" transform="matrix(1 .00055-.00055 1 0 0)" font-family="Yanone Kaffeesatz" word-spacing="0" line-height="125%" letter-spacing="0" font-size="4.207"><tspan y="563.68" x="1637.11">vNic</tspan></text></g><path d="m1643.77 555.26l9.961.005" stroke-dasharray="0.45 1.35" fill="none" stroke="#000" stroke-width=".225"/><text x="1645.32" y="551.44" transform="matrix(1 .00055-.00055 1 0 0)" font-family="Yanone Kaffeesatz" word-spacing="0" line-height="125%" letter-spacing="0" font-size="5.092"><tspan x="1645.32" y="551.44">1..<tspan font-size="4.7">N</tspan></tspan></text><path d="m1648.16 563.85l.01-8.633" stroke-dasharray="0.45 1.35" fill="none" stroke="#000" stroke-width=".225"/></g><g><g transform="matrix(-.07445-.00054-.00054.07445 228.32 306.61)"><use xlink:href="#5"/><path transform="translate(-445.19-34.35)" d="m867.68 556.19c0 3.964-3.285 7.177-7.338 7.177-4.052 0-7.338-3.213-7.338-7.177 0-3.964 3.285-7.177 7.338-7.177 4.052 0 7.338 3.213 7.338 7.177z" fill="#fff" stroke="#000" stroke-linejoin="round" stroke-linecap="round" stroke-dashoffset="3"/><use xlink:href="#6"/></g><text transform="matrix(.99997.00728-.00728.99997 0 0)" x="202.16" y="346.14" font-family="Yanone Kaffeesatz" word-spacing="0" line-height="125%" letter-spacing="0" font-size="6.977"><tspan x="202.16" y="346.14">vlan</tspan></text><path d="m196.92 345.51l.032-2.448" stroke-dasharray="1.1522 0.576102" fill="none" stroke="#000" stroke-width=".288"/></g><path d="m145.59 350.82v-10.652" stroke-dasharray="1.1522 0.576102" fill="none" stroke="#000" stroke-width=".288"/><g transform="matrix(1.2802-.00892.00892 1.2802-1689.66-383.83)"><g transform="matrix(.05816 0 0 .05816 1405.35 553.93)"><use xlink:href="#5"/><path transform="translate(-445.19-34.35)" d="m867.68 556.19c0 3.964-3.285 7.177-7.338 7.177-4.052 0-7.338-3.213-7.338-7.177 0-3.964 3.285-7.177 7.338-7.177 4.052 0 7.338 3.213 7.338 7.177z" fill="#fff" stroke="#000" stroke-linejoin="round" stroke-linecap="round" stroke-dashoffset="3"/><use xlink:href="#6"/></g><text x="1420.75" y="586.19" font-family="Yanone Kaffeesatz" word-spacing="0" line-height="125%" letter-spacing="0" font-size="5.45"><tspan x="1420.75" y="586.19">vlan</tspan></text></g><path d="m145.45 351.3l51.55.101" stroke-dasharray="1.13488 0.56744" fill="none" stroke="#000" stroke-width=".284"/><g transform="matrix(1.28023 0 0 1.28023-1913.29-390.83)"><path transform="matrix(1 .00055-.00055 1 0 0)" fill="url(#3)" stroke="#000" stroke-width=".5" d="m1597.47 562.43h22.1v7.458h-22.1z"/><text y="567.79" x="1599.77" transform="matrix(1 .00055-.00055 1 0 0)" font-family="Yanone Kaffeesatz" word-spacing="0" line-height="125%" letter-spacing="0" font-size="5.45"><tspan y="567.79" x="1599.77">SW Bridge</tspan></text></g><path d="m124.1 345.32l1.964-5.58-3.884-4.955 5.848.313 3.571-5.357 1.518 5.67 5.982 1.83-4.911 3.304.268 6.161-4.509-3.571z" fill="#6a9d00"/><g font-family="Yanone Kaffeesatz" word-spacing="0" line-height="125%" letter-spacing="0" font-size="4.166"><text x="125.32" y="338.76"><tspan x="125.32" y="338.76">satellite</tspan></text><text x="128.28" y="342.09"><tspan x="128.28" y="342.09">net</tspan></text></g><path d="m174.39 345.27l1.964-5.58-3.884-4.955 5.848.313 3.571-5.357 1.518 5.67 5.982 1.83-4.911 3.304.268 6.161-4.509-3.571z" fill="#6a9d00"/><g font-family="Yanone Kaffeesatz" word-spacing="0" line-height="125%" letter-spacing="0" font-size="4.166"><text x="175.61" y="338.71"><tspan x="175.61" y="338.71">webserv</tspan></text><text x="178.57" y="342.05"><tspan x="178.57" y="342.05">net</tspan></text></g><path d="m204.61 361.3l1.964-5.58-3.884-4.955 5.848.313 3.571-5.357 1.518 5.67 5.982 1.83-4.911 3.304.268 6.161-4.509-3.571z" fill="#dd7f2b"/><g font-family="Yanone Kaffeesatz" word-spacing="0" line-height="125%" letter-spacing="0" font-size="4.166"><text x="206.65" y="354.73"><tspan x="206.65" y="354.73">Display</tspan></text><text x="208.79" y="358.07"><tspan x="208.79" y="358.07">net</tspan></text></g><g transform="matrix(1.2802-.00892.00892 1.2802-1675.83-373.13)"><g transform="matrix(.05816 0 0 .05816 1405.35 553.93)"><use xlink:href="#5"/><path transform="translate(-445.19-34.35)" d="m867.68 556.19c0 3.964-3.285 7.177-7.338 7.177-4.052 0-7.338-3.213-7.338-7.177 0-3.964 3.285-7.177 7.338-7.177 4.052 0 7.338 3.213 7.338 7.177z" fill="#fff" stroke="#000" stroke-linejoin="round" stroke-linecap="round" stroke-dashoffset="3"/><use xlink:href="#6"/></g><text x="1420.75" y="586.19" font-family="Yanone Kaffeesatz" word-spacing="0" line-height="125%" letter-spacing="0" font-size="5.45"><tspan x="1420.75" y="586.19">vlan</tspan></text></g><path d="m159.54 361.98v-10.652" stroke-dasharray="1.1522 0.576102" fill="none" stroke="#000" stroke-width=".288"/><path d="m138.29 373.73l1.964-5.58-3.884-4.955 5.848.313 3.571-5.357 1.518 5.67 5.982 1.83-4.911 3.304.268 6.161-4.509-3.571z" fill="#dd7f2b"/><g font-family="Yanone Kaffeesatz" word-spacing="0" line-height="125%" letter-spacing="0" font-size="4.166"><text x="139.67" y="367.17"><tspan x="139.67" y="367.17">storage</tspan></text><text x="142.61" y="370.51"><tspan x="142.61" y="370.51">net</tspan></text></g></g></svg>
